if (_typeface_js && _typeface_js.loadFace) _typeface_js.loadFace({"glyphs":{"蔇":{"x_min":0,"x_max":0,"ha":2083},"囁":{"x_min":0,"x_max":0,"ha":2083},"剽":{"x_min":0,"x_max":0,"ha":2083},"敨":{"x_min":0,"x_max":0,"ha":2083},"頇":{"x_min":0,"x_max":0,"ha":2083},"骾":{"x_min":0,"x_max":0,"ha":2083},"咚":{"x_min":0,"x_max":0,"ha":2083},"泅":{"x_min":0,"x_max":0,"ha":2083},"吮":{"x_min":0,"x_max":0,"ha":2083},"鐇":{"x_min":0,"x_max":0,"ha":2083},"圚":{"x_min":0,"x_max":0,"ha":2083},"惃":{"x_min":0,"x_max":0,"ha":2083},"蝏":{"x_min":0,"x_max":0,"ha":2083},"耍":{"x_min":0,"x_max":0,"ha":2083},"躕":{"x_min":0,"x_max":0,"ha":2083},"潫":{"x_min":0,"x_max":0,"ha":2083},"脰":{"x_min":0,"x_max":0,"ha":2083},"覷":{"x_min":0,"x_max":0,"ha":2083},"寂":{"x_min":0,"x_max":0,"ha":2083},"添":{"x_min":0,"x_max":0,"ha":2083},"騙":{"x_min":0,"x_max":0,"ha":2083},"胂":{"x_min":0,"x_max":0,"ha":2083},"芋":{"x_min":0,"x_max":0,"ha":2083},"猀":{"x_min":0,"x_max":0,"ha":2083},"斲":{"x_min":0,"x_max":0,"ha":2083},"洠":{"x_min":0,"x_max":0,"ha":2083},"戙":{"x_min":0,"x_max":0,"ha":2083},"跠":{"x_min":0,"x_max":0,"ha":2083},"熥":{"x_min":0,"x_max":0,"ha":2083},"谷":{"x_min":0,"x_max":0,"ha":2083},"殭":{"x_min":0,"x_max":0,"ha":2083},"賮":{"x_min":0,"x_max":0,"ha":2083},"嬖":{"x_min":0,"x_max":0,"ha":2083},"肸":{"x_min":0,"x_max":0,"ha":2083},"豢":{"x_min":0,"x_max":0,"ha":2083},"嶴":{"x_min":0,"x_max":0,"ha":2083},"蜮":{"x_min":0,"x_max":0,"ha":2083},"藋":{"x_min":0,"x_max":0,"ha":2083},"悛":{"x_min":0,"x_max":0,"ha":2083},"紗":{"x_min":0,"x_max":0,"ha":2083},"戳":{"x_min":0,"x_max":0,"ha":2083},"胉":{"x_min":0,"x_max":0,"ha":2083},"鍪":{"x_min":0,"x_max":0,"ha":2083},"埐":{"x_min":0,"x_max":0,"ha":2083},"燜":{"x_min":0,"x_max":0,"ha":2083},"遼":{"x_min":0,"x_max":0,"ha":2083},"埁":{"x_min":0,"x_max":0,"ha":2083},"絅":{"x_min":0,"x_max":0,"ha":2083},"仚":{"x_min":0,"x_max":0,"ha":2083},"折":{"x_min":0,"x_max":0,"ha":2083},"瑏":{"x_min":0,"x_max":0,"ha":2083},"趺":{"x_min":0,"x_max":0,"ha":2083},"k":{"x_min":39.328125,"x_max":744.625,"ha":776,"o":"m 184 881 q 233 868 233 906 l 233 347 q 273 345 233 314 l 450 496 q 435 556 512 545 q 409 581 409 556 q 450 610 409 610 l 653 610 q 695 584 695 610 q 655 554 695 558 q 457 427 569 545 q 451 355 425 396 q 580 151 514 253 q 693 37 617 73 q 744 5 744 29 q 703 -18 744 -18 l 505 -18 q 463 6 463 -18 q 504 36 463 32 q 520 94 566 42 l 382 314 q 325 317 362 347 q 271 272 298 297 q 234 208 234 241 l 234 120 q 298 36 222 46 q 343 9 343 35 q 302 -17 343 -17 l 81 -17 q 39 8 39 -17 q 80 36 39 33 q 149 89 135 33 l 149 754 q 93 800 136 801 q 48 820 48 802 q 89 849 48 842 q 184 881 139 859 "},"喵":{"x_min":0,"x_max":0,"ha":2083},"趄":{"x_min":0,"x_max":0,"ha":2083},"薸":{"x_min":0,"x_max":0,"ha":2083},"鏟":{"x_min":0,"x_max":0,"ha":2083},"已":{"x_min":0,"x_max":0,"ha":2083},"鉬":{"x_min":0,"x_max":0,"ha":2083},"齻":{"x_min":0,"x_max":0,"ha":2083},"墦":{"x_min":0,"x_max":0,"ha":2083},"墎":{"x_min":0,"x_max":0,"ha":2083},"侕":{"x_min":0,"x_max":0,"ha":2083},"鰔":{"x_min":0,"x_max":0,"ha":2083},"譻":{"x_min":0,"x_max":0,"ha":2083},"蛶":{"x_min":0,"x_max":0,"ha":2083},"呠":{"x_min":0,"x_max":0,"ha":2083},"于":{"x_min":0,"x_max":0,"ha":2083},"壈":{"x_min":0,"x_max":0,"ha":2083},"棰":{"x_min":0,"x_max":0,"ha":2083},"慷":{"x_min":0,"x_max":0,"ha":2083},"撻":{"x_min":0,"x_max":0,"ha":2083},"可":{"x_min":0,"x_max":0,"ha":2083},"踑":{"x_min":0,"x_max":0,"ha":2083},"崆":{"x_min":0,"x_max":0,"ha":2083},"流":{"x_min":171.1875,"x_max":2022.796875,"ha":2083,"o":"m 1646 983 q 1692 963 1673 992 q 1685 953 1692 960 q 1666 915 1677 944 q 1680 895 1660 893 q 1753 897 1702 892 q 1784 892 1768 903 q 1793 859 1802 877 l 1772 756 q 1729 655 1752 684 q 1692 626 1711 627 q 1677 629 1684 623 l 1661 652 q 1639 683 1637 682 q 1658 680 1645 683 l 1676 676 q 1717 699 1696 675 q 1760 854 1753 775 q 1753 870 1761 862 q 1723 874 1749 874 q 1673 872 1699 874 q 1642 845 1652 869 q 1525 684 1607 752 q 1483 660 1502 663 q 1479 663 1481 660 q 1609 845 1570 752 q 1595 863 1619 868 q 1519 835 1559 863 q 1504 862 1496 834 q 1517 874 1505 869 q 1534 920 1535 888 q 1540 935 1532 929 q 1563 918 1562 948 l 1555 889 q 1557 881 1555 884 q 1586 884 1561 878 l 1608 888 q 1638 915 1628 891 q 1646 961 1650 950 q 1646 983 1641 973 m 1765 451 q 1818 446 1790 455 q 1840 432 1832 443 q 1836 420 1844 427 q 1808 415 1825 410 l 1748 419 l 1677 419 q 1524 394 1593 415 q 1472 406 1501 387 q 1458 432 1452 429 q 1482 431 1466 435 q 1532 429 1508 425 l 1737 444 q 1765 451 1751 446 m 1905 253 l 2022 332 q 2012 303 2025 329 q 1928 210 1954 233 q 1908 204 1915 203 q 1905 253 1866 226 m 1722 188 q 1774 191 1745 196 q 1795 170 1789 187 q 1778 138 1797 164 l 1749 94 q 1713 36 1730 59 q 1722 0 1696 16 q 1798 -54 1764 -27 q 1827 -78 1813 -63 q 1841 -113 1844 -105 q 1795 -105 1822 -139 q 1699 -21 1760 -69 q 1658 -25 1679 -5 q 1478 -149 1563 -113 q 1449 -150 1452 -153 q 1477 -132 1451 -147 q 1631 -9 1558 -85 q 1630 28 1653 13 l 1559 74 q 1535 93 1534 90 q 1563 86 1538 94 q 1647 47 1599 73 q 1685 54 1668 35 q 1727 128 1711 92 q 1714 158 1741 151 q 1662 154 1691 160 q 1559 138 1586 145 q 1502 160 1524 131 q 1517 168 1506 168 q 1722 188 1622 173 m 816 998 q 834 1007 823 1009 q 926 916 910 971 q 906 881 925 908 l 895 865 q 920 845 874 834 l 1021 869 q 1144 854 1090 887 q 1166 821 1163 843 q 1112 792 1158 785 q 866 770 977 789 q 813 731 834 764 l 691 524 q 699 493 668 488 l 956 535 q 958 581 988 541 l 900 655 q 942 655 901 661 q 1052 600 986 644 q 1146 438 1169 514 q 1091 427 1129 405 q 1033 478 1067 442 q 969 500 1011 511 q 653 394 743 436 q 542 448 576 348 q 585 489 545 463 q 634 539 618 512 q 731 718 684 618 q 701 741 747 748 q 600 722 642 724 q 512 754 550 728 q 518 769 511 762 q 576 778 526 775 q 737 804 640 781 q 783 842 773 811 q 816 998 813 907 m 303 839 q 417 819 358 843 q 473 762 466 793 q 467 690 492 716 q 364 741 429 670 q 322 796 341 769 q 303 839 298 836 m 185 520 q 189 564 154 566 q 286 537 242 558 q 345 451 343 508 q 318 413 348 421 q 185 520 252 421 m 301 138 q 461 397 378 269 q 470 389 467 396 q 364 109 447 295 q 283 -103 310 -17 q 227 -82 257 -130 q 184 32 189 -21 q 199 50 187 39 q 301 138 260 78 m 949 371 q 980 374 950 386 q 1034 340 1007 362 q 1056 299 1059 320 q 1030 24 1029 200 q 1055 -54 1024 -20 q 1204 -51 1148 -82 q 1262 -23 1242 -21 q 1325 -65 1307 -32 q 1296 -118 1334 -107 q 1188 -138 1245 -135 q 1043 -126 1098 -147 q 958 -14 965 -100 q 964 253 956 116 q 949 371 969 294 m 760 345 q 807 345 764 352 q 849 320 823 339 q 862 244 872 294 q 859 -31 864 108 q 816 -112 857 -88 q 793 -71 798 -111 q 790 269 789 99 l 782 297 q 760 345 759 339 m 604 336 q 660 332 609 343 q 703 265 725 307 q 562 -44 676 100 q 387 -138 466 -153 q 423 -101 383 -134 q 617 245 592 36 q 610 302 621 273 q 604 336 596 320 "},"撲":{"x_min":70.296875,"x_max":1813.875,"ha":2083,"o":"m 1597 835 q 1601 853 1597 851 q 1635 835 1620 858 q 1631 809 1641 823 l 1599 759 q 1588 735 1585 739 q 1618 731 1592 729 q 1718 741 1668 735 q 1763 750 1748 750 q 1779 737 1775 747 q 1778 712 1787 721 q 1733 660 1745 687 q 1698 610 1721 638 q 1698 575 1677 588 l 1745 545 q 1806 484 1793 515 q 1795 454 1817 462 q 1715 516 1768 466 q 1676 547 1696 533 q 1631 549 1653 565 q 1459 454 1551 491 q 1429 448 1433 444 q 1456 470 1426 453 q 1597 562 1524 507 q 1597 599 1623 584 q 1547 629 1572 615 q 1517 652 1516 648 q 1546 648 1520 657 l 1624 611 q 1664 623 1645 602 q 1710 689 1695 653 q 1691 714 1715 712 q 1584 703 1646 714 l 1532 687 q 1505 703 1506 676 q 1524 727 1508 717 q 1592 811 1565 751 q 1597 835 1595 817 m 1730 375 q 1745 377 1733 382 q 1752 313 1799 345 l 1732 288 q 1695 238 1714 263 q 1703 198 1677 218 q 1801 116 1760 155 q 1810 78 1820 97 q 1763 90 1787 52 q 1675 176 1714 143 q 1628 170 1654 193 q 1471 67 1546 99 q 1441 58 1444 56 q 1464 80 1439 62 q 1607 189 1547 135 q 1608 230 1630 212 q 1512 301 1559 267 q 1490 320 1486 318 q 1515 316 1501 325 q 1630 246 1570 290 q 1673 257 1650 233 q 1723 352 1713 307 q 1730 375 1725 363 m 926 1000 q 1044 946 984 1014 q 1033 897 1047 941 l 1003 783 q 1040 781 996 751 q 1101 847 1086 817 q 1133 900 1124 900 q 1216 847 1171 891 q 1185 808 1220 839 q 1025 724 1110 752 q 981 683 988 714 q 1013 656 972 649 l 1118 678 q 1280 667 1226 708 q 1299 636 1300 655 q 1283 611 1299 621 q 706 546 994 606 q 571 542 641 520 q 528 576 520 566 q 553 587 538 584 q 745 606 630 588 q 778 645 778 613 q 752 847 775 769 q 722 887 736 874 q 710 915 694 896 q 816 885 755 927 q 845 801 857 851 q 832 656 832 735 q 873 630 832 623 q 885 632 878 629 q 923 668 922 638 q 937 903 933 785 q 931 975 939 953 q 926 1000 920 995 m 297 922 q 356 934 299 948 q 424 893 406 922 q 406 667 404 767 q 447 651 406 634 q 493 656 462 659 q 546 632 546 642 q 439 585 524 598 q 405 534 406 575 q 404 444 402 489 q 444 434 404 412 l 485 459 q 542 485 538 491 q 505 438 545 477 q 436 381 472 412 q 404 320 404 352 q 394 -48 404 162 q 360 -157 393 -94 q 294 -132 318 -202 q 227 -24 268 -75 q 240 2 199 14 l 268 -9 q 336 28 329 -55 l 341 275 q 307 275 343 305 q 210 187 259 233 q 161 149 172 149 q 70 225 104 170 q 75 237 69 231 q 301 343 174 260 q 344 404 344 371 l 345 526 q 305 550 345 558 q 264 541 284 547 q 183 538 231 526 q 134 568 130 561 q 187 583 142 575 q 314 607 250 592 q 347 649 347 617 q 336 838 352 755 q 297 922 332 872 m 603 754 q 625 798 573 804 q 718 703 722 770 q 710 675 717 682 q 603 754 659 676 m 967 535 q 1013 575 972 583 q 1072 542 1056 564 q 1037 501 1072 537 l 1011 478 q 1022 459 983 448 q 1101 465 1056 473 q 1137 447 1136 453 q 1114 421 1142 429 q 1006 400 1085 408 q 926 387 967 396 q 914 368 888 382 q 934 318 958 349 q 973 313 927 301 q 1085 316 1015 336 q 1071 279 1108 295 q 946 254 1028 264 q 908 211 916 250 q 941 181 900 176 l 1165 206 q 1220 198 1192 210 q 1279 157 1254 188 q 1209 131 1273 123 q 960 131 1147 142 q 963 89 923 127 q 1272 -107 1133 -78 q 1276 -142 1323 -124 l 1175 -158 q 1114 -166 1148 -165 q 1075 -161 1086 -166 q 1002 -65 1047 -136 l 907 93 q 868 85 882 128 q 712 -99 824 -31 q 572 -154 646 -142 q 565 -123 515 -154 q 798 81 722 -61 q 785 115 816 118 q 632 89 709 107 q 549 94 587 73 q 528 128 515 119 l 794 162 q 838 202 827 168 q 802 234 843 237 q 655 249 717 207 q 698 265 655 254 l 813 282 q 838 345 866 271 q 781 368 826 374 q 632 381 693 343 q 633 394 629 387 q 770 412 699 408 q 769 458 802 417 l 747 496 q 735 538 727 537 q 851 443 836 534 q 887 428 849 423 q 946 474 929 435 q 967 535 960 504 "},"鼊":{"x_min":0,"x_max":0,"ha":2083},"鮶":{"x_min":0,"x_max":0,"ha":2083},"庹":{"x_min":0,"x_max":0,"ha":2083},"偣":{"x_min":0,"x_max":0,"ha":2083},"髟":{"x_min":0,"x_max":0,"ha":2083},"蚙":{"x_min":0,"x_max":0,"ha":2083},"繜":{"x_min":0,"x_max":0,"ha":2083},"輟":{"x_min":0,"x_max":0,"ha":2083},"魾":{"x_min":0,"x_max":0,"ha":2083},"斻":{"x_min":0,"x_max":0,"ha":2083},"巏":{"x_min":0,"x_max":0,"ha":2083},"8":{"x_min":93.078125,"x_max":751.3125,"ha":784,"o":"m 284 873 q 636 828 467 949 q 694 594 746 714 q 564 469 653 504 q 580 438 534 457 q 736 130 801 325 q 652 27 710 67 q 386 -36 530 -47 q 173 43 268 -28 q 101 154 118 93 q 267 440 54 336 q 260 476 299 451 q 131 686 113 557 q 284 873 145 807 m 387 846 q 250 785 305 835 q 212 676 204 739 q 333 534 221 600 q 442 488 390 497 q 550 534 496 481 q 607 750 657 637 q 387 846 527 861 m 366 421 q 276 391 337 434 q 180 181 154 292 q 244 73 187 127 q 481 24 340 -8 q 649 176 625 51 q 501 370 656 301 q 366 421 436 401 "},"恚":{"x_min":0,"x_max":0,"ha":2083},"屔":{"x_min":0,"x_max":0,"ha":2083},"泇":{"x_min":0,"x_max":0,"ha":2083},"狎":{"x_min":0,"x_max":0,"ha":2083},"蛭":{"x_min":0,"x_max":0,"ha":2083},"焨":{"x_min":0,"x_max":0,"ha":2083},"鼾":{"x_min":0,"x_max":0,"ha":2083},"洩":{"x_min":0,"x_max":0,"ha":2083},"妵":{"x_min":0,"x_max":0,"ha":2083},"悔":{"x_min":0,"x_max":0,"ha":2083},"骰":{"x_min":0,"x_max":0,"ha":2083},"稙":{"x_min":0,"x_max":0,"ha":2083},"鎟":{"x_min":0,"x_max":0,"ha":2083},"藀":{"x_min":0,"x_max":0,"ha":2083},"沂":{"x_min":0,"x_max":0,"ha":2083},"椓":{"x_min":0,"x_max":0,"ha":2083},"魧":{"x_min":0,"x_max":0,"ha":2083},"浦":{"x_min":0,"x_max":0,"ha":2083},"摧":{"x_min":0,"x_max":0,"ha":2083},"堩":{"x_min":0,"x_max":0,"ha":2083},"儕":{"x_min":0,"x_max":0,"ha":2083},"賥":{"x_min":0,"x_max":0,"ha":2083},"浴":{"x_min":0,"x_max":0,"ha":2083},"愓":{"x_min":0,"x_max":0,"ha":2083},"紐":{"x_min":0,"x_max":0,"ha":2083},"銬":{"x_min":0,"x_max":0,"ha":2083},"噤":{"x_min":0,"x_max":0,"ha":2083},"彗":{"x_min":0,"x_max":0,"ha":2083},"訟":{"x_min":0,"x_max":0,"ha":2083},"析":{"x_min":0,"x_max":0,"ha":2083},"蘙":{"x_min":0,"x_max":0,"ha":2083},"汎":{"x_min":0,"x_max":0,"ha":2083},"魬":{"x_min":0,"x_max":0,"ha":2083},"瞿":{"x_min":0,"x_max":0,"ha":2083},"肂":{"x_min":0,"x_max":0,"ha":2083},"司":{"x_min":0,"x_max":0,"ha":2083},"鰆":{"x_min":0,"x_max":0,"ha":2083},"筍":{"x_min":0,"x_max":0,"ha":2083},"鄰":{"x_min":0,"x_max":0,"ha":2083},"眒":{"x_min":0,"x_max":0,"ha":2083},"儌":{"x_min":0,"x_max":0,"ha":2083},"畚":{"x_min":0,"x_max":0,"ha":2083},"戧":{"x_min":0,"x_max":0,"ha":2083},"薜":{"x_min":0,"x_max":0,"ha":2083},"全":{"x_min":0,"x_max":0,"ha":2083},"蜼":{"x_min":0,"x_max":0,"ha":2083},"鄘":{"x_min":0,"x_max":0,"ha":2083},"遙":{"x_min":0,"x_max":0,"ha":2083},"撗":{"x_min":0,"x_max":0,"ha":2083},"酵":{"x_min":0,"x_max":0,"ha":2083},"芸":{"x_min":0,"x_max":0,"ha":2083},"氝":{"x_min":0,"x_max":0,"ha":2083},"墇":{"x_min":0,"x_max":0,"ha":2083},"蜋":{"x_min":0,"x_max":0,"ha":2083},"艖":{"x_min":0,"x_max":0,"ha":2083},"櫡":{"x_min":0,"x_max":0,"ha":2083},"蓇":{"x_min":0,"x_max":0,"ha":2083},"殶":{"x_min":0,"x_max":0,"ha":2083},"戍":{"x_min":0,"x_max":0,"ha":2083},"夔":{"x_min":0,"x_max":0,"ha":2083},"虻":{"x_min":0,"x_max":0,"ha":2083},"糞":{"x_min":0,"x_max":0,"ha":2083},"1":{"x_min":51.546875,"x_max":587.34375,"ha":656,"o":"m 282 840 q 339 877 321 877 q 360 836 360 877 l 360 96 q 453 28 377 21 l 542 28 q 587 5 583 28 q 547 -18 588 -18 l 93 -18 q 51 6 51 -18 q 92 33 51 33 l 177 33 q 273 92 257 25 q 276 705 278 398 q 252 740 272 728 q 96 743 174 744 q 54 767 54 743 q 94 796 54 794 q 282 840 204 792 "},"郝":{"x_min":0,"x_max":0,"ha":2083},"堄":{"x_min":0,"x_max":0,"ha":2083},"噥":{"x_min":0,"x_max":0,"ha":2083},"杏":{"x_min":0,"x_max":0,"ha":2083},"弝":{"x_min":0,"x_max":0,"ha":2083},"焐":{"x_min":0,"x_max":0,"ha":2083},"窲":{"x_min":0,"x_max":0,"ha":2083},"榖":{"x_min":0,"x_max":0,"ha":2083},"樠":{"x_min":0,"x_max":0,"ha":2083},"貓":{"x_min":0,"x_max":0,"ha":2083},"毻":{"x_min":0,"x_max":0,"ha":2083},"虱":{"x_min":0,"x_max":0,"ha":2083},"焗":{"x_min":0,"x_max":0,"ha":2083},"齰":{"x_min":0,"x_max":0,"ha":2083},"結":{"x_min":0,"x_max":0,"ha":2083},"螇":{"x_min":0,"x_max":0,"ha":2083},"巘":{"x_min":0,"x_max":0,"ha":2083},"交":{"x_min":0,"x_max":0,"ha":2083},"柂":{"x_min":0,"x_max":0,"ha":2083},"螞":{"x_min":0,"x_max":0,"ha":2083},"崟":{"x_min":0,"x_max":0,"ha":2083},"娭":{"x_min":0,"x_max":0,"ha":2083},"鼕":{"x_min":0,"x_max":0,"ha":2083},"嵱":{"x_min":0,"x_max":0,"ha":2083},"櫬":{"x_min":0,"x_max":0,"ha":2083},"鎃":{"x_min":0,"x_max":0,"ha":2083},"蟤":{"x_min":0,"x_max":0,"ha":2083},"苡":{"x_min":0,"x_max":0,"ha":2083},"沕":{"x_min":0,"x_max":0,"ha":2083},"蝝":{"x_min":0,"x_max":0,"ha":2083},"狽":{"x_min":0,"x_max":0,"ha":2083},"踘":{"x_min":0,"x_max":0,"ha":2083},"霰":{"x_min":0,"x_max":0,"ha":2083},"嵉":{"x_min":0,"x_max":0,"ha":2083},"胎":{"x_min":0,"x_max":0,"ha":2083},"礫":{"x_min":0,"x_max":0,"ha":2083},"掤":{"x_min":0,"x_max":0,"ha":2083},"簏":{"x_min":0,"x_max":0,"ha":2083},"蹊":{"x_min":0,"x_max":0,"ha":2083},"p":{"x_min":42.046875,"x_max":705.75,"ha":761,"o":"m 187 590 q 236 576 236 614 q 276 566 236 534 q 549 587 409 645 q 694 385 664 514 q 683 155 721 265 q 509 -25 629 21 q 272 4 396 -65 q 237 -4 237 27 l 237 -92 q 299 -176 225 -169 q 345 -203 345 -179 q 305 -229 345 -229 l 84 -229 q 42 -204 42 -229 q 82 -176 42 -177 q 149 -135 126 -180 q 151 462 153 162 q 96 508 142 509 q 51 528 51 511 q 92 557 51 550 q 187 590 131 565 m 394 557 q 254 482 321 553 q 238 428 238 461 l 238 122 q 275 51 238 89 q 516 56 406 -29 q 615 306 633 170 q 524 523 613 434 q 394 557 470 562 "},"篢":{"x_min":0,"x_max":0,"ha":2083},"鍐":{"x_min":0,"x_max":0,"ha":2083},"詳":{"x_min":0,"x_max":0,"ha":2083},"鼤":{"x_min":0,"x_max":0,"ha":2083},"茩":{"x_min":0,"x_max":0,"ha":2083},"洛":{"x_min":0,"x_max":0,"ha":2083},"酬":{"x_min":0,"x_max":0,"ha":2083},"噞":{"x_min":0,"x_max":0,"ha":2083},"呎":{"x_min":0,"x_max":0,"ha":2083},"瑢":{"x_min":0,"x_max":0,"ha":2083},"絽":{"x_min":0,"x_max":0,"ha":2083},"雇":{"x_min":0,"x_max":0,"ha":2083},"柞":{"x_min":0,"x_max":0,"ha":2083},"硃":{"x_min":0,"x_max":0,"ha":2083},"樸":{"x_min":0,"x_max":0,"ha":2083},"y":{"x_min":25.765625,"x_max":709.40625,"ha":728,"o":"m 25 566 q 63 594 25 594 l 273 594 q 316 569 316 594 q 275 538 316 543 q 254 459 215 523 q 367 180 309 320 q 400 188 382 147 l 514 459 q 481 541 560 533 q 435 568 435 543 q 476 594 435 594 l 670 594 q 709 568 710 594 q 665 539 708 542 q 571 447 594 531 q 339 -94 453 176 q 143 -227 271 -234 q 66 -149 61 -204 q 184 -138 97 -78 q 223 -151 217 -154 q 318 -1 279 -105 q 322 63 336 35 l 170 434 q 61 539 142 530 q 25 566 25 543 "},"蘇":{"x_min":0,"x_max":0,"ha":2083},"癒":{"x_min":0,"x_max":0,"ha":2083},"劼":{"x_min":0,"x_max":0,"ha":2083},"顅":{"x_min":0,"x_max":0,"ha":2083},"灩":{"x_min":0,"x_max":0,"ha":2083},"鷑":{"x_min":0,"x_max":0,"ha":2083},"抑":{"x_min":0,"x_max":0,"ha":2083},"易":{"x_min":0,"x_max":0,"ha":2083},"媻":{"x_min":0,"x_max":0,"ha":2083},"疘":{"x_min":0,"x_max":0,"ha":2083},"殟":{"x_min":0,"x_max":0,"ha":2083},"睿":{"x_min":0,"x_max":0,"ha":2083},"觶":{"x_min":0,"x_max":0,"ha":2083},"吙":{"x_min":0,"x_max":0,"ha":2083},"犽":{"x_min":0,"x_max":0,"ha":2083},"薕":{"x_min":0,"x_max":0,"ha":2083},"鏑":{"x_min":0,"x_max":0,"ha":2083},"崦":{"x_min":0,"x_max":0,"ha":2083},"蕻":{"x_min":0,"x_max":0,"ha":2083},"潼":{"x_min":0,"x_max":0,"ha":2083},"貉":{"x_min":0,"x_max":0,"ha":2083},"舥":{"x_min":0,"x_max":0,"ha":2083},"埌":{"x_min":0,"x_max":0,"ha":2083},"滁":{"x_min":0,"x_max":0,"ha":2083},"讖":{"x_min":0,"x_max":0,"ha":2083},"薃":{"x_min":0,"x_max":0,"ha":2083},"顯":{"x_min":0,"x_max":0,"ha":2083},"楚":{"x_min":0,"x_max":0,"ha":2083},"鄴":{"x_min":0,"x_max":0,"ha":2083},"鋼":{"x_min":0,"x_max":0,"ha":2083},"鞊":{"x_min":0,"x_max":0,"ha":2083},"毲":{"x_min":0,"x_max":0,"ha":2083},"蕔":{"x_min":0,"x_max":0,"ha":2083},"串":{"x_min":0,"x_max":0,"ha":2083},"孕":{"x_min":0,"x_max":0,"ha":2083},"鞚":{"x_min":0,"x_max":0,"ha":2083},"氶":{"x_min":0,"x_max":0,"ha":2083},"嘧":{"x_min":0,"x_max":0,"ha":2083},"桏":{"x_min":0,"x_max":0,"ha":2083},"鮯":{"x_min":0,"x_max":0,"ha":2083},"筠":{"x_min":0,"x_max":0,"ha":2083},"努":{"x_min":0,"x_max":0,"ha":2083},"酣":{"x_min":0,"x_max":0,"ha":2083},"恀":{"x_min":0,"x_max":0,"ha":2083},"脛":{"x_min":0,"x_max":0,"ha":2083},"徯":{"x_min":0,"x_max":0,"ha":2083},"魋":{"x_min":0,"x_max":0,"ha":2083},"勉":{"x_min":0,"x_max":0,"ha":2083},"訂":{"x_min":0,"x_max":0,"ha":2083},"洄":{"x_min":0,"x_max":0,"ha":2083},"股":{"x_min":0,"x_max":0,"ha":2083},"耄":{"x_min":0,"x_max":0,"ha":2083},"洒":{"x_min":170.953125,"x_max":2038.75,"ha":2083,"o":"m 1609 980 q 1637 981 1611 984 q 1669 960 1654 977 q 1658 931 1671 957 l 1647 877 q 1664 859 1641 858 q 1782 873 1734 862 q 1829 850 1820 874 q 1801 834 1831 826 q 1656 831 1749 840 q 1626 802 1635 828 l 1616 778 q 1611 754 1609 758 q 1634 748 1620 744 q 1710 766 1685 755 q 1749 751 1734 771 q 1734 716 1752 744 l 1704 664 q 1630 599 1669 609 q 1639 622 1619 602 q 1703 721 1677 663 q 1696 736 1704 728 q 1668 736 1692 739 q 1592 714 1624 729 q 1565 727 1573 699 q 1581 755 1567 741 q 1597 801 1593 775 q 1577 821 1601 823 q 1502 805 1540 815 q 1463 812 1485 797 q 1439 836 1439 834 q 1468 840 1443 840 q 1588 851 1502 835 q 1611 877 1608 854 q 1616 961 1623 927 q 1609 980 1609 973 m 1721 558 q 1749 554 1732 568 q 1767 530 1764 541 q 1740 503 1765 523 l 1703 466 q 1704 434 1683 447 q 1776 391 1744 413 q 1799 366 1798 371 q 1760 352 1791 328 q 1708 394 1741 371 l 1683 413 q 1638 415 1658 429 q 1462 333 1538 347 q 1485 351 1459 336 q 1612 429 1555 387 q 1608 459 1634 444 l 1531 501 q 1505 522 1500 519 q 1535 515 1516 522 l 1633 473 q 1679 484 1656 462 q 1714 533 1700 504 q 1721 558 1718 545 m 1870 303 q 1881 320 1851 339 l 1927 283 q 1973 290 1949 272 q 2022 328 2003 310 l 2038 336 q 2030 310 2039 336 q 1972 212 2003 261 q 1915 227 1940 179 l 1870 303 m 1654 211 q 1687 168 1703 208 q 1687 116 1676 153 q 1723 14 1698 59 q 1837 -90 1771 -63 q 1864 -109 1862 -96 q 1836 -119 1862 -113 q 1790 -120 1806 -124 q 1741 -78 1765 -111 q 1656 141 1671 13 q 1642 162 1646 161 q 1528 108 1600 147 q 1464 131 1482 82 q 1493 139 1467 134 q 1622 191 1561 153 q 1654 211 1642 208 m 309 842 q 322 889 276 889 q 466 762 448 877 q 435 728 469 729 q 309 842 382 736 m 1051 869 q 1170 868 1124 888 q 1185 831 1204 855 q 1006 783 1142 800 q 977 767 968 777 q 992 728 995 748 l 981 573 q 1024 552 980 542 l 1121 580 q 1291 505 1184 603 q 1277 478 1293 497 q 1251 351 1253 439 q 1224 80 1241 172 q 1169 -28 1215 23 q 1079 -25 1094 -108 l 1066 0 q 1005 36 1045 40 q 657 6 774 10 q 623 -13 627 12 q 599 -46 617 -48 q 564 75 560 -17 q 541 292 554 219 q 500 446 531 378 q 485 495 478 491 q 575 485 524 504 q 623 480 587 476 l 713 491 q 748 528 748 497 q 724 697 747 640 q 661 725 699 732 q 577 728 606 718 q 520 755 523 745 q 564 774 523 764 q 1051 869 863 808 m 843 756 l 816 752 l 798 750 q 783 731 764 744 q 808 690 812 713 q 819 542 819 581 q 861 518 817 511 q 882 522 872 518 q 918 571 915 530 q 922 633 918 599 q 914 722 926 694 q 843 756 892 764 m 193 565 q 172 611 165 609 q 278 592 230 615 q 349 496 343 558 q 337 448 359 467 q 229 518 291 435 l 193 565 m 1114 518 l 1010 501 q 973 454 977 495 q 973 317 968 387 q 1011 306 990 298 q 1089 307 1048 309 q 1137 286 1127 318 q 1048 236 1139 234 q 916 313 952 218 q 911 428 908 344 q 912 455 914 442 q 869 477 914 485 l 853 474 q 813 438 816 467 q 740 230 809 324 q 663 173 695 183 q 668 207 632 168 q 744 421 741 301 q 706 447 747 457 l 668 439 q 607 431 632 429 q 602 391 599 432 q 627 92 625 193 q 668 59 627 59 q 980 104 827 69 q 1083 93 1024 118 q 1124 77 1116 73 q 1158 177 1148 108 q 1171 467 1175 314 q 1114 518 1167 523 m 410 368 q 448 412 440 425 q 442 374 448 401 q 297 -59 367 157 q 278 -107 295 -88 q 223 -74 253 -126 q 183 25 189 -24 q 206 55 180 40 q 278 124 241 66 q 339 233 305 157 q 410 368 372 301 "},"弔":{"x_min":0,"x_max":0,"ha":2083},"奎":{"x_min":0,"x_max":0,"ha":2083},"羶":{"x_min":0,"x_max":0,"ha":2083},"鏚":{"x_min":0,"x_max":0,"ha":2083},"荓":{"x_min":0,"x_max":0,"ha":2083},"蛟":{"x_min":0,"x_max":0,"ha":2083},"薯":{"x_min":0,"x_max":0,"ha":2083},"幾":{"x_min":0,"x_max":0,"ha":2083},"鞃":{"x_min":0,"x_max":0,"ha":2083},"帳":{"x_min":0,"x_max":0,"ha":2083},"霞":{"x_min":0,"x_max":0,"ha":2083},"稐":{"x_min":0,"x_max":0,"ha":2083},"歁":{"x_min":0,"x_max":0,"ha":2083},"珔":{"x_min":0,"x_max":0,"ha":2083},"楙":{"x_min":0,"x_max":0,"ha":2083},"垛":{"x_min":0,"x_max":0,"ha":2083},"絩":{"x_min":0,"x_max":0,"ha":2083},"膨":{"x_min":0,"x_max":0,"ha":2083},"犅":{"x_min":0,"x_max":0,"ha":2083},"痒":{"x_min":0,"x_max":0,"ha":2083},"杚":{"x_min":0,"x_max":0,"ha":2083},"鶊":{"x_min":0,"x_max":0,"ha":2083},"碃":{"x_min":0,"x_max":0,"ha":2083},"恓":{"x_min":0,"x_max":0,"ha":2083},"薱":{"x_min":0,"x_max":0,"ha":2083},"志":{"x_min":0,"x_max":0,"ha":2083},"譁":{"x_min":0,"x_max":0,"ha":2083},"鎨":{"x_min":0,"x_max":0,"ha":2083},"桫":{"x_min":0,"x_max":0,"ha":2083},"枆":{"x_min":0,"x_max":0,"ha":2083},"暨":{"x_min":0,"x_max":0,"ha":2083},"呯":{"x_min":0,"x_max":0,"ha":2083},"浘":{"x_min":0,"x_max":0,"ha":2083},"塾":{"x_min":0,"x_max":0,"ha":2083},"刀":{"x_min":0,"x_max":0,"ha":2083},"驉":{"x_min":0,"x_max":0,"ha":2083},"幏":{"x_min":0,"x_max":0,"ha":2083},"湟":{"x_min":0,"x_max":0,"ha":2083},"樄":{"x_min":0,"x_max":0,"ha":2083},"朓":{"x_min":0,"x_max":0,"ha":2083},"鑯":{"x_min":0,"x_max":0,"ha":2083},"娃":{"x_min":79.96875,"x_max":2013.03125,"ha":2083,"o":"m 1719 820 q 1748 807 1730 823 q 1751 766 1775 788 q 1708 712 1732 748 q 1684 680 1698 695 q 1688 641 1665 659 q 1738 602 1714 622 q 1797 542 1779 572 q 1793 516 1805 533 q 1755 522 1775 500 q 1668 613 1725 561 q 1623 615 1642 634 q 1464 509 1548 545 q 1436 500 1437 497 q 1459 522 1433 503 q 1599 634 1529 572 q 1592 675 1618 655 q 1508 740 1550 709 q 1486 763 1478 762 q 1505 759 1493 763 q 1619 690 1558 732 q 1662 702 1639 676 q 1711 798 1703 748 q 1719 820 1713 812 m 1987 486 q 2012 493 2015 507 q 1936 391 1993 458 q 1878 381 1905 343 q 1883 405 1870 394 l 1987 486 m 1474 389 q 1494 390 1482 394 l 1605 287 q 1652 288 1626 267 q 1749 387 1722 344 q 1776 386 1765 397 q 1775 344 1813 363 q 1666 261 1730 316 q 1643 223 1643 242 q 1646 44 1647 93 q 1635 14 1645 25 q 1616 18 1624 9 q 1604 59 1600 36 q 1612 218 1614 149 q 1588 264 1612 238 q 1483 345 1542 313 q 1455 366 1466 352 q 1474 389 1453 375 m 817 979 q 934 949 865 991 q 975 877 998 916 q 944 724 948 809 q 987 706 942 694 q 1099 717 1037 731 q 1131 698 1123 713 q 1097 664 1137 676 q 971 641 1055 648 q 938 594 941 637 l 938 503 q 979 477 938 470 l 1074 495 q 1230 484 1175 524 q 1245 451 1250 473 q 1182 435 1230 427 q 745 387 999 431 q 646 390 687 373 q 613 424 600 415 q 679 431 634 431 q 840 454 748 435 q 877 497 877 459 l 874 595 q 830 621 873 627 q 695 641 767 599 q 699 653 694 649 l 842 676 q 869 727 870 683 q 834 931 865 868 q 817 979 811 975 m 364 961 q 397 968 375 981 q 478 878 476 931 q 463 824 474 851 q 368 528 419 676 q 397 501 358 493 l 472 524 q 499 606 523 522 q 503 651 481 637 q 564 623 514 655 q 610 566 603 598 l 588 520 q 520 303 568 466 q 480 195 503 249 q 497 119 458 153 q 519 6 557 63 q 447 42 485 -10 q 382 47 415 85 q 124 -101 259 -84 q 116 -67 80 -97 q 344 103 244 -4 q 332 176 370 135 l 273 231 q 240 311 233 271 l 257 368 q 223 381 269 400 q 96 410 162 349 q 82 442 73 427 q 128 453 88 447 q 257 469 191 458 q 303 516 291 476 q 372 882 356 702 q 367 938 372 923 q 364 961 360 956 m 455 462 l 424 453 l 343 425 q 326 402 333 420 q 287 273 292 314 q 368 214 309 244 q 421 233 402 192 q 486 434 462 314 q 455 462 492 472 m 878 377 q 977 322 933 385 q 968 272 981 309 q 1005 245 963 234 q 1121 245 1049 264 q 1094 188 1148 195 l 991 172 q 954 126 958 166 l 952 27 q 992 -2 952 -5 l 1196 17 q 1299 -24 1250 16 q 1311 -52 1312 -46 q 1265 -67 1306 -62 q 649 -105 1033 -46 q 595 -96 622 -107 q 594 -51 546 -59 l 855 -18 q 893 13 893 -14 l 891 120 q 849 149 889 153 q 702 158 773 130 q 691 176 689 168 q 739 189 698 181 q 853 211 796 198 q 884 260 887 219 l 877 330 q 878 377 872 371 "},"鷈":{"x_min":0,"x_max":0,"ha":2083},"郔":{"x_min":0,"x_max":0,"ha":2083},"恉":{"x_min":0,"x_max":0,"ha":2083},"景":{"x_min":0,"x_max":0,"ha":2083},"藜":{"x_min":0,"x_max":0,"ha":2083},"咽":{"x_min":0,"x_max":0,"ha":2083},"牛":{"x_min":0,"x_max":0,"ha":2083},"郁":{"x_min":0,"x_max":0,"ha":2083},"簎":{"x_min":0,"x_max":0,"ha":2083},"試":{"x_min":0,"x_max":0,"ha":2083},"懿":{"x_min":0,"x_max":0,"ha":2083},"灶":{"x_min":0,"x_max":0,"ha":2083},"冱":{"x_min":0,"x_max":0,"ha":2083},"琩":{"x_min":0,"x_max":0,"ha":2083},"煁":{"x_min":0,"x_max":0,"ha":2083},"b":{"x_min":44.765625,"x_max":715.84375,"ha":772,"o":"m 193 887 q 236 868 236 910 l 236 545 q 275 553 236 514 q 507 611 374 632 q 690 454 638 584 q 712 234 725 360 q 599 21 695 109 q 491 -29 547 -20 q 261 9 373 -58 q 207 -1 227 33 q 170 -36 185 -36 q 153 4 153 -36 q 150 777 154 390 q 89 811 132 808 q 44 832 44 816 q 85 858 44 854 q 193 887 147 865 m 526 537 q 297 504 416 599 q 240 397 230 443 l 240 164 q 347 25 233 67 q 571 85 466 -12 q 618 193 610 136 q 604 435 644 325 q 526 537 584 497 "},"謖":{"x_min":0,"x_max":0,"ha":2083},"噬":{"x_min":0,"x_max":0,"ha":2083},"咐":{"x_min":0,"x_max":0,"ha":2083},"嘕":{"x_min":0,"x_max":0,"ha":2083},"鳧":{"x_min":0,"x_max":0,"ha":2083},"睎":{"x_min":0,"x_max":0,"ha":2083},"烴":{"x_min":0,"x_max":0,"ha":2083},"郯":{"x_min":0,"x_max":0,"ha":2083},"垔":{"x_min":0,"x_max":0,"ha":2083},"勣":{"x_min":0,"x_max":0,"ha":2083},"漉":{"x_min":0,"x_max":0,"ha":2083},"騤":{"x_min":0,"x_max":0,"ha":2083},"專":{"x_min":0,"x_max":0,"ha":2083},"高":{"x_min":0,"x_max":0,"ha":2083},"証":{"x_min":0,"x_max":0,"ha":2083},"渮":{"x_min":0,"x_max":0,"ha":2083},"栥":{"x_min":0,"x_max":0,"ha":2083},"呧":{"x_min":0,"x_max":0,"ha":2083},"跋":{"x_min":0,"x_max":0,"ha":2083},"嬦":{"x_min":0,"x_max":0,"ha":2083},"享":{"x_min":0,"x_max":0,"ha":2083},"轏":{"x_min":0,"x_max":0,"ha":2083},"會":{"x_min":153.296875,"x_max":2037.578125,"ha":2083,"o":"m 1591 948 q 1595 969 1589 965 q 1631 952 1607 973 q 1633 926 1646 945 q 1561 824 1599 873 q 1521 770 1531 788 q 1534 747 1523 759 q 1623 640 1611 675 q 1595 629 1618 617 q 1580 648 1588 634 q 1508 743 1554 697 q 1508 794 1491 769 q 1588 916 1562 869 q 1591 948 1593 929 m 1746 956 q 1789 935 1770 963 q 1774 903 1791 929 l 1688 797 q 1673 774 1673 777 q 1684 758 1675 766 q 1770 649 1757 691 q 1757 636 1772 641 q 1733 648 1745 630 q 1658 751 1706 701 q 1660 801 1630 774 q 1736 911 1699 855 q 1744 941 1746 933 q 1746 956 1741 953 m 1740 558 q 1768 554 1751 568 q 1786 530 1783 541 q 1759 503 1784 523 l 1722 466 q 1723 434 1702 447 q 1795 391 1763 413 q 1818 366 1817 371 q 1779 352 1810 328 q 1727 394 1760 371 l 1702 413 q 1657 415 1677 429 q 1481 333 1557 347 q 1504 351 1478 336 q 1631 429 1574 387 q 1627 459 1653 444 l 1550 501 q 1524 522 1519 519 q 1554 515 1535 522 l 1652 473 q 1698 484 1675 462 q 1733 533 1719 504 q 1740 558 1737 545 m 1916 325 q 1931 325 1924 329 q 2020 236 1977 283 q 2037 207 2039 210 q 2008 221 2034 207 q 1919 275 1963 245 q 1916 325 1873 292 m 1673 211 q 1706 168 1722 208 q 1706 116 1695 153 q 1742 14 1717 59 q 1856 -90 1790 -63 q 1883 -109 1881 -96 q 1855 -119 1881 -113 q 1809 -120 1825 -124 q 1760 -78 1784 -111 q 1675 141 1690 13 q 1661 162 1665 161 q 1547 108 1619 147 q 1483 131 1501 82 q 1512 139 1486 134 q 1641 191 1580 153 q 1673 211 1661 208 m 628 1029 q 663 1032 634 1044 q 766 942 728 1003 q 746 919 766 937 q 770 873 727 901 q 976 755 881 804 q 1302 655 1133 675 q 1318 626 1359 644 q 1060 606 1127 587 q 740 851 952 664 q 668 839 708 880 q 458 656 573 724 q 187 524 333 575 q 170 545 128 518 q 496 762 355 640 q 630 980 641 885 q 628 1029 623 1013 m 703 716 q 793 731 748 735 q 836 713 830 721 q 788 675 839 703 l 625 644 q 543 641 579 634 q 491 670 491 663 q 538 684 497 678 q 703 716 642 698 m 935 629 q 1048 581 972 641 q 1055 509 1087 542 q 995 401 1019 461 q 937 292 968 336 q 887 287 922 257 q 826 301 870 306 q 492 261 659 283 q 459 252 465 264 q 425 250 450 227 q 397 318 405 282 q 324 508 363 432 q 301 556 295 549 q 362 552 325 560 q 416 541 400 538 q 935 629 783 583 m 904 554 q 721 537 813 547 q 699 520 689 533 q 706 480 721 500 q 697 371 698 453 q 737 343 697 339 q 854 358 796 352 q 910 397 887 356 q 939 538 954 486 q 904 554 922 557 m 580 522 l 459 507 q 436 462 427 503 q 455 333 443 400 q 501 307 461 301 l 598 321 q 630 360 630 328 q 625 493 630 427 q 580 522 621 526 m 798 476 q 859 508 826 522 q 903 467 887 491 q 866 434 906 455 q 758 383 812 410 q 735 375 743 375 q 767 431 721 378 l 798 476 m 459 465 q 585 427 530 476 q 598 394 599 410 q 552 364 594 344 q 493 412 524 375 q 459 465 454 463 m 786 236 q 862 231 827 253 q 939 172 927 204 q 910 71 914 122 q 899 -151 915 -69 q 872 -207 889 -179 q 834 -233 842 -238 q 812 -195 824 -222 l 789 -150 q 729 -120 770 -116 q 577 -135 653 -126 q 537 -154 539 -139 q 509 -181 531 -179 q 473 -143 491 -179 q 473 -62 454 -113 q 477 -17 477 -50 l 480 36 q 447 192 493 112 q 454 204 447 199 q 516 193 485 210 q 571 188 530 183 q 786 236 689 204 m 750 169 q 573 146 661 160 q 538 101 538 142 q 581 63 539 59 q 718 92 649 70 q 759 89 739 93 q 792 73 781 89 q 758 42 790 47 q 649 25 731 31 l 575 17 q 542 -10 542 21 l 542 -50 q 585 -84 543 -90 q 682 -69 632 -74 q 796 -62 750 -54 q 819 -39 815 -70 q 821 109 823 35 q 750 169 812 180 "},"頸":{"x_min":0,"x_max":0,"ha":2083},"蘪":{"x_min":0,"x_max":0,"ha":2083},"蘣":{"x_min":0,"x_max":0,"ha":2083},"諓":{"x_min":0,"x_max":0,"ha":2083},"潢":{"x_min":0,"x_max":0,"ha":2083},"緲":{"x_min":0,"x_max":0,"ha":2083},"爛":{"x_min":0,"x_max":0,"ha":2083},"麛":{"x_min":0,"x_max":0,"ha":2083},"謍":{"x_min":0,"x_max":0,"ha":2083},"奈":{"x_min":0,"x_max":0,"ha":2083},"跙":{"x_min":0,"x_max":0,"ha":2083},"峙":{"x_min":0,"x_max":0,"ha":2083},"坭":{"x_min":0,"x_max":0,"ha":2083},"罅":{"x_min":0,"x_max":0,"ha":2083},"嫦":{"x_min":0,"x_max":0,"ha":2083},"趬":{"x_min":0,"x_max":0,"ha":2083},"襣":{"x_min":0,"x_max":0,"ha":2083},"篩":{"x_min":0,"x_max":0,"ha":2083},"磈":{"x_min":0,"x_max":0,"ha":2083},"仨":{"x_min":0,"x_max":0,"ha":2083},"課":{"x_min":0,"x_max":0,"ha":2083},"痵":{"x_min":0,"x_max":0,"ha":2083},"莕":{"x_min":0,"x_max":0,"ha":2083},"註":{"x_min":0,"x_max":0,"ha":2083},"閈":{"x_min":0,"x_max":0,"ha":2083},"長":{"x_min":0,"x_max":0,"ha":2083},"鞣":{"x_min":0,"x_max":0,"ha":2083},"磞":{"x_min":0,"x_max":0,"ha":2083},"駷":{"x_min":0,"x_max":0,"ha":2083},"襪":{"x_min":0,"x_max":0,"ha":2083},"塗":{"x_min":0,"x_max":0,"ha":2083},"詻":{"x_min":0,"x_max":0,"ha":2083},"嘂":{"x_min":0,"x_max":0,"ha":2083},"珍":{"x_min":0,"x_max":0,"ha":2083},"擗":{"x_min":0,"x_max":0,"ha":2083},"勀":{"x_min":0,"x_max":0,"ha":2083},"狗":{"x_min":0,"x_max":0,"ha":2083},"墫":{"x_min":0,"x_max":0,"ha":2083},"炂":{"x_min":0,"x_max":0,"ha":2083},"懱":{"x_min":0,"x_max":0,"ha":2083},"擎":{"x_min":0,"x_max":0,"ha":2083},"驗":{"x_min":0,"x_max":0,"ha":2083},"耒":{"x_min":0,"x_max":0,"ha":2083},"枵":{"x_min":0,"x_max":0,"ha":2083},"肉":{"x_min":0,"x_max":0,"ha":2083},"鑽":{"x_min":0,"x_max":0,"ha":2083},"烚":{"x_min":0,"x_max":0,"ha":2083},"灨":{"x_min":0,"x_max":0,"ha":2083},"吤":{"x_min":0,"x_max":0,"ha":2083},"麇":{"x_min":0,"x_max":0,"ha":2083},"臡":{"x_min":0,"x_max":0,"ha":2083},"痤":{"x_min":0,"x_max":0,"ha":2083},"巂":{"x_min":0,"x_max":0,"ha":2083},"償":{"x_min":0,"x_max":0,"ha":2083},"墀":{"x_min":0,"x_max":0,"ha":2083},"隗":{"x_min":0,"x_max":0,"ha":2083},"菩":{"x_min":0,"x_max":0,"ha":2083},"榯":{"x_min":0,"x_max":0,"ha":2083},"鬊":{"x_min":0,"x_max":0,"ha":2083},"黭":{"x_min":0,"x_max":0,"ha":2083},"瑵":{"x_min":0,"x_max":0,"ha":2083},"濋":{"x_min":0,"x_max":0,"ha":2083},"駰":{"x_min":0,"x_max":0,"ha":2083},"頨":{"x_min":0,"x_max":0,"ha":2083},"膂":{"x_min":0,"x_max":0,"ha":2083},"銚":{"x_min":0,"x_max":0,"ha":2083},"溟":{"x_min":0,"x_max":0,"ha":2083},"邿":{"x_min":0,"x_max":0,"ha":2083},"鴀":{"x_min":0,"x_max":0,"ha":2083},"鄃":{"x_min":0,"x_max":0,"ha":2083},"荿":{"x_min":0,"x_max":0,"ha":2083},"膟":{"x_min":0,"x_max":0,"ha":2083},"圈":{"x_min":212.875,"x_max":2013.15625,"ha":2083,"o":"m 1685 953 q 1698 969 1680 976 q 1738 946 1717 964 q 1725 915 1753 926 q 1623 849 1679 888 l 1559 812 q 1539 792 1536 794 q 1551 785 1543 788 q 1730 676 1653 739 q 1745 626 1768 651 q 1721 634 1733 622 q 1516 777 1623 737 q 1489 790 1489 786 q 1504 811 1490 804 q 1658 908 1573 840 q 1685 953 1698 933 m 1718 546 q 1760 538 1733 553 q 1768 514 1772 530 q 1768 462 1763 495 q 1779 360 1778 394 q 1778 333 1780 347 q 1744 336 1767 310 q 1711 347 1738 348 q 1523 330 1607 344 q 1468 359 1482 316 q 1471 385 1467 377 q 1485 514 1496 450 q 1482 542 1478 539 q 1521 522 1508 549 q 1519 491 1524 509 q 1504 389 1513 440 q 1527 363 1498 364 q 1721 375 1607 371 q 1744 405 1741 379 q 1715 541 1742 496 q 1718 546 1715 543 m 1892 325 q 1907 325 1900 329 q 1996 236 1953 283 q 2012 207 2015 210 q 1984 221 2010 207 q 1894 275 1939 245 q 1892 325 1848 292 m 1723 218 q 1761 207 1738 226 q 1778 172 1782 187 q 1763 162 1775 169 q 1713 93 1738 145 q 1721 70 1702 70 q 1770 77 1748 71 q 1818 48 1795 81 q 1801 9 1825 35 q 1772 -42 1784 -16 q 1680 -132 1744 -85 q 1669 -123 1676 -134 q 1694 -90 1668 -118 q 1763 14 1741 -42 q 1768 37 1770 35 q 1753 48 1764 47 l 1681 48 q 1572 40 1628 47 q 1496 14 1524 35 q 1463 40 1460 -5 q 1491 69 1463 43 q 1528 136 1523 93 q 1505 179 1529 157 q 1493 189 1498 179 q 1519 198 1493 192 q 1700 208 1618 199 q 1723 218 1710 208 m 1694 185 q 1563 173 1616 185 q 1548 157 1543 166 q 1535 75 1570 128 q 1542 58 1516 54 q 1641 69 1605 67 q 1679 94 1661 69 q 1715 158 1698 123 q 1721 181 1723 179 q 1694 185 1711 188 m 979 941 q 1131 897 1041 965 q 1154 811 1171 859 q 1133 653 1127 743 q 1163 100 1146 377 q 1131 -116 1174 0 q 1066 -210 1112 -181 q 1034 -189 1047 -212 q 995 -92 1010 -141 q 941 -65 986 -62 l 347 -113 q 311 -134 314 -118 q 290 -161 303 -158 q 252 -120 284 -161 q 233 -66 237 -93 q 259 622 264 109 q 236 817 254 750 q 212 866 211 858 q 260 872 219 873 l 273 869 q 352 854 311 849 l 789 912 q 979 941 884 923 m 964 876 q 358 813 706 858 q 325 775 325 808 l 325 -35 q 366 -65 325 -67 l 895 -10 q 1032 -21 992 8 q 1060 9 1044 -32 q 1068 52 1067 31 l 1074 103 l 1072 261 q 1029 288 1071 295 q 954 279 998 283 q 893 295 920 279 q 763 429 831 352 q 693 451 736 459 l 630 440 q 568 400 596 434 q 556 352 535 363 q 603 343 576 340 q 712 362 660 347 q 832 320 777 398 q 816 286 832 313 q 798 231 802 259 q 744 153 782 173 q 702 189 722 153 q 660 245 659 241 q 695 240 664 250 q 754 291 745 214 q 713 320 758 330 q 634 305 674 314 q 592 260 598 298 q 590 184 588 222 q 604 124 583 151 q 824 118 682 73 q 869 193 862 139 q 900 207 880 253 q 931 123 910 173 q 904 80 934 104 q 655 32 790 10 q 541 119 565 46 q 535 210 533 149 q 528 311 530 260 q 493 325 523 352 q 394 263 454 291 q 368 278 333 249 q 508 390 424 305 q 491 413 537 424 q 425 415 444 404 q 383 443 375 436 q 436 454 398 454 q 566 473 509 458 l 585 512 q 565 542 598 546 q 461 562 515 526 q 466 576 461 569 l 580 592 q 621 638 615 599 q 590 804 640 727 q 632 811 594 821 l 659 800 q 699 736 725 779 q 683 645 694 693 q 717 623 676 613 q 824 637 770 649 q 851 615 843 637 q 807 590 842 592 q 691 565 750 575 q 645 522 659 556 q 668 493 627 486 q 872 538 813 530 q 957 505 922 543 q 922 472 964 465 l 797 466 q 805 436 764 462 q 1037 329 910 362 q 1070 362 1071 320 q 1053 712 1064 537 q 1045 820 1052 785 q 964 876 1032 884 m 790 754 q 859 786 807 807 q 891 760 880 777 q 851 725 892 754 q 770 676 824 703 q 750 699 710 657 q 790 754 773 727 m 478 693 q 500 731 453 732 q 568 674 556 727 q 552 644 571 656 q 478 693 523 633 "},"聞":{"x_min":0,"x_max":0,"ha":2083},"伢":{"x_min":0,"x_max":0,"ha":2083},"汀":{"x_min":0,"x_max":0,"ha":2083},"寔":{"x_min":0,"x_max":0,"ha":2083},"欷":{"x_min":0,"x_max":0,"ha":2083},"蓒":{"x_min":0,"x_max":0,"ha":2083},"臄":{"x_min":0,"x_max":0,"ha":2083},"峋":{"x_min":0,"x_max":0,"ha":2083},"柰":{"x_min":0,"x_max":0,"ha":2083},"自":{"x_min":0,"x_max":0,"ha":2083},"桅":{"x_min":0,"x_max":0,"ha":2083},"初":{"x_min":0,"x_max":0,"ha":2083},"蹄":{"x_min":0,"x_max":0,"ha":2083},"軔":{"x_min":0,"x_max":0,"ha":2083},"脊":{"x_min":0,"x_max":0,"ha":2083},"罨":{"x_min":0,"x_max":0,"ha":2083},"憭":{"x_min":0,"x_max":0,"ha":2083},"緪":{"x_min":0,"x_max":0,"ha":2083},"娑":{"x_min":0,"x_max":0,"ha":2083},"庲":{"x_min":0,"x_max":0,"ha":2083},"嶝":{"x_min":0,"x_max":0,"ha":2083},"梣":{"x_min":0,"x_max":0,"ha":2083},"蘀":{"x_min":0,"x_max":0,"ha":2083},"沰":{"x_min":0,"x_max":0,"ha":2083},"楻":{"x_min":0,"x_max":0,"ha":2083},"侹":{"x_min":0,"x_max":0,"ha":2083},"誓":{"x_min":0,"x_max":0,"ha":2083},"莮":{"x_min":0,"x_max":0,"ha":2083},"紆":{"x_min":0,"x_max":0,"ha":2083},"鐬":{"x_min":0,"x_max":0,"ha":2083},"箏":{"x_min":0,"x_max":0,"ha":2083},"彳":{"x_min":0,"x_max":0,"ha":2083},"駩":{"x_min":0,"x_max":0,"ha":2083},"瑾":{"x_min":0,"x_max":0,"ha":2083},"麭":{"x_min":0,"x_max":0,"ha":2083},"臗":{"x_min":0,"x_max":0,"ha":2083},"儱":{"x_min":0,"x_max":0,"ha":2083},"絢":{"x_min":0,"x_max":0,"ha":2083},"蝆":{"x_min":0,"x_max":0,"ha":2083},"暺":{"x_min":0,"x_max":0,"ha":2083},"褓":{"x_min":0,"x_max":0,"ha":2083},"瞈":{"x_min":0,"x_max":0,"ha":2083},"椹":{"x_min":0,"x_max":0,"ha":2083},"嫘":{"x_min":0,"x_max":0,"ha":2083},"湦":{"x_min":0,"x_max":0,"ha":2083},"鷭":{"x_min":0,"x_max":0,"ha":2083},"眥":{"x_min":0,"x_max":0,"ha":2083},"髑":{"x_min":0,"x_max":0,"ha":2083},"杺":{"x_min":0,"x_max":0,"ha":2083},"梇":{"x_min":0,"x_max":0,"ha":2083},"紻":{"x_min":0,"x_max":0,"ha":2083},"惷":{"x_min":0,"x_max":0,"ha":2083},"椔":{"x_min":0,"x_max":0,"ha":2083},"宓":{"x_min":0,"x_max":0,"ha":2083},"甦":{"x_min":0,"x_max":0,"ha":2083},"鷟":{"x_min":0,"x_max":0,"ha":2083},"娊":{"x_min":0,"x_max":0,"ha":2083},"濝":{"x_min":0,"x_max":0,"ha":2083},"畝":{"x_min":0,"x_max":0,"ha":2083},"獀":{"x_min":0,"x_max":0,"ha":2083},"晝":{"x_min":0,"x_max":0,"ha":2083},"网":{"x_min":0,"x_max":0,"ha":2083},"慓":{"x_min":0,"x_max":0,"ha":2083},"妢":{"x_min":0,"x_max":0,"ha":2083},"偺":{"x_min":0,"x_max":0,"ha":2083},"淀":{"x_min":0,"x_max":0,"ha":2083},"豫":{"x_min":0,"x_max":0,"ha":2083},"滯":{"x_min":0,"x_max":0,"ha":2083},"桲":{"x_min":0,"x_max":0,"ha":2083},"臠":{"x_min":0,"x_max":0,"ha":2083},"峆":{"x_min":0,"x_max":0,"ha":2083},"砡":{"x_min":0,"x_max":0,"ha":2083},"澮":{"x_min":0,"x_max":0,"ha":2083},"悍":{"x_min":0,"x_max":0,"ha":2083},"蘉":{"x_min":0,"x_max":0,"ha":2083},"陋":{"x_min":0,"x_max":0,"ha":2083},"煒":{"x_min":0,"x_max":0,"ha":2083},"玵":{"x_min":0,"x_max":0,"ha":2083},"罟":{"x_min":0,"x_max":0,"ha":2083},"國":{"x_min":0,"x_max":0,"ha":2083},"艟":{"x_min":0,"x_max":0,"ha":2083},"咩":{"x_min":0,"x_max":0,"ha":2083},"砌":{"x_min":0,"x_max":0,"ha":2083},"遮":{"x_min":0,"x_max":0,"ha":2083},"艅":{"x_min":0,"x_max":0,"ha":2083},"濲":{"x_min":0,"x_max":0,"ha":2083},"慊":{"x_min":0,"x_max":0,"ha":2083},"磹":{"x_min":0,"x_max":0,"ha":2083},"瘤":{"x_min":0,"x_max":0,"ha":2083},"率":{"x_min":0,"x_max":0,"ha":2083},"鷃":{"x_min":0,"x_max":0,"ha":2083},"樽":{"x_min":0,"x_max":0,"ha":2083},"奴":{"x_min":0,"x_max":0,"ha":2083},"鸚":{"x_min":0,"x_max":0,"ha":2083},"譥":{"x_min":0,"x_max":0,"ha":2083},"拫":{"x_min":0,"x_max":0,"ha":2083},"講":{"x_min":0,"x_max":0,"ha":2083},"欈":{"x_min":0,"x_max":0,"ha":2083},"憴":{"x_min":0,"x_max":0,"ha":2083},"琝":{"x_min":0,"x_max":0,"ha":2083},"瀖":{"x_min":0,"x_max":0,"ha":2083},"妾":{"x_min":0,"x_max":0,"ha":2083},"濟":{"x_min":0,"x_max":0,"ha":2083},"后":{"x_min":0,"x_max":0,"ha":2083},"厴":{"x_min":0,"x_max":0,"ha":2083},"楣":{"x_min":0,"x_max":0,"ha":2083},"膌":{"x_min":0,"x_max":0,"ha":2083},"鮽":{"x_min":0,"x_max":0,"ha":2083},"匽":{"x_min":0,"x_max":0,"ha":2083},"壟":{"x_min":0,"x_max":0,"ha":2083},"鯷":{"x_min":0,"x_max":0,"ha":2083},"緳":{"x_min":0,"x_max":0,"ha":2083},"婂":{"x_min":0,"x_max":0,"ha":2083},"蔠":{"x_min":0,"x_max":0,"ha":2083},"犎":{"x_min":0,"x_max":0,"ha":2083},"鮨":{"x_min":0,"x_max":0,"ha":2083},"鄏":{"x_min":0,"x_max":0,"ha":2083},"脁":{"x_min":0,"x_max":0,"ha":2083},"納":{"x_min":0,"x_max":0,"ha":2083},"滏":{"x_min":0,"x_max":0,"ha":2083},"轠":{"x_min":0,"x_max":0,"ha":2083},"跦":{"x_min":0,"x_max":0,"ha":2083},"鋙":{"x_min":0,"x_max":0,"ha":2083},"邆":{"x_min":0,"x_max":0,"ha":2083},"翱":{"x_min":0,"x_max":0,"ha":2083},"匴":{"x_min":0,"x_max":0,"ha":2083},"頭":{"x_min":0,"x_max":0,"ha":2083},"停":{"x_min":0,"x_max":0,"ha":2083},"丁":{"x_min":160.515625,"x_max":1830.921875,"ha":2083,"o":"m 1572 939 q 1593 969 1584 971 q 1612 953 1603 965 q 1601 915 1618 941 q 1574 884 1588 896 q 1561 857 1558 858 q 1589 859 1563 855 q 1759 876 1646 866 q 1790 827 1802 881 q 1737 674 1776 744 q 1683 619 1713 629 q 1664 637 1669 618 q 1661 649 1664 642 q 1650 678 1649 672 q 1661 675 1652 680 q 1710 687 1688 659 q 1751 790 1741 732 q 1749 843 1760 826 q 1727 851 1738 854 l 1671 847 q 1638 820 1649 846 q 1489 646 1592 720 q 1464 638 1464 633 q 1494 671 1464 644 q 1599 817 1565 737 q 1582 836 1607 840 q 1506 817 1548 831 q 1491 817 1501 813 q 1506 851 1478 834 q 1572 939 1559 900 m 1756 453 q 1808 446 1770 454 q 1829 432 1821 444 q 1824 419 1833 425 q 1797 415 1814 412 q 1738 419 1768 417 l 1668 419 q 1513 394 1592 416 q 1449 427 1477 390 q 1452 432 1449 429 q 1482 431 1459 435 l 1506 428 l 1713 443 q 1756 453 1741 444 m 1633 207 q 1660 206 1634 211 q 1690 164 1691 191 q 1542 -40 1633 88 q 1529 -65 1527 -61 q 1554 -67 1534 -67 q 1755 -44 1646 -63 q 1814 -67 1791 -37 q 1802 -82 1818 -75 q 1779 -81 1793 -84 q 1513 -105 1657 -69 q 1481 -109 1487 -113 q 1470 -88 1474 -103 q 1494 -52 1470 -71 q 1633 150 1563 13 q 1635 177 1635 158 l 1634 191 q 1633 207 1631 203 m 1070 861 q 1234 800 1151 877 q 1231 764 1246 774 q 1147 751 1200 747 q 731 747 944 771 q 736 714 701 743 q 762 642 767 682 q 777 126 755 417 q 767 -40 785 16 q 721 -123 750 -94 q 634 -104 670 -176 q 492 78 573 -14 q 535 67 495 85 q 611 33 573 47 q 655 28 644 21 q 680 99 675 52 q 680 463 697 241 q 638 699 680 587 q 585 728 626 733 q 271 670 412 708 q 199 689 234 663 q 161 731 154 721 q 200 741 173 737 q 634 804 341 759 q 1070 861 850 835 "},"饇":{"x_min":0,"x_max":0,"ha":2083},"壾":{"x_min":0,"x_max":0,"ha":2083},"軂":{"x_min":0,"x_max":0,"ha":2083},"邁":{"x_min":0,"x_max":0,"ha":2083},"胰":{"x_min":0,"x_max":0,"ha":2083},"鉾":{"x_min":0,"x_max":0,"ha":2083},"峔":{"x_min":0,"x_max":0,"ha":2083},"繠":{"x_min":0,"x_max":0,"ha":2083},"挭":{"x_min":0,"x_max":0,"ha":2083},"衹":{"x_min":0,"x_max":0,"ha":2083},"鍇":{"x_min":0,"x_max":0,"ha":2083},"粗":{"x_min":78.15625,"x_max":1833.921875,"ha":2083,"o":"m 1604 863 q 1630 866 1605 869 q 1664 846 1647 868 q 1656 816 1666 842 q 1646 767 1650 800 l 1641 741 q 1662 722 1638 721 q 1784 737 1730 728 q 1833 710 1824 740 q 1824 698 1835 701 q 1649 695 1736 709 q 1620 667 1627 693 l 1608 629 q 1605 604 1603 609 q 1627 599 1612 598 l 1677 609 q 1703 615 1695 610 q 1751 602 1726 632 q 1740 573 1752 598 q 1679 472 1711 516 q 1628 434 1657 444 q 1619 436 1620 434 q 1639 463 1618 439 q 1703 573 1687 522 q 1696 588 1702 583 q 1666 588 1690 591 q 1590 566 1628 584 q 1567 562 1578 556 q 1570 603 1550 581 q 1593 671 1586 627 q 1576 687 1597 690 q 1474 668 1524 680 q 1454 676 1467 670 q 1432 705 1426 699 q 1477 703 1451 709 q 1582 716 1528 710 q 1605 740 1601 717 q 1611 845 1619 805 q 1604 863 1604 859 m 1717 352 q 1727 379 1723 378 q 1761 356 1744 378 q 1752 318 1776 340 q 1714 267 1738 302 l 1695 241 q 1698 196 1672 215 q 1795 111 1753 157 q 1793 71 1813 90 q 1746 97 1772 58 q 1676 169 1719 130 q 1626 168 1650 191 q 1471 63 1542 89 q 1451 58 1455 58 q 1468 77 1443 59 q 1607 191 1534 120 q 1601 233 1627 211 q 1524 292 1563 265 q 1500 321 1494 318 q 1528 311 1512 322 q 1628 248 1572 286 q 1669 259 1649 233 q 1717 352 1707 307 m 340 980 q 401 967 367 987 q 443 893 448 937 q 429 543 428 718 q 470 523 429 511 q 611 530 533 560 q 617 501 630 516 q 462 458 580 477 q 429 431 429 451 q 470 396 429 409 q 562 328 516 383 q 584 240 598 284 q 516 249 553 193 q 459 330 491 290 q 429 335 429 367 l 428 -33 q 408 -143 428 -109 q 354 -112 378 -176 q 358 33 328 -52 q 370 265 368 155 q 341 267 371 311 q 160 84 269 157 q 81 51 109 51 q 111 89 67 56 q 347 401 267 221 q 321 428 362 434 q 280 421 301 427 q 143 443 211 397 q 196 463 141 454 l 339 486 q 371 528 371 496 l 371 861 q 348 933 364 903 q 340 980 332 976 m 975 830 q 1118 794 1038 874 q 1118 727 1140 777 q 1105 618 1106 680 q 1101 113 1101 366 q 1142 85 1101 81 q 1196 90 1169 85 q 1331 31 1277 104 q 1311 9 1334 14 q 1235 9 1273 4 q 596 -36 918 21 q 515 9 550 -37 q 561 20 520 14 l 680 33 q 694 80 713 39 q 701 161 678 120 q 718 675 725 294 q 698 743 716 709 q 684 790 682 783 q 750 782 706 808 q 823 773 781 763 q 975 830 907 793 m 524 759 q 576 789 538 805 q 633 725 626 755 q 613 705 630 718 q 531 648 572 682 q 476 610 480 606 q 489 661 470 615 q 524 759 509 710 m 968 763 q 823 732 896 752 q 786 680 793 725 q 777 560 777 622 q 817 537 777 527 q 885 561 851 546 q 967 556 934 583 q 949 512 990 526 q 812 485 864 480 q 777 465 777 492 l 777 347 q 817 321 777 314 q 912 351 865 333 q 975 341 952 355 q 942 290 1005 299 q 811 275 851 267 q 777 250 777 282 l 777 112 l 773 78 q 809 50 769 46 q 995 70 900 62 q 1019 88 1028 74 q 1017 128 1015 101 q 1029 721 1036 344 q 968 763 1022 778 m 184 722 q 240 708 187 728 q 309 656 279 695 q 288 566 330 595 q 203 670 242 583 q 184 722 183 717 "},"慞":{"x_min":0,"x_max":0,"ha":2083},"厎":{"x_min":0,"x_max":0,"ha":2083},"旰":{"x_min":0,"x_max":0,"ha":2083},"慅":{"x_min":0,"x_max":0,"ha":2083},"甭":{"x_min":0,"x_max":0,"ha":2083},"淇":{"x_min":0,"x_max":0,"ha":2083},"柔":{"x_min":0,"x_max":0,"ha":2083},"惊":{"x_min":0,"x_max":0,"ha":2083},"鬱":{"x_min":0,"x_max":0,"ha":2083},"饐":{"x_min":0,"x_max":0,"ha":2083},"椊":{"x_min":0,"x_max":0,"ha":2083},"宸":{"x_min":0,"x_max":0,"ha":2083},"釕":{"x_min":0,"x_max":0,"ha":2083},"柍":{"x_min":0,"x_max":0,"ha":2083},"捎":{"x_min":0,"x_max":0,"ha":2083},"襶":{"x_min":0,"x_max":0,"ha":2083},"貀":{"x_min":0,"x_max":0,"ha":2083},"婼":{"x_min":65.265625,"x_max":2018.578125,"ha":2083,"o":"m 1704 956 q 1741 960 1727 961 q 1789 915 1772 956 q 1767 794 1768 865 q 1752 680 1765 729 q 1736 655 1738 655 q 1722 670 1722 657 q 1694 684 1721 680 q 1593 683 1665 691 l 1542 676 q 1519 661 1529 674 q 1497 667 1505 644 q 1494 722 1491 686 q 1474 908 1490 843 q 1471 937 1468 934 q 1500 938 1474 939 q 1525 937 1510 934 q 1704 956 1615 945 m 1695 929 q 1542 916 1619 925 q 1515 888 1509 916 l 1520 720 q 1547 702 1521 699 q 1706 710 1649 718 q 1729 731 1726 708 q 1740 897 1741 808 q 1733 926 1742 916 q 1695 929 1725 934 m 1565 853 q 1593 851 1567 857 q 1645 828 1618 842 q 1666 782 1681 804 q 1626 793 1647 766 q 1588 827 1605 815 q 1565 853 1563 849 m 1721 558 q 1749 554 1732 568 q 1767 530 1764 541 q 1740 503 1765 523 l 1703 466 q 1704 434 1683 447 q 1776 391 1744 413 q 1799 366 1798 371 q 1760 352 1791 328 q 1708 394 1741 371 l 1683 413 q 1638 415 1658 429 q 1462 333 1538 347 q 1485 351 1459 336 q 1612 429 1555 387 q 1608 459 1634 444 l 1531 501 q 1505 522 1500 519 q 1535 515 1516 522 l 1633 473 q 1679 484 1656 462 q 1714 533 1700 504 q 1721 558 1718 545 m 1897 325 q 1912 325 1905 329 q 2001 236 1958 283 q 2018 207 2020 210 q 1989 221 2015 207 q 1900 275 1944 245 q 1897 325 1854 292 m 1553 184 l 1768 204 q 1810 202 1797 206 q 1825 187 1824 198 q 1813 170 1822 174 q 1787 168 1801 166 q 1696 172 1751 173 q 1671 149 1671 169 l 1671 63 q 1656 29 1668 36 q 1627 33 1642 24 q 1548 36 1592 51 q 1521 6 1528 32 q 1559 -63 1509 -36 q 1768 -43 1669 -105 q 1797 -37 1794 -33 q 1786 -65 1805 -51 q 1543 -89 1679 -141 q 1479 0 1472 -55 q 1512 50 1483 27 q 1622 69 1559 80 q 1639 86 1633 66 l 1639 147 q 1614 166 1639 168 q 1512 150 1565 161 q 1453 170 1478 139 q 1485 180 1456 185 q 1553 184 1513 180 m 302 972 q 378 945 329 986 q 415 889 420 910 q 326 556 367 690 q 358 534 317 523 l 428 557 q 451 613 457 566 q 451 659 443 656 q 504 642 472 667 l 531 622 q 542 542 562 587 q 480 325 508 434 q 439 219 462 272 q 459 151 423 183 q 486 43 519 97 q 408 78 442 14 q 349 74 382 115 q 113 -67 237 -47 q 115 -29 62 -67 q 314 134 236 36 q 307 199 337 168 l 241 267 q 211 344 204 299 l 223 389 q 189 405 233 423 q 73 443 145 381 q 69 472 59 458 q 131 481 86 480 q 211 493 169 484 q 254 530 249 500 q 307 897 299 722 q 303 944 307 930 q 302 972 291 953 m 1009 963 q 1094 952 1034 984 q 1139 870 1170 927 l 1123 834 q 1137 804 1106 797 q 1246 802 1219 815 q 1291 741 1303 783 q 1261 727 1284 729 q 1117 722 1189 727 q 1068 680 1082 720 q 998 554 1041 585 q 992 599 986 553 l 1007 678 q 973 708 1014 710 l 842 689 q 813 641 809 682 q 812 553 826 579 q 770 594 788 538 l 759 638 q 709 663 751 672 q 610 655 651 648 q 583 661 596 656 q 538 693 533 686 q 590 706 550 708 l 703 718 q 721 767 736 724 l 702 821 q 680 869 678 863 q 741 866 702 878 q 804 766 805 849 q 847 741 807 733 q 991 770 919 758 q 1029 817 1024 777 q 1021 920 1036 885 q 1009 963 1007 954 m 830 577 q 941 550 869 602 q 930 473 973 523 q 957 450 912 440 l 1158 492 q 1314 474 1246 514 q 1308 415 1354 428 q 908 378 1064 408 q 854 332 876 373 l 798 237 q 783 191 770 195 q 811 180 798 188 q 863 176 823 170 q 1081 229 1002 198 q 1189 198 1127 246 q 1192 101 1269 145 q 1135 2 1163 66 q 1136 -29 1123 -24 q 1165 -67 1163 -40 q 1117 -84 1159 -77 l 916 -105 q 842 -109 873 -115 q 828 -127 832 -104 q 793 -145 824 -173 q 778 -84 777 -119 q 750 112 774 36 q 709 112 737 145 q 492 -62 590 -20 q 482 -29 444 -67 q 771 322 670 119 q 750 352 790 358 q 656 335 703 345 q 575 344 621 329 q 530 379 524 371 q 580 393 543 394 q 781 416 683 397 q 828 462 813 421 q 834 553 845 514 q 830 577 827 573 m 444 473 q 405 489 448 503 q 335 466 370 480 q 290 421 299 453 l 264 333 q 297 268 256 299 l 335 244 q 386 268 366 223 q 444 473 423 355 m 1022 162 q 914 141 981 160 l 863 128 q 830 94 830 127 l 832 -25 q 873 -52 832 -58 l 1013 -32 q 1059 12 1048 -27 q 1078 146 1076 96 q 1022 162 1066 176 "},"繃":{"x_min":0,"x_max":0,"ha":2083},"曶":{"x_min":0,"x_max":0,"ha":2083},"兌":{"x_min":0,"x_max":0,"ha":2083},"煤":{"x_min":0,"x_max":0,"ha":2083},"鬢":{"x_min":0,"x_max":0,"ha":2083},"柧":{"x_min":0,"x_max":0,"ha":2083},"犴":{"x_min":0,"x_max":0,"ha":2083},"曬":{"x_min":0,"x_max":0,"ha":2083},"玭":{"x_min":0,"x_max":0,"ha":2083},"鯦":{"x_min":0,"x_max":0,"ha":2083},"瀣":{"x_min":0,"x_max":0,"ha":2083},"釁":{"x_min":0,"x_max":0,"ha":2083},"嬗":{"x_min":0,"x_max":0,"ha":2083},"逵":{"x_min":0,"x_max":0,"ha":2083},"蝷":{"x_min":0,"x_max":0,"ha":2083},"萐":{"x_min":0,"x_max":0,"ha":2083},"泓":{"x_min":0,"x_max":0,"ha":2083},"擠":{"x_min":0,"x_max":0,"ha":2083},"鬘":{"x_min":0,"x_max":0,"ha":2083},"鋎":{"x_min":0,"x_max":0,"ha":2083},"逼":{"x_min":0,"x_max":0,"ha":2083},"爍":{"x_min":0,"x_max":0,"ha":2083},"檞":{"x_min":0,"x_max":0,"ha":2083},"憃":{"x_min":0,"x_max":0,"ha":2083},"箴":{"x_min":0,"x_max":0,"ha":2083},"麶":{"x_min":0,"x_max":0,"ha":2083},"狄":{"x_min":0,"x_max":0,"ha":2083},"犗":{"x_min":0,"x_max":0,"ha":2083},"寰":{"x_min":0,"x_max":0,"ha":2083},"嫟":{"x_min":0,"x_max":0,"ha":2083},"啃":{"x_min":0,"x_max":0,"ha":2083},"決":{"x_min":0,"x_max":0,"ha":2083},"愄":{"x_min":0,"x_max":0,"ha":2083},"鉥":{"x_min":0,"x_max":0,"ha":2083},"傯":{"x_min":0,"x_max":0,"ha":2083},"雹":{"x_min":0,"x_max":0,"ha":2083},"赩":{"x_min":0,"x_max":0,"ha":2083},"避":{"x_min":0,"x_max":0,"ha":2083},"貜":{"x_min":0,"x_max":0,"ha":2083},"嬼":{"x_min":0,"x_max":0,"ha":2083},"蠩":{"x_min":0,"x_max":0,"ha":2083},"瞕":{"x_min":0,"x_max":0,"ha":2083},"炴":{"x_min":0,"x_max":0,"ha":2083},"鏨":{"x_min":0,"x_max":0,"ha":2083},"共":{"x_min":0,"x_max":0,"ha":2083},"左":{"x_min":0,"x_max":0,"ha":2083},"錦":{"x_min":0,"x_max":0,"ha":2083},"褆":{"x_min":0,"x_max":0,"ha":2083},"搶":{"x_min":44.234375,"x_max":1811.21875,"ha":2083,"o":"m 1643 839 q 1675 847 1649 865 q 1675 809 1698 824 q 1520 712 1599 748 q 1479 699 1493 694 q 1502 718 1477 702 q 1631 816 1584 769 q 1643 839 1641 830 m 1679 748 q 1704 754 1685 767 q 1709 714 1740 735 q 1656 670 1685 701 q 1641 632 1637 653 q 1647 461 1650 564 q 1619 447 1641 427 q 1612 520 1599 476 q 1615 617 1622 552 q 1585 619 1611 637 q 1464 553 1524 579 q 1429 546 1443 543 q 1452 565 1426 549 q 1650 706 1544 614 q 1679 748 1676 728 m 1633 336 q 1631 370 1627 367 q 1656 366 1641 373 q 1687 329 1683 355 q 1666 295 1687 324 l 1538 96 q 1527 70 1524 74 q 1546 67 1534 67 q 1751 92 1639 71 q 1790 88 1779 93 q 1808 71 1801 81 q 1793 52 1818 54 q 1741 56 1767 52 q 1509 31 1630 61 q 1478 27 1483 23 q 1466 51 1467 36 q 1477 75 1460 65 q 1563 183 1524 113 q 1620 284 1605 252 q 1633 336 1634 310 m 808 972 q 819 1019 811 1015 q 925 919 877 1010 q 901 889 923 908 q 915 836 882 869 q 1292 584 1106 632 q 1346 565 1348 569 q 1295 546 1329 550 q 1152 528 1218 533 q 1097 545 1124 528 q 887 813 1010 636 q 838 808 864 845 q 497 485 680 568 q 489 518 447 476 q 808 972 767 756 m 316 980 q 389 969 341 988 q 429 904 434 944 q 413 687 408 788 q 455 671 413 653 q 549 653 507 676 q 523 610 565 623 q 447 590 485 596 q 413 546 413 579 l 413 429 q 454 419 413 396 q 500 439 495 439 q 505 427 505 434 q 448 377 488 405 q 413 317 413 348 q 410 -54 415 131 q 382 -147 401 -113 q 301 -120 339 -207 q 222 -12 269 -66 q 187 33 185 27 q 234 23 193 36 l 292 2 q 344 46 348 -32 l 351 264 q 310 265 352 299 q 212 183 261 226 q 173 146 193 169 q 67 170 134 85 q 44 218 40 212 q 317 341 191 259 q 352 393 352 363 l 354 526 q 313 550 354 558 q 164 537 233 516 q 120 561 123 554 q 164 581 123 569 q 320 619 236 595 q 354 663 354 630 q 330 925 363 819 q 316 980 292 961 m 792 625 q 794 678 752 676 q 885 642 847 674 q 868 572 914 588 q 792 625 827 580 m 954 565 q 1057 545 992 591 q 1070 469 1091 514 q 1010 326 1034 417 q 1017 291 1003 294 q 1043 264 1045 283 q 1005 242 1040 240 q 703 202 783 206 q 657 165 671 206 q 556 -37 633 77 q 443 -112 493 -118 q 438 -101 435 -108 q 637 387 613 86 q 622 482 645 438 q 656 522 600 524 q 705 499 678 519 q 752 500 712 492 q 954 565 864 516 m 904 495 l 747 461 q 709 427 710 457 l 706 386 q 743 363 702 352 q 836 396 788 377 q 891 401 858 406 q 912 375 918 389 q 868 351 911 370 q 733 321 792 330 q 689 284 695 325 q 720 244 679 240 q 903 279 809 259 q 942 326 937 284 q 957 450 948 387 q 957 493 963 488 q 904 495 945 500 m 939 139 q 1030 166 1003 177 q 1085 141 1057 158 q 1094 56 1131 99 q 1043 -31 1057 13 q 1044 -63 1032 -61 q 1075 -100 1078 -81 q 1043 -113 1067 -112 q 800 -134 922 -119 q 762 -145 763 -130 q 732 -173 758 -185 q 716 -135 713 -157 q 679 54 710 -35 q 653 103 652 96 q 699 108 659 109 l 722 104 q 777 99 750 92 q 939 139 850 108 m 930 94 l 797 69 q 763 25 760 63 l 766 -55 q 807 -84 766 -88 l 927 -67 q 969 -32 964 -62 q 984 56 975 12 q 930 94 1003 116 "},"呲":{"x_min":0,"x_max":0,"ha":2083},"陴":{"x_min":0,"x_max":0,"ha":2083},"洿":{"x_min":0,"x_max":0,"ha":2083},"鮡":{"x_min":0,"x_max":0,"ha":2083},"尷":{"x_min":0,"x_max":0,"ha":2083},"翉":{"x_min":0,"x_max":0,"ha":2083},"嬰":{"x_min":0,"x_max":0,"ha":2083},"廎":{"x_min":0,"x_max":0,"ha":2083},"瞭":{"x_min":0,"x_max":0,"ha":2083},"剔":{"x_min":0,"x_max":0,"ha":2083},"緡":{"x_min":0,"x_max":0,"ha":2083},"傃":{"x_min":0,"x_max":0,"ha":2083},"袲":{"x_min":0,"x_max":0,"ha":2083},"簠":{"x_min":0,"x_max":0,"ha":2083},"腡":{"x_min":0,"x_max":0,"ha":2083},"瘣":{"x_min":0,"x_max":0,"ha":2083},"郴":{"x_min":0,"x_max":0,"ha":2083},"夸":{"x_min":0,"x_max":0,"ha":2083},"嘔":{"x_min":93.546875,"x_max":1812.421875,"ha":2083,"o":"m 1761 809 q 1797 800 1774 813 q 1812 781 1814 786 q 1789 770 1802 767 q 1661 775 1733 788 q 1641 752 1641 773 l 1641 683 l 1645 501 q 1635 474 1642 484 q 1622 470 1630 467 q 1600 507 1604 478 q 1605 561 1599 522 q 1609 646 1609 603 l 1609 748 q 1584 767 1609 769 q 1482 751 1531 763 q 1439 762 1463 748 q 1425 778 1421 775 q 1463 785 1437 788 q 1761 809 1605 785 m 1717 354 q 1744 354 1727 363 q 1768 324 1771 347 l 1765 298 l 1774 196 l 1780 96 q 1772 74 1779 82 q 1745 85 1763 66 q 1711 96 1737 97 q 1519 81 1618 94 q 1491 80 1504 77 q 1471 139 1459 100 q 1487 241 1485 191 q 1483 324 1490 299 q 1486 351 1478 348 q 1520 333 1504 355 q 1510 207 1521 290 q 1504 130 1502 153 q 1512 115 1504 120 q 1534 113 1516 112 q 1721 124 1619 120 q 1742 147 1741 126 q 1730 303 1746 218 q 1715 347 1725 332 q 1717 354 1715 351 m 1079 880 q 1207 866 1162 892 q 1162 815 1224 824 q 1053 800 1121 802 l 667 760 q 645 741 634 755 q 640 686 653 728 q 613 69 607 500 q 664 -8 617 23 q 816 -42 724 -40 q 1139 -9 999 -47 q 1220 1 1177 14 q 1272 -40 1251 -5 q 1265 -70 1281 -52 q 1162 -97 1232 -94 q 817 -112 995 -118 q 600 -46 690 -108 q 546 63 552 -6 q 568 676 546 313 q 566 725 571 701 q 516 767 554 758 q 484 796 477 788 q 534 808 497 808 q 1079 880 847 826 m 1007 729 q 1101 698 1048 739 q 1121 633 1148 665 q 1063 547 1094 615 q 1056 514 1051 515 q 1086 493 1074 507 q 1081 472 1097 485 l 878 442 q 845 421 850 442 q 808 406 842 382 q 793 455 789 431 q 751 636 788 549 q 721 683 717 679 q 748 690 728 690 q 793 683 769 689 q 859 678 820 668 q 1007 729 954 701 m 387 684 q 469 664 420 699 q 512 619 515 629 q 424 436 446 528 q 431 397 417 404 q 444 367 454 385 q 396 354 436 360 q 264 336 330 347 q 226 316 231 336 q 188 299 221 272 q 170 348 173 313 q 119 592 166 473 q 93 630 99 619 q 136 644 92 645 q 187 627 164 644 q 240 626 195 617 q 387 684 318 640 m 946 659 q 865 630 903 646 q 838 588 830 626 l 849 515 q 893 489 853 482 l 954 503 q 994 552 987 511 l 1000 617 q 946 659 1009 679 m 333 604 q 233 580 280 587 q 212 531 203 577 l 230 408 q 272 383 233 373 l 320 394 q 360 443 352 402 l 379 562 q 333 604 397 625 m 1135 385 q 1231 368 1174 415 q 1257 335 1255 345 q 1228 287 1257 325 q 1199 211 1211 249 q 1201 169 1190 179 q 1205 138 1222 149 q 1071 126 1139 134 q 1037 111 1041 128 q 1007 90 1038 69 q 994 139 995 104 q 958 329 992 250 q 976 367 930 368 q 999 362 987 367 q 1053 360 1013 348 q 1135 385 1094 370 m 773 325 q 874 348 847 356 q 937 294 922 332 q 889 185 904 242 q 889 149 880 154 q 910 124 910 139 q 865 109 906 118 q 786 92 826 103 q 748 74 751 89 q 720 65 747 43 q 706 115 708 77 q 678 278 705 202 q 668 333 642 332 q 710 324 689 330 q 773 325 729 313 m 1104 339 q 1057 325 1081 335 q 1030 279 1025 321 l 1038 192 q 1085 169 1040 162 l 1102 172 q 1143 206 1139 176 q 1154 299 1151 252 q 1104 339 1163 363 m 835 291 q 770 288 808 303 q 744 237 737 278 l 752 160 q 793 138 754 124 q 836 193 834 153 l 839 250 q 835 291 842 284 "},"至":{"x_min":0,"x_max":0,"ha":2083},"誠":{"x_min":0,"x_max":0,"ha":2083},"鄡":{"x_min":0,"x_max":0,"ha":2083},"炑":{"x_min":0,"x_max":0,"ha":2083},"榚":{"x_min":0,"x_max":0,"ha":2083},"治":{"x_min":0,"x_max":0,"ha":2083},"鵿":{"x_min":0,"x_max":0,"ha":2083},"烻":{"x_min":0,"x_max":0,"ha":2083},"桻":{"x_min":0,"x_max":0,"ha":2083},"昜":{"x_min":0,"x_max":0,"ha":2083},"廌":{"x_min":0,"x_max":0,"ha":2083},"鷻":{"x_min":0,"x_max":0,"ha":2083},"飾":{"x_min":0,"x_max":0,"ha":2083},"吽":{"x_min":0,"x_max":0,"ha":2083},"蜁":{"x_min":0,"x_max":0,"ha":2083},"襝":{"x_min":0,"x_max":0,"ha":2083},"幛":{"x_min":0,"x_max":0,"ha":2083},"尰":{"x_min":0,"x_max":0,"ha":2083},"逖":{"x_min":0,"x_max":0,"ha":2083},"蕨":{"x_min":0,"x_max":0,"ha":2083},"蚵":{"x_min":0,"x_max":0,"ha":2083},"簩":{"x_min":0,"x_max":0,"ha":2083},"沌":{"x_min":0,"x_max":0,"ha":2083},"貊":{"x_min":0,"x_max":0,"ha":2083},"蔂":{"x_min":0,"x_max":0,"ha":2083},"鑇":{"x_min":0,"x_max":0,"ha":2083},"氏":{"x_min":0,"x_max":0,"ha":2083},"溰":{"x_min":0,"x_max":0,"ha":2083},"鞁":{"x_min":0,"x_max":0,"ha":2083},"雄":{"x_min":0,"x_max":0,"ha":2083},"譓":{"x_min":0,"x_max":0,"ha":2083},"猋":{"x_min":0,"x_max":0,"ha":2083},"瓬":{"x_min":0,"x_max":0,"ha":2083},"闛":{"x_min":0,"x_max":0,"ha":2083},"銳":{"x_min":0,"x_max":0,"ha":2083},"瘱":{"x_min":0,"x_max":0,"ha":2083},"褊":{"x_min":0,"x_max":0,"ha":2083},"忀":{"x_min":0,"x_max":0,"ha":2083},"黴":{"x_min":0,"x_max":0,"ha":2083},"偯":{"x_min":0,"x_max":0,"ha":2083},"礹":{"x_min":0,"x_max":0,"ha":2083},"闔":{"x_min":0,"x_max":0,"ha":2083},"涍":{"x_min":0,"x_max":0,"ha":2083},"掖":{"x_min":0,"x_max":0,"ha":2083},"殊":{"x_min":0,"x_max":0,"ha":2083},"媃":{"x_min":0,"x_max":0,"ha":2083},"撞":{"x_min":0,"x_max":0,"ha":2083},"前":{"x_min":0,"x_max":0,"ha":2083},"遧":{"x_min":0,"x_max":0,"ha":2083},"瘭":{"x_min":0,"x_max":0,"ha":2083},"霜":{"x_min":0,"x_max":0,"ha":2083},"杵":{"x_min":0,"x_max":0,"ha":2083},"騅":{"x_min":0,"x_max":0,"ha":2083},"迦":{"x_min":0,"x_max":0,"ha":2083},"鮆":{"x_min":0,"x_max":0,"ha":2083},"瞌":{"x_min":0,"x_max":0,"ha":2083},"媊":{"x_min":0,"x_max":0,"ha":2083},"瀸":{"x_min":0,"x_max":0,"ha":2083},"妧":{"x_min":0,"x_max":0,"ha":2083},"挼":{"x_min":0,"x_max":0,"ha":2083},"髊":{"x_min":0,"x_max":0,"ha":2083},"綯":{"x_min":0,"x_max":0,"ha":2083},"戛":{"x_min":0,"x_max":0,"ha":2083},"緆":{"x_min":0,"x_max":0,"ha":2083},"毖":{"x_min":0,"x_max":0,"ha":2083},"硱":{"x_min":0,"x_max":0,"ha":2083},"貥":{"x_min":0,"x_max":0,"ha":2083},"伶":{"x_min":0,"x_max":0,"ha":2083},"鬕":{"x_min":0,"x_max":0,"ha":2083},"钃":{"x_min":0,"x_max":0,"ha":2083},"軧":{"x_min":0,"x_max":0,"ha":2083},"蕦":{"x_min":0,"x_max":0,"ha":2083},"色":{"x_min":0,"x_max":0,"ha":2083},"齟":{"x_min":0,"x_max":0,"ha":2083},"硜":{"x_min":0,"x_max":0,"ha":2083},"鸓":{"x_min":0,"x_max":0,"ha":2083},"訐":{"x_min":0,"x_max":0,"ha":2083},"疫":{"x_min":0,"x_max":0,"ha":2083},"罵":{"x_min":0,"x_max":0,"ha":2083},"鄫":{"x_min":0,"x_max":0,"ha":2083},"螳":{"x_min":0,"x_max":0,"ha":2083},"璠":{"x_min":0,"x_max":0,"ha":2083},"傶":{"x_min":0,"x_max":0,"ha":2083},"瘺":{"x_min":0,"x_max":0,"ha":2083},"翗":{"x_min":0,"x_max":0,"ha":2083},"妙":{"x_min":0,"x_max":0,"ha":2083},"挩":{"x_min":0,"x_max":0,"ha":2083},"鯬":{"x_min":0,"x_max":0,"ha":2083},"爬":{"x_min":0,"x_max":0,"ha":2083},"弤":{"x_min":0,"x_max":0,"ha":2083},"傌":{"x_min":0,"x_max":0,"ha":2083},"鏃":{"x_min":0,"x_max":0,"ha":2083},"錝":{"x_min":0,"x_max":0,"ha":2083},"宥":{"x_min":0,"x_max":0,"ha":2083},"物":{"x_min":0,"x_max":0,"ha":2083},"眼":{"x_min":0,"x_max":0,"ha":2083},"嘪":{"x_min":0,"x_max":0,"ha":2083},"傚":{"x_min":0,"x_max":0,"ha":2083},"蓄":{"x_min":0,"x_max":0,"ha":2083},"茅":{"x_min":0,"x_max":0,"ha":2083},"顒":{"x_min":0,"x_max":0,"ha":2083},"罌":{"x_min":0,"x_max":0,"ha":2083},"舜":{"x_min":0,"x_max":0,"ha":2083},"咻":{"x_min":0,"x_max":0,"ha":2083},"棹":{"x_min":0,"x_max":0,"ha":2083},"鳵":{"x_min":0,"x_max":0,"ha":2083},"邴":{"x_min":0,"x_max":0,"ha":2083},"咢":{"x_min":0,"x_max":0,"ha":2083},"勿":{"x_min":0,"x_max":0,"ha":2083},"撋":{"x_min":0,"x_max":0,"ha":2083},"灀":{"x_min":0,"x_max":0,"ha":2083},"野":{"x_min":0,"x_max":0,"ha":2083},"醃":{"x_min":0,"x_max":0,"ha":2083},"掌":{"x_min":0,"x_max":0,"ha":2083},"翛":{"x_min":0,"x_max":0,"ha":2083},"鱀":{"x_min":0,"x_max":0,"ha":2083},"幢":{"x_min":0,"x_max":0,"ha":2083},"彬":{"x_min":0,"x_max":0,"ha":2083},"鵟":{"x_min":0,"x_max":0,"ha":2083},"瀿":{"x_min":0,"x_max":0,"ha":2083},"蠮":{"x_min":0,"x_max":0,"ha":2083},"螺":{"x_min":0,"x_max":0,"ha":2083},"旄":{"x_min":0,"x_max":0,"ha":2083},"怹":{"x_min":0,"x_max":0,"ha":2083},"搪":{"x_min":0,"x_max":0,"ha":2083},"誌":{"x_min":0,"x_max":0,"ha":2083},"詎":{"x_min":0,"x_max":0,"ha":2083},"耶":{"x_min":0,"x_max":0,"ha":2083},"倅":{"x_min":0,"x_max":0,"ha":2083},"麙":{"x_min":0,"x_max":0,"ha":2083},"逮":{"x_min":0,"x_max":0,"ha":2083},"莣":{"x_min":0,"x_max":0,"ha":2083},"艨":{"x_min":0,"x_max":0,"ha":2083},"榣":{"x_min":0,"x_max":0,"ha":2083},"嗃":{"x_min":0,"x_max":0,"ha":2083},"畬":{"x_min":0,"x_max":0,"ha":2083},"榽":{"x_min":0,"x_max":0,"ha":2083},"衍":{"x_min":0,"x_max":0,"ha":2083},"機":{"x_min":0,"x_max":0,"ha":2083},"嵕":{"x_min":0,"x_max":0,"ha":2083},"蠠":{"x_min":0,"x_max":0,"ha":2083},"妒":{"x_min":0,"x_max":0,"ha":2083},"琖":{"x_min":0,"x_max":0,"ha":2083},"堛":{"x_min":0,"x_max":0,"ha":2083},"狠":{"x_min":0,"x_max":0,"ha":2083},"兕":{"x_min":0,"x_max":0,"ha":2083},"忣":{"x_min":0,"x_max":0,"ha":2083},"軋":{"x_min":0,"x_max":0,"ha":2083},"邏":{"x_min":0,"x_max":0,"ha":2083},"璧":{"x_min":0,"x_max":0,"ha":2083},"托":{"x_min":0,"x_max":0,"ha":2083},"腳":{"x_min":0,"x_max":0,"ha":2083},"鍜":{"x_min":0,"x_max":0,"ha":2083},"翴":{"x_min":0,"x_max":0,"ha":2083},"污":{"x_min":0,"x_max":0,"ha":2083},"鱌":{"x_min":0,"x_max":0,"ha":2083},"梯":{"x_min":0,"x_max":0,"ha":2083},"暵":{"x_min":0,"x_max":0,"ha":2083},"颮":{"x_min":0,"x_max":0,"ha":2083},"闢":{"x_min":0,"x_max":0,"ha":2083},"A":{"x_min":33.90625,"x_max":887.09375,"ha":926,"o":"m 412 838 q 465 899 429 889 q 512 861 496 906 l 783 111 q 839 40 802 54 q 887 6 884 36 q 847 -18 888 -18 l 638 -18 q 596 6 596 -18 q 637 35 596 33 q 693 96 716 33 l 627 276 q 583 309 615 309 l 324 309 q 275 268 291 309 q 241 173 256 221 q 211 73 223 123 q 278 36 225 39 q 320 9 320 35 q 279 -18 320 -18 l 75 -18 q 33 6 33 -18 q 74 39 33 33 q 157 105 126 43 l 412 838 m 459 737 q 435 743 446 774 l 317 401 q 333 364 303 364 l 560 364 q 579 406 594 364 l 459 737 "},"瀟":{"x_min":0,"x_max":0,"ha":2083},"騶":{"x_min":0,"x_max":0,"ha":2083},"跿":{"x_min":0,"x_max":0,"ha":2083},"蝔":{"x_min":0,"x_max":0,"ha":2083},"虪":{"x_min":0,"x_max":0,"ha":2083},"颺":{"x_min":0,"x_max":0,"ha":2083},"猒":{"x_min":0,"x_max":0,"ha":2083},"凗":{"x_min":0,"x_max":0,"ha":2083},"砸":{"x_min":0,"x_max":0,"ha":2083},"螣":{"x_min":0,"x_max":0,"ha":2083},"瞗":{"x_min":0,"x_max":0,"ha":2083},"溾":{"x_min":0,"x_max":0,"ha":2083},"艋":{"x_min":0,"x_max":0,"ha":2083},"侜":{"x_min":0,"x_max":0,"ha":2083},"饒":{"x_min":0,"x_max":0,"ha":2083},"齁":{"x_min":0,"x_max":0,"ha":2083},"癆":{"x_min":0,"x_max":0,"ha":2083},"底":{"x_min":0,"x_max":0,"ha":2083},"鱸":{"x_min":0,"x_max":0,"ha":2083},"軺":{"x_min":0,"x_max":0,"ha":2083},"螸":{"x_min":0,"x_max":0,"ha":2083},"罥":{"x_min":0,"x_max":0,"ha":2083},"韥":{"x_min":0,"x_max":0,"ha":2083},"監":{"x_min":0,"x_max":0,"ha":2083},"董":{"x_min":0,"x_max":0,"ha":2083},"佇":{"x_min":0,"x_max":0,"ha":2083},"庠":{"x_min":0,"x_max":0,"ha":2083},"祖":{"x_min":0,"x_max":0,"ha":2083},"硿":{"x_min":0,"x_max":0,"ha":2083},"唲":{"x_min":0,"x_max":0,"ha":2083},"蜠":{"x_min":0,"x_max":0,"ha":2083},"襓":{"x_min":0,"x_max":0,"ha":2083},"萬":{"x_min":0,"x_max":0,"ha":2083},"纗":{"x_min":105.078125,"x_max":2021.0625,"ha":2083,"o":"m 1722 820 q 1751 807 1733 823 q 1753 766 1778 788 q 1711 712 1734 748 q 1687 680 1700 695 q 1691 641 1668 659 q 1741 602 1717 622 q 1799 542 1782 572 q 1795 516 1808 533 q 1757 522 1778 500 q 1671 613 1727 561 q 1626 615 1645 634 q 1467 509 1551 545 q 1439 500 1440 497 q 1462 522 1436 503 q 1601 634 1532 572 q 1595 675 1620 655 q 1510 740 1553 709 q 1489 763 1481 762 q 1508 759 1496 763 q 1622 690 1561 732 q 1665 702 1642 676 q 1714 798 1706 748 q 1722 820 1715 812 m 1889 495 q 1927 492 1909 515 q 2007 394 1968 444 q 2020 367 2022 370 q 1889 455 1973 391 q 1889 495 1867 473 m 1615 341 q 1671 354 1642 375 q 1675 311 1691 341 q 1676 265 1671 294 q 1741 111 1684 188 q 1810 51 1771 73 q 1844 35 1841 39 q 1824 17 1848 27 l 1799 13 q 1738 44 1767 6 q 1652 249 1668 141 q 1641 301 1647 284 q 1628 311 1638 311 q 1581 287 1605 301 l 1529 259 q 1467 264 1491 230 q 1463 279 1460 276 q 1487 286 1470 283 q 1615 341 1562 301 m 849 1036 q 892 1038 851 1043 q 968 998 925 1029 q 972 957 996 977 q 942 868 944 934 q 981 838 941 835 l 1101 854 q 1143 900 1136 861 q 1143 958 1151 922 q 1148 983 1135 979 q 1203 965 1167 986 q 1219 887 1242 927 q 1192 835 1203 861 q 1162 781 1177 800 q 1128 767 1144 763 q 1123 805 1112 778 q 1085 820 1125 826 q 661 717 827 790 q 632 739 649 720 q 611 767 615 758 q 645 809 607 781 q 638 901 674 853 q 617 935 615 929 q 664 941 632 952 q 716 830 744 912 q 748 802 708 797 q 858 820 801 813 q 889 866 891 826 q 849 1036 893 973 m 320 915 q 336 960 324 961 q 402 916 358 960 q 428 861 434 889 q 263 564 343 714 q 276 527 236 522 l 348 538 q 404 587 381 543 q 438 728 439 655 q 496 713 455 751 q 534 622 572 660 q 309 351 454 535 q 318 318 278 311 l 438 348 q 454 398 470 358 q 485 427 439 448 q 549 267 603 363 q 501 290 527 246 q 442 305 485 321 q 188 183 282 244 q 153 191 170 173 q 138 240 131 212 q 185 287 142 267 q 333 466 256 330 q 317 492 354 499 q 218 450 264 485 q 170 419 176 419 q 138 500 122 448 q 161 523 143 509 q 240 627 217 562 q 320 915 298 728 m 926 712 q 925 759 889 759 q 969 748 945 756 q 1009 693 1015 732 q 1049 690 1006 682 q 1174 710 1142 714 q 1222 686 1224 694 q 1201 665 1219 678 q 1021 636 1151 648 q 1002 618 991 632 q 1009 595 1007 607 q 1048 588 1007 581 q 1151 598 1102 607 q 1173 579 1171 588 q 1118 550 1170 568 l 1038 541 q 1000 515 1002 537 q 1041 495 1000 489 q 1109 512 1075 505 q 1155 503 1140 511 q 1163 477 1175 493 q 1033 448 1123 455 q 1000 417 1000 443 q 1041 396 1000 390 q 1228 413 1156 424 q 1262 387 1255 401 q 1257 363 1270 373 q 826 318 1014 352 q 770 321 798 316 q 736 317 739 335 q 687 292 728 259 q 674 390 648 347 q 686 495 687 427 q 651 495 683 527 q 533 413 599 443 q 564 461 528 420 q 717 725 699 607 q 793 695 750 729 q 794 661 815 684 q 828 657 788 655 l 930 668 q 926 712 965 674 m 802 621 q 741 602 770 634 q 722 549 709 562 q 736 493 735 534 l 739 391 q 781 359 740 359 q 907 375 842 364 q 939 409 939 381 q 899 436 939 438 q 807 454 836 432 q 854 472 797 465 q 904 476 877 476 q 937 503 938 480 q 896 523 937 526 q 842 526 866 519 q 800 546 801 539 q 846 557 805 553 q 899 564 870 562 q 934 594 935 569 q 901 622 931 625 q 802 621 857 603 m 1117 302 q 1234 297 1189 329 q 1284 250 1269 276 q 1274 229 1288 240 q 1261 183 1261 215 q 1265 -74 1261 54 q 1186 -192 1264 -143 q 1137 -147 1173 -195 l 1108 -104 q 1091 -58 1079 -59 q 1131 -70 1104 -59 q 1184 -25 1184 -88 l 1188 24 q 1189 187 1186 105 q 1177 237 1196 218 q 906 215 1098 242 q 891 198 873 210 q 870 153 910 183 q 717 73 790 86 q 752 112 712 77 q 802 168 781 139 q 782 198 823 203 q 706 193 725 188 q 695 165 695 198 q 693 -126 697 21 q 676 -170 682 -166 q 651 -164 663 -177 q 626 -101 625 -132 q 642 146 645 -9 q 614 248 644 195 q 661 249 621 253 q 702 241 684 237 q 1117 302 953 240 m 446 185 q 472 218 427 230 q 565 115 583 183 q 505 88 552 47 q 446 185 470 134 m 961 203 q 1048 192 983 219 q 1128 134 1120 172 q 1098 82 1132 89 q 1048 126 1090 84 l 1005 162 q 961 203 961 200 m 306 111 q 339 136 294 154 q 415 50 417 99 q 382 -13 415 -5 q 306 111 341 8 m 176 63 q 199 109 193 108 q 223 65 219 104 q 166 -103 255 -29 q 108 -88 126 -127 q 127 -6 96 -55 q 176 63 160 28 m 976 80 q 1060 61 1013 97 q 1070 18 1097 32 q 1037 -9 1062 14 q 1032 -39 1021 -32 l 1048 -52 q 1007 -73 1051 -63 q 893 -93 950 -81 q 859 -103 861 -96 q 830 -108 855 -127 q 821 -69 823 -96 l 809 -14 q 783 29 798 12 q 811 50 762 50 l 832 43 q 878 47 838 37 q 976 80 927 61 m 933 33 l 862 13 q 861 -24 854 13 q 910 -50 865 -58 l 945 -42 q 980 -1 975 -35 q 933 33 996 56 "},"葭":{"x_min":0,"x_max":0,"ha":2083},"瞨":{"x_min":0,"x_max":0,"ha":2083},"眷":{"x_min":0,"x_max":0,"ha":2083},"斠":{"x_min":0,"x_max":0,"ha":2083},"顛":{"x_min":0,"x_max":0,"ha":2083},"儗":{"x_min":0,"x_max":0,"ha":2083},"餗":{"x_min":0,"x_max":0,"ha":2083},"棌":{"x_min":0,"x_max":0,"ha":2083},"崠":{"x_min":0,"x_max":0,"ha":2083},"蚧":{"x_min":0,"x_max":0,"ha":2083},"閡":{"x_min":0,"x_max":0,"ha":2083},"爆":{"x_min":0,"x_max":0,"ha":2083},"喫":{"x_min":0,"x_max":0,"ha":2083},"椈":{"x_min":0,"x_max":0,"ha":2083},"稷":{"x_min":0,"x_max":0,"ha":2083},"祝":{"x_min":0,"x_max":0,"ha":2083},"蠀":{"x_min":0,"x_max":0,"ha":2083},"鴽":{"x_min":0,"x_max":0,"ha":2083},"笤":{"x_min":0,"x_max":0,"ha":2083},"鴣":{"x_min":0,"x_max":0,"ha":2083},"踵":{"x_min":0,"x_max":0,"ha":2083},"晤":{"x_min":0,"x_max":0,"ha":2083},"阨":{"x_min":0,"x_max":0,"ha":2083},"秣":{"x_min":0,"x_max":0,"ha":2083},"檕":{"x_min":0,"x_max":0,"ha":2083},"釨":{"x_min":0,"x_max":0,"ha":2083},"汯":{"x_min":0,"x_max":0,"ha":2083},"譠":{"x_min":0,"x_max":0,"ha":2083},"厗":{"x_min":0,"x_max":0,"ha":2083},"韆":{"x_min":0,"x_max":0,"ha":2083},"碭":{"x_min":0,"x_max":0,"ha":2083},"釦":{"x_min":0,"x_max":0,"ha":2083},"菃":{"x_min":0,"x_max":0,"ha":2083},"崙":{"x_min":0,"x_max":0,"ha":2083},"憲":{"x_min":0,"x_max":0,"ha":2083},"鉰":{"x_min":0,"x_max":0,"ha":2083},"隴":{"x_min":0,"x_max":0,"ha":2083},"苠":{"x_min":0,"x_max":0,"ha":2083},"廩":{"x_min":0,"x_max":0,"ha":2083},"廣":{"x_min":0,"x_max":0,"ha":2083},"躇":{"x_min":0,"x_max":0,"ha":2083},"厲":{"x_min":0,"x_max":0,"ha":2083},"頝":{"x_min":0,"x_max":0,"ha":2083},"謂":{"x_min":0,"x_max":0,"ha":2083},"毊":{"x_min":0,"x_max":0,"ha":2083},"暋":{"x_min":0,"x_max":0,"ha":2083},"餅":{"x_min":0,"x_max":0,"ha":2083},"鮛":{"x_min":0,"x_max":0,"ha":2083},"与":{"x_min":0,"x_max":0,"ha":2083},"葌":{"x_min":0,"x_max":0,"ha":2083},"蛘":{"x_min":0,"x_max":0,"ha":2083},"袑":{"x_min":0,"x_max":0,"ha":2083},"偀":{"x_min":0,"x_max":0,"ha":2083},"帚":{"x_min":0,"x_max":0,"ha":2083},"系":{"x_min":0,"x_max":0,"ha":2083},"痘":{"x_min":0,"x_max":0,"ha":2083},"輻":{"x_min":0,"x_max":0,"ha":2083},"儅":{"x_min":0,"x_max":0,"ha":2083},"淠":{"x_min":0,"x_max":0,"ha":2083},"懅":{"x_min":0,"x_max":0,"ha":2083},"馲":{"x_min":0,"x_max":0,"ha":2083},"瞎":{"x_min":0,"x_max":0,"ha":2083},"佻":{"x_min":0,"x_max":0,"ha":2083},"匎":{"x_min":0,"x_max":0,"ha":2083},"秕":{"x_min":0,"x_max":0,"ha":2083},"揄":{"x_min":0,"x_max":0,"ha":2083},"褦":{"x_min":0,"x_max":0,"ha":2083},"磍":{"x_min":0,"x_max":0,"ha":2083},"崲":{"x_min":0,"x_max":0,"ha":2083},"齮":{"x_min":0,"x_max":0,"ha":2083},"袖":{"x_min":0,"x_max":0,"ha":2083},"葃":{"x_min":0,"x_max":0,"ha":2083},"攍":{"x_min":0,"x_max":0,"ha":2083},"乜":{"x_min":0,"x_max":0,"ha":2083},"閰":{"x_min":0,"x_max":0,"ha":2083},"杬":{"x_min":0,"x_max":0,"ha":2083},"橡":{"x_min":0,"x_max":0,"ha":2083},"彌":{"x_min":0,"x_max":0,"ha":2083},"倓":{"x_min":0,"x_max":0,"ha":2083},"蠐":{"x_min":0,"x_max":0,"ha":2083},"掱":{"x_min":0,"x_max":0,"ha":2083},"揜":{"x_min":0,"x_max":0,"ha":2083},"旂":{"x_min":0,"x_max":0,"ha":2083},"篎":{"x_min":0,"x_max":0,"ha":2083},"羧":{"x_min":0,"x_max":0,"ha":2083},"禠":{"x_min":0,"x_max":0,"ha":2083},"袈":{"x_min":0,"x_max":0,"ha":2083},"嚓":{"x_min":0,"x_max":0,"ha":2083},"皖":{"x_min":0,"x_max":0,"ha":2083},"煞":{"x_min":0,"x_max":0,"ha":2083},"鍎":{"x_min":0,"x_max":0,"ha":2083},"拴":{"x_min":0,"x_max":0,"ha":2083},"短":{"x_min":0,"x_max":0,"ha":2083},"磷":{"x_min":0,"x_max":0,"ha":2083},"髮":{"x_min":0,"x_max":0,"ha":2083},"蓂":{"x_min":0,"x_max":0,"ha":2083},"篕":{"x_min":0,"x_max":0,"ha":2083},"趯":{"x_min":0,"x_max":0,"ha":2083},"檎":{"x_min":0,"x_max":0,"ha":2083},"敺":{"x_min":0,"x_max":0,"ha":2083},"忱":{"x_min":0,"x_max":0,"ha":2083},"硯":{"x_min":0,"x_max":0,"ha":2083},"仍":{"x_min":0,"x_max":0,"ha":2083},"鼱":{"x_min":0,"x_max":0,"ha":2083},"砎":{"x_min":0,"x_max":0,"ha":2083},"鋠":{"x_min":0,"x_max":0,"ha":2083},"督":{"x_min":0,"x_max":0,"ha":2083},"僮":{"x_min":0,"x_max":0,"ha":2083},"揓":{"x_min":0,"x_max":0,"ha":2083},"矨":{"x_min":0,"x_max":0,"ha":2083},"蝛":{"x_min":0,"x_max":0,"ha":2083},"騸":{"x_min":0,"x_max":0,"ha":2083},"臼":{"x_min":0,"x_max":0,"ha":2083},"秪":{"x_min":0,"x_max":0,"ha":2083},"淲":{"x_min":0,"x_max":0,"ha":2083},"惠":{"x_min":0,"x_max":0,"ha":2083},"幄":{"x_min":0,"x_max":0,"ha":2083},"尖":{"x_min":0,"x_max":0,"ha":2083},"蓱":{"x_min":0,"x_max":0,"ha":2083},"宒":{"x_min":0,"x_max":0,"ha":2083},"授":{"x_min":0,"x_max":0,"ha":2083},"磺":{"x_min":0,"x_max":0,"ha":2083},"伝":{"x_min":0,"x_max":0,"ha":2083},"菜":{"x_min":0,"x_max":0,"ha":2083},"葦":{"x_min":0,"x_max":0,"ha":2083},"漹":{"x_min":0,"x_max":0,"ha":2083},"菆":{"x_min":0,"x_max":0,"ha":2083},"採":{"x_min":0,"x_max":0,"ha":2083},"拏":{"x_min":0,"x_max":0,"ha":2083},"袛":{"x_min":0,"x_max":0,"ha":2083},"蟊":{"x_min":0,"x_max":0,"ha":2083},"餡":{"x_min":0,"x_max":0,"ha":2083},"鵝":{"x_min":0,"x_max":0,"ha":2083},"砱":{"x_min":0,"x_max":0,"ha":2083},"卦":{"x_min":0,"x_max":0,"ha":2083},"煋":{"x_min":0,"x_max":0,"ha":2083},"翀":{"x_min":0,"x_max":0,"ha":2083},"昵":{"x_min":0,"x_max":0,"ha":2083},"懦":{"x_min":0,"x_max":0,"ha":2083},"庋":{"x_min":0,"x_max":0,"ha":2083},"廝":{"x_min":0,"x_max":0,"ha":2083},"鐼":{"x_min":0,"x_max":0,"ha":2083},"楬":{"x_min":0,"x_max":0,"ha":2083},"低":{"x_min":0,"x_max":0,"ha":2083},"黲":{"x_min":0,"x_max":0,"ha":2083},"擃":{"x_min":0,"x_max":0,"ha":2083},"裸":{"x_min":0,"x_max":0,"ha":2083},"釭":{"x_min":0,"x_max":0,"ha":2083},"臇":{"x_min":0,"x_max":0,"ha":2083},"睍":{"x_min":0,"x_max":0,"ha":2083},"龕":{"x_min":0,"x_max":0,"ha":2083},"垶":{"x_min":0,"x_max":0,"ha":2083},"啾":{"x_min":0,"x_max":0,"ha":2083},"迓":{"x_min":0,"x_max":0,"ha":2083},"廾":{"x_min":0,"x_max":0,"ha":2083},"慬":{"x_min":0,"x_max":0,"ha":2083},"皺":{"x_min":0,"x_max":0,"ha":2083},"攽":{"x_min":0,"x_max":0,"ha":2083},"陶":{"x_min":0,"x_max":0,"ha":2083},"嗑":{"x_min":0,"x_max":0,"ha":2083},"僛":{"x_min":0,"x_max":0,"ha":2083},"雲":{"x_min":0,"x_max":0,"ha":2083},"縥":{"x_min":0,"x_max":0,"ha":2083},"鏎":{"x_min":0,"x_max":0,"ha":2083},"肛":{"x_min":0,"x_max":0,"ha":2083},"祔":{"x_min":0,"x_max":0,"ha":2083},"僩":{"x_min":0,"x_max":0,"ha":2083},"鑅":{"x_min":0,"x_max":0,"ha":2083},"鍥":{"x_min":0,"x_max":0,"ha":2083},"奫":{"x_min":0,"x_max":0,"ha":2083},"兗":{"x_min":0,"x_max":0,"ha":2083},"凞":{"x_min":0,"x_max":0,"ha":2083},"顠":{"x_min":0,"x_max":0,"ha":2083},"餪":{"x_min":0,"x_max":0,"ha":2083},"嚮":{"x_min":0,"x_max":0,"ha":2083},"鏜":{"x_min":0,"x_max":0,"ha":2083},"軉":{"x_min":0,"x_max":0,"ha":2083},"睔":{"x_min":0,"x_max":0,"ha":2083},"劗":{"x_min":0,"x_max":0,"ha":2083},"羠":{"x_min":0,"x_max":0,"ha":2083},"籍":{"x_min":0,"x_max":0,"ha":2083},"齍":{"x_min":0,"x_max":0,"ha":2083},"錤":{"x_min":0,"x_max":0,"ha":2083},"績":{"x_min":0,"x_max":0,"ha":2083},"誕":{"x_min":0,"x_max":0,"ha":2083},"攃":{"x_min":0,"x_max":0,"ha":2083},"嚪":{"x_min":0,"x_max":0,"ha":2083},"蟶":{"x_min":0,"x_max":0,"ha":2083},"乾":{"x_min":0,"x_max":0,"ha":2083},"日":{"x_min":0,"x_max":0,"ha":2083},"阰":{"x_min":0,"x_max":0,"ha":2083},"銘":{"x_min":0,"x_max":0,"ha":2083},"蚕":{"x_min":0,"x_max":0,"ha":2083},"傑":{"x_min":0,"x_max":0,"ha":2083},"艩":{"x_min":0,"x_max":0,"ha":2083},"遒":{"x_min":0,"x_max":0,"ha":2083},"跌":{"x_min":0,"x_max":0,"ha":2083},"駁":{"x_min":0,"x_max":0,"ha":2083},"佰":{"x_min":0,"x_max":0,"ha":2083},"適":{"x_min":0,"x_max":0,"ha":2083},"鏸":{"x_min":0,"x_max":0,"ha":2083},"皏":{"x_min":0,"x_max":0,"ha":2083},"責":{"x_min":0,"x_max":0,"ha":2083},"圖":{"x_min":0,"x_max":0,"ha":2083},"嚷":{"x_min":0,"x_max":0,"ha":2083},"幡":{"x_min":0,"x_max":0,"ha":2083},"輤":{"x_min":0,"x_max":0,"ha":2083},"坶":{"x_min":0,"x_max":0,"ha":2083},"鉒":{"x_min":0,"x_max":0,"ha":2083},"謤":{"x_min":0,"x_max":0,"ha":2083},"兄":{"x_min":0,"x_max":0,"ha":2083},"諠":{"x_min":0,"x_max":0,"ha":2083},"兼":{"x_min":0,"x_max":0,"ha":2083},"蠵":{"x_min":0,"x_max":0,"ha":2083},"春":{"x_min":0,"x_max":0,"ha":2083},"銃":{"x_min":0,"x_max":0,"ha":2083},"軒":{"x_min":0,"x_max":0,"ha":2083},"齔":{"x_min":0,"x_max":0,"ha":2083},"娾":{"x_min":0,"x_max":0,"ha":2083},"奢":{"x_min":0,"x_max":0,"ha":2083},"鄁":{"x_min":0,"x_max":0,"ha":2083},"衵":{"x_min":0,"x_max":0,"ha":2083},"衝":{"x_min":0,"x_max":0,"ha":2083},"橪":{"x_min":0,"x_max":0,"ha":2083},"痴":{"x_min":0,"x_max":0,"ha":2083},"怷":{"x_min":0,"x_max":0,"ha":2083},"軀":{"x_min":0,"x_max":0,"ha":2083},"摹":{"x_min":0,"x_max":0,"ha":2083},"鵃":{"x_min":0,"x_max":0,"ha":2083},"歠":{"x_min":0,"x_max":0,"ha":2083},"閹":{"x_min":0,"x_max":0,"ha":2083},"纛":{"x_min":0,"x_max":0,"ha":2083},"踼":{"x_min":0,"x_max":0,"ha":2083},"笁":{"x_min":0,"x_max":0,"ha":2083},"褟":{"x_min":0,"x_max":0,"ha":2083},"嫺":{"x_min":0,"x_max":0,"ha":2083},"幨":{"x_min":0,"x_max":0,"ha":2083},"功":{"x_min":0,"x_max":0,"ha":2083},"鐓":{"x_min":0,"x_max":0,"ha":2083},"馨":{"x_min":0,"x_max":0,"ha":2083},"碴":{"x_min":0,"x_max":0,"ha":2083},"假":{"x_min":65.203125,"x_max":2010.96875,"ha":2083,"o":"m 1756 945 q 1797 939 1776 950 q 1817 919 1820 925 q 1784 911 1808 903 q 1676 912 1744 925 q 1654 891 1654 911 l 1654 809 l 1657 708 q 1646 629 1664 657 q 1620 640 1633 617 q 1616 691 1608 663 q 1623 771 1622 721 l 1623 862 q 1623 885 1624 874 q 1597 904 1623 906 l 1553 900 l 1502 888 q 1444 912 1463 889 q 1458 922 1447 922 q 1756 945 1612 922 m 1756 453 q 1808 446 1770 454 q 1829 432 1821 444 q 1824 419 1833 425 q 1797 415 1814 412 q 1738 419 1768 417 l 1668 419 q 1513 394 1592 416 q 1449 427 1477 390 q 1452 432 1449 429 q 1482 431 1459 435 l 1506 428 l 1713 443 q 1756 453 1741 444 m 1893 257 l 2010 332 q 1999 303 2014 329 q 1919 215 1955 248 q 1877 231 1893 195 q 1893 257 1873 245 m 1464 184 q 1516 196 1490 221 q 1612 111 1565 151 q 1658 112 1634 93 q 1741 189 1702 142 q 1793 188 1761 222 q 1771 160 1798 172 q 1669 86 1733 136 q 1649 44 1649 70 l 1653 -101 q 1634 -138 1649 -134 q 1615 -123 1623 -139 q 1609 -84 1603 -103 q 1618 44 1619 -20 q 1599 85 1618 65 q 1490 162 1543 135 q 1464 184 1464 180 m 339 953 q 421 927 358 971 q 459 855 492 892 q 322 611 389 733 q 335 535 295 571 q 345 493 351 518 q 336 -35 339 229 q 325 -111 333 -89 q 253 -89 297 -165 q 261 73 225 -27 q 282 447 287 195 l 275 492 q 236 482 268 527 l 153 383 q 66 326 101 328 q 89 374 59 332 q 341 866 305 648 q 337 938 344 908 q 339 953 336 949 m 1052 897 q 1147 866 1081 910 q 1178 826 1184 843 q 1135 763 1156 797 q 1101 684 1117 732 q 1108 648 1093 652 q 1123 609 1136 637 q 1076 592 1113 595 l 926 566 q 831 583 884 564 q 832 596 828 590 q 895 611 850 604 q 994 633 942 619 q 1032 683 1028 641 q 1044 782 1036 732 q 996 820 1057 845 l 944 809 q 855 812 885 789 q 855 826 851 820 q 1052 897 991 854 m 714 835 q 826 788 759 850 q 802 739 827 779 q 759 644 773 694 q 762 594 748 600 q 778 565 783 577 q 732 550 773 558 l 606 533 q 573 493 573 526 l 573 412 q 614 385 573 379 l 655 394 q 733 405 702 413 q 764 382 760 396 q 733 352 762 348 q 607 339 640 337 q 573 311 573 344 l 573 226 q 614 202 573 193 q 755 225 709 236 q 770 184 783 212 q 721 169 762 176 q 606 154 646 151 q 573 127 573 160 l 573 -28 q 566 -101 573 -69 q 543 -138 552 -134 q 504 -100 535 -139 q 501 21 470 -55 q 515 572 519 221 q 493 735 512 659 q 472 790 463 785 q 524 788 486 794 q 579 779 558 775 q 714 835 655 794 m 664 759 q 609 748 637 756 q 573 709 573 740 l 573 606 q 614 581 573 573 l 661 591 q 701 640 694 599 l 714 756 q 664 759 705 774 m 1017 463 q 1132 457 1074 504 q 1167 424 1159 435 q 1133 373 1171 413 q 1028 170 1081 250 q 1040 97 1003 138 q 1243 -12 1112 27 q 1357 -46 1300 -27 q 1315 -65 1359 -51 q 1108 -80 1230 -82 q 1011 1 1053 -71 l 979 51 q 918 51 957 86 q 724 -52 807 -35 q 750 -23 709 -51 q 899 107 824 31 q 901 180 926 138 q 839 276 873 227 q 821 320 813 314 q 929 231 866 322 q 988 229 965 189 q 1034 337 1014 283 q 1049 402 1057 386 q 999 400 1044 410 q 899 377 949 390 q 820 386 859 371 q 836 420 792 405 q 1017 463 934 434 "},"鵔":{"x_min":0,"x_max":0,"ha":2083},"寠":{"x_min":0,"x_max":0,"ha":2083},"灌":{"x_min":0,"x_max":0,"ha":2083},"婧":{"x_min":0,"x_max":0,"ha":2083},"怕":{"x_min":0,"x_max":0,"ha":2083},"蜰":{"x_min":0,"x_max":0,"ha":2083},"錄":{"x_min":0,"x_max":0,"ha":2083},"蠉":{"x_min":0,"x_max":0,"ha":2083},"麀":{"x_min":0,"x_max":0,"ha":2083},"砪":{"x_min":0,"x_max":0,"ha":2083},"錛":{"x_min":0,"x_max":0,"ha":2083},"舉":{"x_min":0,"x_max":0,"ha":2083},"韓":{"x_min":0,"x_max":0,"ha":2083},"炵":{"x_min":0,"x_max":0,"ha":2083},"歧":{"x_min":0,"x_max":0,"ha":2083},"瞣":{"x_min":0,"x_max":0,"ha":2083},"爔":{"x_min":0,"x_max":0,"ha":2083},"搬":{"x_min":0,"x_max":0,"ha":2083},"銎":{"x_min":0,"x_max":0,"ha":2083},"笭":{"x_min":0,"x_max":0,"ha":2083},"鮢":{"x_min":0,"x_max":0,"ha":2083},"徑":{"x_min":0,"x_max":0,"ha":2083},"袼":{"x_min":0,"x_max":0,"ha":2083},"釗":{"x_min":0,"x_max":0,"ha":2083},"蟿":{"x_min":0,"x_max":0,"ha":2083},"駝":{"x_min":0,"x_max":0,"ha":2083},"錖":{"x_min":0,"x_max":0,"ha":2083},"鉀":{"x_min":0,"x_max":0,"ha":2083},"讂":{"x_min":0,"x_max":0,"ha":2083},"坽":{"x_min":0,"x_max":0,"ha":2083},"雍":{"x_min":0,"x_max":0,"ha":2083},"澂":{"x_min":0,"x_max":0,"ha":2083},"揀":{"x_min":0,"x_max":0,"ha":2083},"徟":{"x_min":0,"x_max":0,"ha":2083},"岩":{"x_min":0,"x_max":0,"ha":2083},"斗":{"x_min":0,"x_max":0,"ha":2083},"蓬":{"x_min":0,"x_max":0,"ha":2083},"綮":{"x_min":0,"x_max":0,"ha":2083},"祤":{"x_min":0,"x_max":0,"ha":2083},"醝":{"x_min":0,"x_max":0,"ha":2083},"囝":{"x_min":244.140625,"x_max":2033.921875,"ha":2083,"o":"m 1711 826 q 1772 823 1738 838 q 1782 816 1778 821 q 1779 786 1784 812 q 1774 743 1775 764 q 1737 613 1774 684 q 1719 594 1726 599 q 1688 609 1698 579 q 1676 622 1684 615 q 1652 646 1652 644 l 1653 652 q 1681 644 1656 653 l 1690 641 q 1718 646 1710 638 q 1737 732 1734 670 q 1740 790 1744 759 q 1704 801 1729 808 q 1647 796 1676 800 q 1626 774 1626 793 l 1634 579 l 1634 499 q 1627 470 1633 484 q 1603 486 1609 455 q 1600 562 1596 508 l 1603 609 l 1603 682 l 1596 769 q 1569 785 1595 789 l 1497 773 q 1462 788 1483 771 q 1489 802 1458 801 q 1711 826 1599 812 m 1851 508 q 1874 495 1851 515 l 1917 450 q 1969 450 1943 428 q 2023 507 1997 478 q 2033 512 2030 512 q 2029 486 2035 512 l 1976 385 q 1920 368 1949 332 l 1851 508 m 1756 362 q 1805 360 1791 367 q 1802 332 1826 348 l 1698 329 q 1680 326 1688 326 q 1666 316 1661 326 q 1662 280 1672 306 l 1653 253 q 1668 233 1643 230 q 1717 238 1691 237 q 1757 234 1745 242 q 1790 192 1782 225 q 1741 86 1761 145 q 1710 35 1727 61 q 1684 12 1698 14 q 1675 14 1676 12 q 1737 168 1725 105 q 1740 198 1742 189 q 1721 211 1734 208 l 1653 207 q 1620 184 1633 204 q 1479 28 1570 89 q 1449 20 1455 16 q 1470 47 1443 24 q 1584 181 1551 111 q 1572 200 1595 202 q 1501 191 1529 198 q 1470 189 1475 187 q 1467 222 1451 204 q 1502 272 1494 245 q 1493 316 1513 298 q 1466 339 1466 336 q 1474 347 1467 344 q 1756 362 1600 348 m 1604 324 l 1592 322 l 1562 321 q 1539 298 1544 320 q 1521 252 1532 276 q 1519 225 1510 237 q 1547 223 1521 222 l 1582 225 q 1614 250 1604 226 l 1628 305 q 1604 324 1634 325 m 981 923 q 1128 876 1033 944 q 1151 789 1169 838 q 1127 645 1120 725 l 1154 211 q 1159 25 1165 97 q 1086 -191 1144 -109 q 1026 -154 1045 -229 q 1000 -77 1011 -116 q 960 -42 991 -42 q 382 -62 809 -40 q 344 -75 345 -55 q 316 -116 340 -101 q 286 -92 301 -120 q 259 16 242 -32 q 287 233 280 73 l 288 736 q 267 817 283 788 q 244 865 244 859 q 328 859 269 892 q 401 840 364 835 q 819 893 610 869 q 981 923 927 908 m 965 854 q 400 800 698 835 q 360 756 364 794 l 354 668 l 351 20 q 390 -13 349 -13 q 832 21 546 -6 q 992 10 948 37 q 1032 -4 1022 -10 q 1068 127 1071 48 q 1043 794 1068 547 q 965 854 1028 865 m 793 755 q 887 740 834 778 q 933 706 910 728 q 893 660 948 680 q 764 556 831 619 q 745 495 731 522 q 797 472 758 463 q 1003 469 949 516 q 1013 436 1021 455 q 942 424 991 417 q 801 413 872 421 q 771 367 769 408 q 755 153 782 241 q 724 99 750 128 q 646 84 684 43 q 591 165 617 124 q 613 188 557 204 q 699 234 680 157 q 710 367 713 295 q 670 394 710 400 q 520 366 595 382 q 408 396 463 356 q 450 413 409 402 q 665 444 560 421 q 697 465 701 453 q 683 484 690 485 q 675 500 674 492 q 653 533 679 509 q 665 547 621 547 q 732 576 703 539 q 794 660 766 618 q 811 698 817 693 q 759 694 785 705 l 596 648 q 508 680 543 642 q 511 694 505 689 q 576 701 535 703 q 793 755 671 709 "},"迅":{"x_min":0,"x_max":0,"ha":2083},"獲":{"x_min":0,"x_max":0,"ha":2083},"砣":{"x_min":0,"x_max":0,"ha":2083},"穘":{"x_min":0,"x_max":0,"ha":2083},"熱":{"x_min":0,"x_max":0,"ha":2083},"鴨":{"x_min":0,"x_max":0,"ha":2083},"繢":{"x_min":0,"x_max":0,"ha":2083},"灃":{"x_min":0,"x_max":0,"ha":2083},"徊":{"x_min":0,"x_max":0,"ha":2083},"倚":{"x_min":0,"x_max":0,"ha":2083},"式":{"x_min":0,"x_max":0,"ha":2083},"鶇":{"x_min":0,"x_max":0,"ha":2083},"躬":{"x_min":0,"x_max":0,"ha":2083},"鋯":{"x_min":0,"x_max":0,"ha":2083},"汗":{"x_min":0,"x_max":0,"ha":2083},"獯":{"x_min":0,"x_max":0,"ha":2083},"臐":{"x_min":0,"x_max":0,"ha":2083},"贉":{"x_min":0,"x_max":0,"ha":2083},"鶯":{"x_min":0,"x_max":0,"ha":2083},"捙":{"x_min":0,"x_max":0,"ha":2083},"湴":{"x_min":0,"x_max":0,"ha":2083},"鋺":{"x_min":0,"x_max":0,"ha":2083},"帆":{"x_min":0,"x_max":0,"ha":2083},"嚆":{"x_min":0,"x_max":0,"ha":2083},"趡":{"x_min":0,"x_max":0,"ha":2083},"諻":{"x_min":0,"x_max":0,"ha":2083},"彀":{"x_min":0,"x_max":0,"ha":2083},"鈱":{"x_min":0,"x_max":0,"ha":2083},"悆":{"x_min":0,"x_max":0,"ha":2083},"壑":{"x_min":0,"x_max":0,"ha":2083},"荸":{"x_min":0,"x_max":0,"ha":2083},"偕":{"x_min":0,"x_max":0,"ha":2083},"條":{"x_min":0,"x_max":0,"ha":2083},"顩":{"x_min":0,"x_max":0,"ha":2083},"驌":{"x_min":0,"x_max":0,"ha":2083},"鵸":{"x_min":0,"x_max":0,"ha":2083},"緟":{"x_min":0,"x_max":0,"ha":2083},"遰":{"x_min":0,"x_max":0,"ha":2083},"肯":{"x_min":0,"x_max":0,"ha":2083},"盈":{"x_min":0,"x_max":0,"ha":2083},"蔰":{"x_min":0,"x_max":0,"ha":2083},"焙":{"x_min":0,"x_max":0,"ha":2083},"怞":{"x_min":0,"x_max":0,"ha":2083},"燈":{"x_min":0,"x_max":0,"ha":2083},"朽":{"x_min":0,"x_max":0,"ha":2083},"觓":{"x_min":0,"x_max":0,"ha":2083},"玢":{"x_min":0,"x_max":0,"ha":2083},"隸":{"x_min":79.703125,"x_max":2015.640625,"ha":2083,"o":"m 1635 838 q 1677 823 1656 845 q 1665 792 1680 816 q 1652 762 1656 777 q 1665 740 1645 740 q 1718 743 1691 740 q 1761 744 1742 745 q 1782 716 1784 732 q 1763 613 1770 668 q 1711 485 1745 537 q 1654 478 1677 439 l 1643 492 q 1624 518 1622 516 q 1662 511 1635 520 q 1698 526 1684 500 q 1745 680 1733 591 q 1713 721 1759 727 l 1658 717 q 1630 694 1638 716 q 1496 508 1590 585 q 1467 496 1470 495 q 1485 519 1464 497 q 1597 691 1555 596 q 1580 709 1605 712 q 1528 695 1547 709 q 1489 691 1501 675 q 1493 714 1483 706 q 1520 758 1520 729 q 1536 790 1515 783 l 1544 788 q 1547 752 1555 775 q 1546 729 1542 732 q 1574 731 1548 728 l 1592 733 q 1623 763 1612 737 q 1633 817 1637 800 q 1635 838 1630 834 m 1883 495 q 1921 492 1904 515 q 2001 394 1962 444 q 2015 367 2016 370 q 1883 455 1968 391 q 1883 495 1862 473 m 1742 238 q 1799 236 1760 245 q 1821 221 1814 230 q 1816 207 1827 214 q 1790 204 1808 200 l 1732 207 l 1666 207 q 1563 198 1615 204 q 1486 183 1525 188 q 1445 199 1470 183 q 1433 219 1430 215 q 1463 221 1437 222 q 1512 219 1485 215 l 1717 233 q 1742 238 1732 231 m 341 998 q 412 981 360 1011 q 429 925 434 965 q 423 843 424 884 q 463 820 423 811 q 585 824 511 847 q 541 778 603 790 l 461 760 q 423 725 423 755 l 421 507 q 390 458 424 469 q 347 558 339 500 q 363 610 359 585 q 335 606 363 641 q 120 440 241 477 q 147 474 111 444 q 336 710 279 581 q 301 729 348 740 q 215 729 273 716 q 208 769 161 759 l 333 789 q 370 826 370 796 q 355 950 375 896 q 341 998 336 994 m 817 976 q 930 961 862 1005 q 949 899 969 944 l 941 842 q 975 812 935 805 q 1021 828 998 815 q 1189 777 1100 862 q 1159 731 1190 769 l 1147 708 q 1177 680 1135 672 q 1314 625 1247 697 q 1260 599 1311 591 l 1144 602 q 1100 558 1114 603 q 1095 542 1100 550 q 1094 500 1083 504 q 1116 461 1132 484 l 971 434 q 935 397 935 428 l 935 340 q 964 275 935 307 q 1034 278 991 242 q 1087 356 1066 309 q 1116 396 1108 397 q 1204 324 1181 360 q 1162 301 1204 317 q 1053 237 1100 259 q 1043 184 1011 219 q 1296 17 1158 52 q 1257 -2 1302 12 l 1162 -18 q 1083 16 1121 -20 q 964 219 1021 109 q 935 222 935 260 l 934 -67 q 892 -176 929 -130 q 846 -187 864 -203 q 778 -70 815 -128 q 741 -14 736 -18 q 794 -32 747 -13 q 861 13 862 -80 l 864 138 q 831 138 864 170 q 752 61 792 101 q 702 12 712 10 q 652 50 678 25 q 665 107 626 89 q 828 188 722 120 q 866 248 865 211 l 869 382 q 828 410 869 415 q 717 406 754 393 q 709 429 697 420 q 747 440 720 435 q 836 461 792 453 q 869 501 869 469 l 869 543 q 828 568 869 576 q 679 530 754 552 q 625 547 652 526 q 602 577 598 572 q 836 622 717 596 q 870 663 870 630 l 870 716 q 830 739 870 748 l 748 717 q 680 744 695 712 q 721 764 680 751 l 836 785 q 865 832 869 792 q 839 930 862 889 q 817 976 816 971 m 1005 770 q 971 767 990 771 q 935 729 935 760 l 935 675 q 976 648 935 642 l 1013 655 q 1052 699 1048 661 l 1053 720 q 1005 770 1067 773 m 473 661 q 488 697 447 701 q 595 585 603 671 q 561 581 583 571 q 473 661 514 603 m 998 596 l 968 592 q 935 552 935 584 l 935 514 q 976 488 935 481 l 988 491 q 1024 528 1025 499 l 1032 565 q 998 596 1040 599 m 420 440 q 507 435 463 451 q 488 394 530 415 q 379 373 439 378 q 271 360 306 356 q 211 386 227 368 q 212 400 208 394 q 420 440 324 412 m 690 307 q 705 345 660 348 q 783 318 752 343 q 815 245 823 284 q 690 307 777 200 m 499 328 q 625 291 577 348 q 610 263 633 272 q 419 249 495 259 q 390 222 382 244 q 389 139 393 183 q 382 -92 383 25 q 363 -187 386 -139 q 302 -145 326 -206 q 311 -63 282 -107 q 328 33 328 -36 q 316 196 335 142 q 259 225 298 231 q 166 207 212 218 q 122 215 145 206 q 80 245 75 238 q 119 256 92 253 q 499 328 241 263 m 482 123 q 467 169 459 169 q 607 52 561 146 q 599 -31 627 5 q 534 14 561 -46 l 482 123 m 174 90 q 202 146 198 142 q 223 90 223 135 q 215 25 227 52 q 123 -62 174 -61 q 105 -31 103 -54 q 174 90 107 10 "},"剋":{"x_min":0,"x_max":0,"ha":2083},"玾":{"x_min":0,"x_max":0,"ha":2083},"樑":{"x_min":0,"x_max":0,"ha":2083},"嚜":{"x_min":0,"x_max":0,"ha":2083},"莒":{"x_min":0,"x_max":0,"ha":2083},"熹":{"x_min":0,"x_max":0,"ha":2083},"齧":{"x_min":0,"x_max":0,"ha":2083},"笊":{"x_min":0,"x_max":0,"ha":2083},"澕":{"x_min":0,"x_max":0,"ha":2083},"搔":{"x_min":0,"x_max":0,"ha":2083},"鷶":{"x_min":0,"x_max":0,"ha":2083},"餽":{"x_min":0,"x_max":0,"ha":2083},"禂":{"x_min":0,"x_max":0,"ha":2083},"螿":{"x_min":0,"x_max":0,"ha":2083},"編":{"x_min":0,"x_max":0,"ha":2083},"灚":{"x_min":0,"x_max":0,"ha":2083},"姎":{"x_min":0,"x_max":0,"ha":2083},"邘":{"x_min":0,"x_max":0,"ha":2083},"襌":{"x_min":0,"x_max":0,"ha":2083},"施":{"x_min":0,"x_max":0,"ha":2083},"倌":{"x_min":0,"x_max":0,"ha":2083},"瓠":{"x_min":0,"x_max":0,"ha":2083},"苧":{"x_min":0,"x_max":0,"ha":2083},"敲":{"x_min":0,"x_max":0,"ha":2083},"醪":{"x_min":0,"x_max":0,"ha":2083},"諧":{"x_min":0,"x_max":0,"ha":2083},"筱":{"x_min":0,"x_max":0,"ha":2083},"淩":{"x_min":0,"x_max":0,"ha":2083},"頯":{"x_min":0,"x_max":0,"ha":2083},"菴":{"x_min":0,"x_max":0,"ha":2083},"怌":{"x_min":0,"x_max":0,"ha":2083},"漂":{"x_min":0,"x_max":0,"ha":2083},"萒":{"x_min":0,"x_max":0,"ha":2083},"騿":{"x_min":0,"x_max":0,"ha":2083},"滸":{"x_min":0,"x_max":0,"ha":2083},"噶":{"x_min":0,"x_max":0,"ha":2083},"荈":{"x_min":0,"x_max":0,"ha":2083},"槷":{"x_min":0,"x_max":0,"ha":2083},"泥":{"x_min":0,"x_max":0,"ha":2083},"鷓":{"x_min":0,"x_max":0,"ha":2083},"踟":{"x_min":0,"x_max":0,"ha":2083},"捂":{"x_min":0,"x_max":0,"ha":2083},"姷":{"x_min":0,"x_max":0,"ha":2083},"婠":{"x_min":58.328125,"x_max":1794.4375,"ha":2083,"o":"m 1567 965 q 1577 971 1570 971 q 1607 952 1592 967 q 1608 926 1622 945 q 1509 794 1581 882 q 1515 748 1497 775 q 1589 671 1558 710 q 1599 649 1600 657 q 1569 640 1589 625 q 1536 684 1551 661 q 1472 762 1521 713 q 1477 788 1462 773 q 1562 915 1543 880 q 1567 941 1569 927 q 1567 965 1565 950 m 1725 957 q 1764 935 1751 957 q 1748 904 1767 930 l 1666 808 q 1666 758 1633 778 q 1717 708 1694 733 q 1745 655 1746 676 q 1707 659 1730 633 q 1620 773 1671 725 q 1635 807 1618 778 q 1708 908 1679 861 q 1721 938 1722 933 q 1725 957 1714 952 m 1713 547 q 1732 556 1715 564 q 1738 501 1787 527 q 1698 461 1718 484 q 1703 428 1677 443 q 1761 393 1733 412 q 1794 364 1793 368 q 1752 348 1786 322 q 1677 408 1727 377 q 1633 409 1653 424 q 1456 328 1543 348 q 1479 345 1455 332 q 1607 424 1558 386 q 1603 454 1628 439 l 1525 496 q 1500 515 1496 514 q 1529 509 1512 516 q 1628 465 1580 489 q 1671 476 1650 455 q 1713 547 1713 518 m 1459 184 q 1510 196 1485 221 q 1607 111 1559 151 q 1653 112 1628 93 q 1736 189 1696 142 q 1787 188 1756 222 q 1765 160 1793 172 q 1664 86 1727 136 q 1643 44 1643 70 l 1647 -101 q 1628 -138 1643 -134 q 1609 -123 1618 -139 q 1604 -84 1597 -103 q 1612 44 1614 -20 q 1593 85 1612 65 q 1485 162 1538 135 q 1459 184 1459 180 m 322 961 q 355 968 333 981 q 409 930 387 952 q 436 876 447 897 l 330 558 q 360 534 318 523 l 425 553 q 458 603 459 561 q 450 652 448 645 q 527 629 474 676 q 550 542 569 584 q 519 442 537 514 q 451 227 491 326 q 472 162 436 189 q 562 -10 603 73 q 466 33 519 -42 l 427 85 q 368 84 396 120 q 92 -66 219 -80 q 124 -33 85 -63 q 326 138 233 23 q 316 203 348 170 q 240 275 278 244 q 203 359 192 316 l 215 394 q 180 408 226 425 q 81 438 143 390 q 58 467 61 450 q 101 484 66 486 q 218 499 160 488 q 263 552 250 511 q 330 904 321 739 q 322 961 318 953 m 823 914 q 845 953 800 954 q 975 819 977 935 q 946 788 976 793 q 839 887 903 786 l 823 914 m 1118 755 q 1288 713 1181 808 q 1315 679 1310 695 q 1307 659 1317 667 q 1147 588 1219 626 q 1102 579 1106 572 q 1120 640 1109 609 q 1116 684 1136 671 q 748 626 939 672 q 699 587 716 627 q 637 488 687 535 q 591 541 576 474 q 617 595 595 562 q 657 676 640 625 q 682 727 675 729 q 713 689 708 710 q 748 674 720 668 q 956 716 850 697 q 1118 755 1040 725 m 1005 556 q 1086 537 1037 565 q 1133 481 1125 512 q 1091 447 1132 474 q 1053 404 1070 428 q 1048 366 1034 377 q 1060 349 1059 356 q 1007 328 1062 340 q 834 302 920 317 q 798 259 801 299 l 798 214 q 839 185 798 181 q 1043 234 976 210 q 1124 218 1072 248 q 1188 154 1166 200 q 1144 100 1189 143 q 1109 40 1124 75 q 1113 0 1094 8 q 1133 -25 1133 -16 q 1060 -47 1121 -47 l 817 -66 q 778 -97 782 -66 q 754 -173 774 -146 q 709 -74 706 -139 q 729 375 740 134 q 705 484 725 440 q 750 522 691 546 q 771 507 766 512 q 816 508 775 501 q 1005 556 942 527 m 402 488 l 375 480 l 326 463 q 276 410 294 451 l 254 347 q 287 280 248 313 l 345 246 q 394 271 377 226 q 450 469 435 367 q 402 488 454 501 m 960 499 q 834 470 901 491 q 801 429 801 462 l 801 375 q 842 349 801 343 l 935 368 q 984 404 973 375 q 995 448 992 425 q 960 499 1018 507 m 988 169 l 828 138 q 793 99 796 139 l 789 8 q 830 -17 789 -24 l 992 5 q 1033 42 1028 10 q 1047 141 1043 90 q 988 169 1044 180 "},"犐":{"x_min":0,"x_max":0,"ha":2083},"揇":{"x_min":0,"x_max":0,"ha":2083},"黠":{"x_min":0,"x_max":0,"ha":2083},"氨":{"x_min":0,"x_max":0,"ha":2083},"鴶":{"x_min":0,"x_max":0,"ha":2083},"釐":{"x_min":0,"x_max":0,"ha":2083},"懘":{"x_min":0,"x_max":0,"ha":2083},"帡":{"x_min":0,"x_max":0,"ha":2083},"凈":{"x_min":0,"x_max":0,"ha":2083},"楠":{"x_min":0,"x_max":0,"ha":2083},"椯":{"x_min":0,"x_max":0,"ha":2083},"猜":{"x_min":0,"x_max":0,"ha":2083},"姅":{"x_min":0,"x_max":0,"ha":2083},"蟘":{"x_min":0,"x_max":0,"ha":2083},"燊":{"x_min":0,"x_max":0,"ha":2083},"鋨":{"x_min":0,"x_max":0,"ha":2083},"衾":{"x_min":0,"x_max":0,"ha":2083},"縋":{"x_min":0,"x_max":0,"ha":2083},"旐":{"x_min":0,"x_max":0,"ha":2083},"脭":{"x_min":0,"x_max":0,"ha":2083},"梁":{"x_min":0,"x_max":0,"ha":2083},"祹":{"x_min":0,"x_max":0,"ha":2083},"賒":{"x_min":0,"x_max":0,"ha":2083},"潠":{"x_min":0,"x_max":0,"ha":2083},"崔":{"x_min":0,"x_max":0,"ha":2083},"腊":{"x_min":0,"x_max":0,"ha":2083},"觚":{"x_min":0,"x_max":0,"ha":2083},"礤":{"x_min":0,"x_max":0,"ha":2083},"凐":{"x_min":0,"x_max":0,"ha":2083},"劃":{"x_min":0,"x_max":0,"ha":2083},"酇":{"x_min":0,"x_max":0,"ha":2083},"擻":{"x_min":0,"x_max":0,"ha":2083},"骻":{"x_min":0,"x_max":0,"ha":2083},"痏":{"x_min":0,"x_max":0,"ha":2083},"觡":{"x_min":0,"x_max":0,"ha":2083},"摰":{"x_min":0,"x_max":0,"ha":2083},"聊":{"x_min":0,"x_max":0,"ha":2083},"泮":{"x_min":0,"x_max":0,"ha":2083},"剁":{"x_min":0,"x_max":0,"ha":2083},"嬋":{"x_min":0,"x_max":0,"ha":2083},"暄":{"x_min":0,"x_max":0,"ha":2083},"啊":{"x_min":76.921875,"x_max":2036.375,"ha":2083,"o":"m 1869 695 q 1879 706 1855 724 q 1930 653 1902 680 q 1976 661 1950 637 l 2015 701 q 2034 698 2042 727 q 1980 596 2008 648 q 1942 566 1969 561 q 1920 592 1926 576 q 1869 695 1893 644 m 1732 583 q 1756 609 1751 609 q 1780 598 1763 609 q 1782 566 1799 585 q 1661 480 1730 535 q 1642 438 1641 463 l 1646 292 q 1635 242 1649 265 q 1609 252 1620 230 q 1603 290 1599 269 q 1612 440 1612 367 q 1589 481 1612 459 q 1485 562 1543 527 q 1456 585 1455 580 q 1509 595 1481 625 q 1603 509 1555 552 q 1647 504 1627 486 q 1732 583 1700 545 m 534 801 q 638 869 591 821 q 727 835 676 866 q 764 796 764 802 q 636 640 670 716 q 637 585 629 619 q 679 477 653 531 q 699 391 705 419 q 651 316 683 332 q 617 360 645 317 q 530 447 600 387 q 535 457 528 454 l 569 446 q 618 440 613 435 q 613 486 619 446 l 592 581 q 622 737 580 636 q 629 786 634 781 q 583 773 623 786 l 546 759 q 511 716 511 747 l 511 -59 q 476 -126 509 -116 q 438 -13 421 -69 q 457 271 455 66 l 455 604 q 438 740 451 702 q 421 797 410 792 q 461 796 438 802 q 534 801 488 783 m 1177 805 q 1312 794 1258 830 q 1330 745 1342 775 q 1265 732 1308 728 q 1158 725 1212 731 q 1146 699 1120 722 q 1158 634 1169 679 q 1158 345 1155 492 q 1171 0 1170 127 q 1142 -108 1170 -51 q 1067 -134 1104 -174 q 987 -25 1030 -80 q 939 31 939 24 q 981 25 941 37 q 1071 6 1045 -2 q 1099 107 1095 32 q 1093 499 1109 360 q 1064 679 1091 587 q 1013 702 1056 710 q 914 682 964 694 q 751 667 819 645 q 710 699 703 691 q 737 712 716 706 q 1177 805 900 721 m 306 657 q 400 649 347 689 q 412 565 439 615 q 366 439 383 516 q 371 401 359 410 q 383 374 393 382 q 362 364 378 368 q 231 341 297 355 q 196 318 199 339 q 162 291 195 272 q 142 378 141 313 q 96 595 132 508 q 80 638 69 625 q 174 619 127 651 q 223 621 183 609 q 306 657 275 637 m 316 591 q 221 579 292 604 q 189 531 188 572 q 198 412 196 472 q 242 391 199 381 l 267 398 q 303 450 299 409 l 317 558 q 316 591 318 585 m 922 561 q 979 550 942 572 q 1010 457 1072 504 q 973 381 988 424 q 969 343 963 348 q 981 318 980 336 q 935 299 972 301 q 858 286 897 295 q 820 271 823 287 q 793 259 817 238 q 779 309 778 271 q 748 488 777 412 q 729 534 724 530 q 766 537 735 537 q 820 531 808 528 q 922 561 881 543 m 918 463 q 862 501 925 523 q 824 455 824 488 l 824 358 q 865 337 824 325 q 878 341 872 337 q 911 387 910 352 q 918 463 912 425 "},"琢":{"x_min":0,"x_max":0,"ha":2083},"泜":{"x_min":0,"x_max":0,"ha":2083},"捧":{"x_min":0,"x_max":0,"ha":2083},"醲":{"x_min":0,"x_max":0,"ha":2083},"攲":{"x_min":0,"x_max":0,"ha":2083},"蛄":{"x_min":0,"x_max":0,"ha":2083},"瘑":{"x_min":0,"x_max":0,"ha":2083},"楎":{"x_min":0,"x_max":0,"ha":2083},"鄆":{"x_min":0,"x_max":0,"ha":2083},"癹":{"x_min":0,"x_max":0,"ha":2083},"纂":{"x_min":0,"x_max":0,"ha":2083},"犢":{"x_min":0,"x_max":0,"ha":2083},"含":{"x_min":0,"x_max":0,"ha":2083},"疺":{"x_min":0,"x_max":0,"ha":2083},"楩":{"x_min":0,"x_max":0,"ha":2083},"水":{"x_min":0,"x_max":0,"ha":2083},"場":{"x_min":0,"x_max":0,"ha":2083},"蛖":{"x_min":0,"x_max":0,"ha":2083},"螬":{"x_min":0,"x_max":0,"ha":2083},"舸":{"x_min":0,"x_max":0,"ha":2083},"淕":{"x_min":0,"x_max":0,"ha":2083},"愮":{"x_min":0,"x_max":0,"ha":2083},"槆":{"x_min":0,"x_max":0,"ha":2083},"裀":{"x_min":0,"x_max":0,"ha":2083},"薳":{"x_min":0,"x_max":0,"ha":2083},"鈸":{"x_min":0,"x_max":0,"ha":2083},"泰":{"x_min":112.5,"x_max":2038.6875,"ha":2083,"o":"m 1631 851 q 1666 840 1646 861 q 1672 809 1677 823 q 1639 714 1658 759 q 1656 695 1631 694 q 1784 706 1721 699 q 1836 698 1810 717 q 1837 672 1854 687 q 1809 675 1835 671 q 1643 675 1768 687 q 1612 648 1623 674 q 1582 579 1596 614 q 1570 549 1571 557 q 1596 535 1571 531 q 1704 552 1650 542 q 1711 580 1726 556 q 1699 611 1695 611 q 1752 572 1718 610 q 1784 492 1802 519 q 1768 495 1778 485 l 1752 515 q 1718 533 1740 535 l 1620 518 q 1569 504 1600 515 q 1531 530 1539 501 q 1539 553 1531 541 q 1589 649 1565 585 q 1571 668 1596 671 q 1508 655 1539 663 q 1455 670 1479 642 q 1474 686 1447 682 l 1584 691 q 1614 717 1604 691 q 1631 823 1639 778 q 1631 851 1628 849 m 1907 495 q 1944 492 1927 515 q 2025 394 1985 444 q 2038 367 2039 370 q 1907 455 1991 391 q 1907 495 1885 473 m 1517 348 q 1793 364 1643 348 q 1826 356 1813 366 q 1810 330 1836 337 l 1745 330 l 1695 326 q 1680 314 1675 326 q 1675 275 1685 303 l 1666 252 q 1684 234 1658 231 l 1730 238 q 1803 198 1779 248 q 1789 165 1805 191 q 1768 115 1778 146 q 1713 20 1753 69 q 1690 14 1698 9 q 1703 43 1688 17 q 1755 195 1751 126 q 1742 210 1753 204 q 1713 208 1734 211 l 1666 207 q 1633 179 1646 204 q 1481 23 1585 82 q 1460 23 1464 13 q 1483 47 1459 27 q 1595 174 1561 107 q 1586 200 1608 200 q 1493 187 1536 198 q 1477 198 1485 185 q 1494 237 1468 212 q 1517 282 1513 254 q 1500 320 1519 303 q 1482 343 1481 339 q 1517 348 1491 351 m 1618 324 l 1604 322 l 1581 321 q 1553 294 1561 320 q 1534 248 1544 272 q 1532 225 1524 238 q 1555 222 1535 222 l 1599 225 q 1628 253 1620 227 l 1642 303 q 1618 324 1646 325 m 590 1026 q 634 1033 592 1038 q 708 1003 671 1021 q 728 933 744 976 l 713 882 q 747 858 705 849 q 840 882 792 868 q 946 892 888 901 q 990 865 991 877 q 929 831 980 840 l 721 797 q 675 751 687 792 l 667 727 q 698 701 657 694 q 808 722 751 709 q 925 721 891 741 q 882 675 944 674 l 675 640 q 621 595 640 634 l 604 554 q 630 528 590 519 q 941 588 783 556 q 1064 572 1010 604 q 1071 515 1105 543 q 831 500 952 509 q 835 465 800 497 q 1296 202 1068 246 q 1334 176 1348 184 q 1121 139 1241 150 q 1033 150 1063 128 q 968 218 1011 165 q 897 214 941 248 q 750 136 836 157 q 775 180 737 139 q 842 306 835 246 q 872 311 851 322 q 889 310 888 305 q 754 491 797 439 q 595 470 675 485 q 538 424 562 466 q 455 301 488 339 q 467 260 427 265 q 568 180 537 253 q 561 132 580 151 q 434 214 497 130 q 371 208 408 245 q 136 74 240 99 q 142 108 85 73 q 461 421 320 200 q 429 443 476 453 q 284 442 362 416 q 254 477 241 467 q 294 484 267 482 q 467 500 383 486 q 520 547 500 507 l 539 591 q 507 617 550 621 q 434 619 459 610 q 394 642 393 634 q 457 657 409 653 l 534 670 q 580 717 569 678 l 588 747 q 550 771 595 777 q 410 767 480 756 q 367 794 368 788 q 413 808 370 804 l 571 827 q 610 873 603 832 q 590 1026 623 948 m 607 379 q 653 377 613 386 q 718 333 689 366 q 710 291 725 316 q 703 233 703 265 q 712 20 699 103 q 684 -180 733 -69 q 622 -188 651 -222 l 545 -80 q 520 -37 512 -42 q 581 -55 549 -42 q 644 -10 645 -92 l 644 260 q 627 332 641 297 q 607 379 603 375 m 339 -1 q 547 78 416 14 q 594 86 588 92 q 552 47 592 81 q 402 -80 477 -10 q 335 -70 377 -115 q 297 -23 313 -51 q 339 -1 298 -16 m 785 50 q 785 84 740 86 q 986 21 907 66 q 1045 -46 1043 -4 q 971 -93 1048 -123 q 855 -6 912 -66 q 785 50 820 24 "},"匼":{"x_min":0,"x_max":0,"ha":2083},"訧":{"x_min":0,"x_max":0,"ha":2083},"櫯":{"x_min":0,"x_max":0,"ha":2083},"愣":{"x_min":0,"x_max":0,"ha":2083},"偌":{"x_min":0,"x_max":0,"ha":2083},"匕":{"x_min":0,"x_max":0,"ha":2083},"荏":{"x_min":0,"x_max":0,"ha":2083},"櫃":{"x_min":0,"x_max":0,"ha":2083},"寧":{"x_min":0,"x_max":0,"ha":2083},"碲":{"x_min":0,"x_max":0,"ha":2083},"跅":{"x_min":0,"x_max":0,"ha":2083},"肓":{"x_min":0,"x_max":0,"ha":2083},"哈":{"x_min":0,"x_max":0,"ha":2083},"缾":{"x_min":0,"x_max":0,"ha":2083},"楓":{"x_min":0,"x_max":0,"ha":2083},"揎":{"x_min":0,"x_max":0,"ha":2083},"肌":{"x_min":0,"x_max":0,"ha":2083},"何":{"x_min":0,"x_max":0,"ha":2083},"鬻":{"x_min":0,"x_max":0,"ha":2083},"凶":{"x_min":0,"x_max":0,"ha":2083},"輶":{"x_min":0,"x_max":0,"ha":2083},"澺":{"x_min":0,"x_max":0,"ha":2083},"耛":{"x_min":0,"x_max":0,"ha":2083},"襡":{"x_min":0,"x_max":0,"ha":2083},"忸":{"x_min":0,"x_max":0,"ha":2083},"覜":{"x_min":0,"x_max":0,"ha":2083},"佈":{"x_min":0,"x_max":0,"ha":2083},"d":{"x_min":67.5625,"x_max":713.484375,"ha":742,"o":"m 579 877 q 625 865 625 900 q 627 59 623 462 q 670 24 640 31 q 713 -4 714 17 q 670 -20 710 -20 l 583 -20 q 541 1 541 -20 q 500 -2 541 23 q 284 -31 408 -59 q 96 128 162 -5 q 70 333 58 215 q 283 607 100 546 q 509 569 409 632 q 542 577 542 545 l 542 737 q 469 801 546 802 q 427 823 427 802 q 467 845 427 843 q 579 877 523 850 m 341 557 q 177 391 207 528 q 180 146 141 229 q 366 12 245 14 q 504 55 432 4 q 541 116 541 86 l 541 440 q 500 509 541 473 q 341 557 425 564 "},"鷡":{"x_min":0,"x_max":0,"ha":2083},"驢":{"x_min":0,"x_max":0,"ha":2083},"蝩":{"x_min":0,"x_max":0,"ha":2083},"扊":{"x_min":0,"x_max":0,"ha":2083},"承":{"x_min":0,"x_max":0,"ha":2083},"裊":{"x_min":0,"x_max":0,"ha":2083},"鎎":{"x_min":0,"x_max":0,"ha":2083},"麝":{"x_min":0,"x_max":0,"ha":2083},"窖":{"x_min":0,"x_max":0,"ha":2083},"筄":{"x_min":0,"x_max":0,"ha":2083},"蕃":{"x_min":0,"x_max":0,"ha":2083},"杈":{"x_min":0,"x_max":0,"ha":2083},"晒":{"x_min":0,"x_max":0,"ha":2083},"醹":{"x_min":0,"x_max":0,"ha":2083},"紙":{"x_min":0,"x_max":0,"ha":2083},"鋆":{"x_min":0,"x_max":0,"ha":2083},"毘":{"x_min":0,"x_max":0,"ha":2083},"喌":{"x_min":0,"x_max":0,"ha":2083},"禮":{"x_min":0,"x_max":0,"ha":2083},"嫚":{"x_min":0,"x_max":0,"ha":2083},"詑":{"x_min":0,"x_max":0,"ha":2083},"焄":{"x_min":0,"x_max":0,"ha":2083},"姩":{"x_min":0,"x_max":0,"ha":2083},"摋":{"x_min":0,"x_max":0,"ha":2083},"淜":{"x_min":0,"x_max":0,"ha":2083},"取":{"x_min":0,"x_max":0,"ha":2083},"濦":{"x_min":0,"x_max":0,"ha":2083},"範":{"x_min":0,"x_max":0,"ha":2083},"珧":{"x_min":0,"x_max":0,"ha":2083},"騔":{"x_min":0,"x_max":0,"ha":2083},"襹":{"x_min":0,"x_max":0,"ha":2083},"贗":{"x_min":0,"x_max":0,"ha":2083},"叭":{"x_min":0,"x_max":0,"ha":2083},"狫":{"x_min":0,"x_max":0,"ha":2083},"抆":{"x_min":0,"x_max":0,"ha":2083},"弰":{"x_min":0,"x_max":0,"ha":2083},"魌":{"x_min":0,"x_max":0,"ha":2083},"_":{"x_min":1.359375,"x_max":690.375,"ha":694,"o":"m 1 -204 q 42 -174 1 -174 l 648 -174 q 690 -202 690 -174 q 649 -231 690 -231 l 42 -231 q 1 -204 1 -231 "},"當":{"x_min":179.4375,"x_max":2043.40625,"ha":2083,"o":"m 1616 851 q 1652 840 1631 861 q 1657 809 1662 823 q 1624 714 1643 759 q 1641 695 1616 694 q 1770 706 1706 699 q 1821 698 1795 717 q 1822 672 1839 687 q 1794 675 1820 671 q 1628 675 1753 687 q 1597 648 1608 674 q 1567 579 1581 614 q 1555 549 1557 557 q 1581 535 1557 531 q 1689 552 1635 542 q 1696 580 1711 556 q 1684 611 1680 611 q 1737 572 1703 610 q 1770 492 1787 519 q 1753 495 1763 485 l 1737 515 q 1703 533 1725 535 l 1605 518 q 1554 504 1585 515 q 1516 530 1524 501 q 1524 553 1516 541 q 1574 649 1550 585 q 1557 668 1581 671 q 1493 655 1524 663 q 1440 670 1464 642 q 1459 686 1432 682 l 1569 691 q 1599 717 1589 691 q 1616 823 1624 778 q 1616 851 1614 849 m 1860 508 q 1883 495 1860 515 l 1927 450 q 1978 450 1953 428 q 2033 507 2007 478 q 2042 512 2039 512 q 2038 486 2045 512 l 1985 385 q 1930 368 1958 332 l 1860 508 m 1605 394 q 1650 393 1622 409 q 1653 355 1661 382 l 1643 292 q 1665 272 1639 272 l 1757 282 q 1784 279 1772 283 q 1797 259 1802 269 q 1742 253 1783 242 q 1664 250 1698 254 q 1657 225 1641 248 q 1658 212 1660 219 q 1652 96 1650 138 q 1698 51 1652 63 q 1822 61 1732 48 q 1843 35 1851 59 q 1818 23 1835 24 l 1700 23 q 1631 69 1653 25 q 1630 195 1619 104 q 1615 189 1627 215 q 1463 32 1566 93 q 1440 24 1448 18 l 1435 29 q 1459 54 1433 32 q 1599 223 1571 143 q 1580 242 1605 244 q 1515 229 1547 234 q 1468 246 1498 221 q 1466 259 1463 256 q 1498 261 1472 261 q 1590 267 1544 261 q 1615 295 1611 268 l 1619 339 q 1605 394 1624 358 m 594 1024 q 638 1028 598 1030 q 733 984 678 1022 q 743 925 778 960 q 714 763 714 863 q 755 735 714 731 q 1067 794 952 756 q 1148 812 1121 820 q 1257 745 1194 798 q 1242 675 1308 702 q 1047 566 1180 653 q 1034 575 1040 568 q 1090 713 1081 665 q 1048 727 1082 736 q 412 641 751 709 q 339 632 375 633 q 292 594 306 636 q 275 550 282 572 q 218 474 252 493 q 185 482 204 467 q 199 585 168 523 q 252 694 244 656 q 276 743 267 747 q 309 697 301 728 q 355 676 314 670 l 622 716 q 653 762 655 721 q 636 945 652 870 q 610 996 627 972 q 594 1024 590 1015 m 911 979 q 945 977 930 987 q 1018 933 984 961 q 988 892 1028 919 q 828 800 897 824 q 781 790 788 788 q 813 835 774 798 q 900 942 878 892 q 911 979 907 975 m 410 865 q 423 911 379 912 q 527 870 493 899 q 554 782 565 824 q 523 766 546 760 q 410 865 469 781 m 796 632 q 919 599 851 659 q 948 556 946 577 q 903 530 944 549 q 889 520 896 523 q 869 476 853 484 q 892 448 896 465 q 849 431 884 429 q 583 400 716 417 q 550 385 550 398 q 528 355 556 354 q 503 405 515 364 q 428 575 473 512 q 470 583 438 595 q 524 575 505 573 q 796 632 674 592 m 769 583 q 568 541 693 573 q 542 493 534 534 l 545 466 q 592 444 547 436 q 752 473 672 461 q 804 522 785 478 q 809 572 813 565 q 769 583 801 581 m 904 373 q 1038 340 957 394 q 1055 261 1106 301 q 1034 147 1030 221 q 965 -150 1029 -47 q 918 -191 938 -183 q 873 -153 897 -193 q 844 -105 862 -130 q 781 -73 819 -69 q 526 -99 653 -84 q 488 -122 493 -100 q 459 -143 484 -151 q 429 -100 439 -135 q 375 225 419 92 q 344 279 370 244 q 337 301 337 292 q 389 309 340 309 q 427 301 408 307 q 470 295 443 291 q 904 373 684 324 m 876 297 l 739 283 q 720 265 706 278 q 741 230 741 248 q 724 184 731 207 q 764 177 724 169 q 846 180 800 189 q 872 147 877 169 q 828 118 863 113 l 751 107 q 714 62 716 101 l 714 14 q 755 -13 714 -17 q 888 -17 854 6 q 912 -9 899 -27 q 927 36 922 9 q 938 214 938 139 q 876 297 950 291 m 595 265 l 490 253 q 467 206 459 249 q 495 -17 489 86 q 541 -40 496 -47 l 622 -31 q 653 14 655 -25 l 653 59 q 615 88 652 88 q 522 108 571 85 q 523 126 511 116 q 562 135 535 131 l 614 143 q 646 191 649 151 l 641 237 q 595 265 636 269 "},"熪":{"x_min":0,"x_max":0,"ha":2083},"岍":{"x_min":0,"x_max":0,"ha":2083},"綜":{"x_min":94.59375,"x_max":1829.828125,"ha":2083,"o":"m 1730 961 q 1798 954 1763 977 q 1803 938 1806 949 q 1793 888 1798 926 q 1753 759 1790 820 q 1708 762 1723 724 q 1685 786 1699 775 q 1672 804 1666 796 q 1699 798 1673 808 q 1729 792 1719 792 q 1751 836 1751 807 q 1760 908 1757 872 q 1753 933 1763 922 q 1713 937 1742 942 l 1666 931 q 1645 910 1645 929 l 1653 732 l 1653 664 q 1639 630 1653 637 q 1620 653 1634 629 q 1618 671 1618 661 q 1622 764 1616 712 l 1622 830 l 1615 904 q 1588 920 1614 925 l 1516 908 q 1490 915 1509 906 q 1479 927 1478 920 q 1506 938 1481 931 l 1706 958 q 1730 961 1718 958 m 1736 558 q 1764 554 1746 568 q 1782 530 1779 541 q 1755 503 1780 523 l 1718 466 q 1719 434 1698 447 q 1791 391 1759 413 q 1814 366 1813 371 q 1775 352 1806 328 q 1723 394 1756 371 l 1698 413 q 1653 415 1673 429 q 1477 333 1553 347 q 1500 351 1474 336 q 1627 429 1570 387 q 1623 459 1649 444 l 1546 501 q 1520 522 1515 519 q 1550 515 1531 522 l 1647 473 q 1694 484 1671 462 q 1729 533 1715 504 q 1736 558 1733 545 m 1643 207 q 1672 206 1649 211 q 1702 169 1702 191 q 1681 136 1702 165 l 1551 -39 q 1539 -63 1536 -59 q 1557 -69 1544 -70 q 1761 -46 1654 -62 q 1817 -54 1791 -39 q 1812 -84 1844 -77 q 1521 -107 1681 -65 q 1489 -109 1496 -115 q 1501 -54 1464 -74 q 1622 105 1566 4 q 1649 176 1653 153 q 1643 207 1642 206 m 850 945 q 866 987 827 988 q 967 948 916 984 q 1005 824 1032 892 q 930 834 977 794 q 850 945 892 873 m 310 887 q 321 938 313 935 q 415 868 378 925 q 408 813 429 843 q 246 546 354 732 q 264 516 225 511 q 336 528 298 524 q 393 577 368 534 q 429 718 429 642 q 477 710 447 736 q 501 588 584 644 q 290 328 393 458 q 313 309 265 295 q 429 337 371 325 q 444 389 462 345 q 438 434 429 432 q 554 290 564 389 q 528 250 552 257 q 491 282 507 250 q 447 299 477 309 q 185 174 286 242 q 151 174 176 166 q 136 246 113 203 q 187 284 147 261 q 325 457 248 325 q 302 481 347 489 q 203 438 252 473 q 119 461 142 371 q 172 533 112 497 q 242 641 207 562 q 310 887 292 745 m 1135 777 q 1223 789 1182 800 q 1317 722 1264 770 q 1300 674 1341 695 q 1151 598 1220 638 q 1118 617 1102 568 l 1133 657 q 1147 706 1146 684 q 1108 716 1143 717 q 759 664 968 712 q 708 621 727 664 q 611 518 683 539 q 585 534 595 515 q 633 648 579 583 q 664 702 651 667 q 686 750 679 744 q 727 705 712 741 q 769 706 728 699 l 972 741 q 1135 777 1072 756 m 971 566 q 1064 565 1036 585 q 1072 530 1085 547 q 1026 512 1063 516 q 918 488 972 497 q 782 477 834 466 q 731 501 727 496 q 754 512 736 508 q 971 566 859 531 m 1049 393 q 1227 406 1159 421 q 1270 375 1257 397 q 1262 347 1280 359 q 954 321 1045 337 q 937 301 919 317 q 949 280 948 286 q 949 -20 952 130 q 939 -161 952 -107 q 887 -179 931 -215 q 863 -56 839 -118 q 892 107 891 -4 q 884 278 899 214 q 832 303 873 310 l 678 279 q 580 313 607 278 q 625 326 584 320 q 1049 393 788 336 m 438 173 q 427 218 419 217 q 546 157 511 193 q 554 105 554 142 q 530 62 553 73 q 458 131 493 62 q 438 173 446 151 m 1086 161 q 1095 200 1049 207 q 1277 70 1208 173 q 1273 -1 1291 24 q 1175 39 1235 -37 q 1086 161 1133 100 m 689 153 q 724 142 706 199 q 678 -29 744 54 q 621 -46 649 -65 q 637 58 594 -4 q 689 153 676 116 m 349 -8 q 288 139 307 55 q 339 120 298 141 q 404 20 417 84 q 379 -24 400 -14 q 349 -8 364 -32 m 169 54 q 188 97 184 94 q 211 56 210 93 q 207 -51 227 -18 q 111 -118 166 -135 q 122 -13 73 -70 q 169 54 150 17 "},"諕":{"x_min":0,"x_max":0,"ha":2083},"窄":{"x_min":205.21875,"x_max":2037.984375,"ha":2083,"o":"m 1597 847 q 1646 821 1631 855 q 1643 796 1649 811 q 1637 672 1635 752 q 1661 649 1635 648 l 1699 651 q 1721 671 1719 651 q 1722 735 1723 702 q 1718 764 1718 756 q 1729 770 1719 770 q 1759 737 1767 760 q 1751 686 1752 708 q 1745 617 1749 636 q 1729 599 1733 599 q 1718 617 1718 602 q 1692 626 1718 626 l 1658 625 q 1635 604 1635 623 l 1635 553 q 1661 533 1635 531 q 1756 537 1730 531 q 1825 526 1793 553 q 1820 499 1839 511 l 1803 501 q 1765 509 1784 507 q 1489 485 1633 511 q 1463 488 1477 484 q 1435 511 1433 508 q 1455 518 1439 522 q 1506 519 1472 512 q 1589 527 1547 524 q 1611 549 1611 528 l 1611 600 q 1585 619 1611 621 q 1504 592 1553 617 q 1487 607 1491 591 q 1496 646 1483 618 q 1498 720 1504 676 q 1491 747 1490 745 q 1515 740 1504 750 q 1528 709 1528 728 q 1524 649 1523 665 q 1558 640 1531 630 l 1588 642 q 1608 671 1609 645 q 1608 682 1609 675 l 1608 758 q 1597 821 1605 801 q 1592 839 1592 834 q 1597 847 1592 845 m 1855 508 q 1878 495 1855 515 l 1921 450 q 1973 450 1947 428 q 2027 507 2001 478 q 2037 512 2034 512 q 2033 486 2039 512 l 1980 385 q 1924 368 1953 332 l 1855 508 m 1497 348 q 1772 364 1623 348 q 1806 356 1793 366 q 1790 330 1816 337 l 1725 330 l 1675 326 q 1660 314 1654 326 q 1654 275 1665 303 l 1646 252 q 1664 234 1638 231 l 1710 238 q 1783 198 1759 248 q 1768 165 1784 191 q 1748 115 1757 146 q 1692 20 1733 69 q 1669 14 1677 9 q 1683 43 1668 17 q 1734 195 1730 126 q 1722 210 1733 204 q 1692 208 1714 211 l 1646 207 q 1612 179 1626 204 q 1460 23 1565 82 q 1440 23 1444 13 q 1463 47 1439 27 q 1574 174 1540 107 q 1566 200 1588 200 q 1472 187 1516 198 q 1456 198 1464 185 q 1474 237 1448 212 q 1497 282 1493 254 q 1479 320 1498 303 q 1462 343 1460 339 q 1497 348 1471 351 m 1597 324 l 1584 322 l 1561 321 q 1532 294 1540 320 q 1513 248 1524 272 q 1512 225 1504 238 q 1535 222 1515 222 l 1578 225 q 1608 253 1600 227 l 1622 303 q 1597 324 1626 325 m 611 986 q 623 1032 576 1032 q 718 1015 676 1032 q 778 934 773 994 q 762 887 786 900 q 611 986 702 874 m 1079 915 q 1188 874 1117 930 q 1227 807 1247 838 q 1165 777 1207 786 q 1032 713 1087 745 q 983 691 991 691 q 1006 736 976 695 l 1034 777 q 1052 826 1056 820 q 1005 830 1045 831 l 835 816 q 824 796 800 813 q 850 767 847 774 q 836 674 827 716 q 933 641 854 636 q 1014 670 979 640 q 1068 674 1030 697 q 1099 625 1105 655 q 1052 594 1091 599 q 906 583 990 580 q 797 619 843 583 q 774 756 763 664 l 770 774 q 720 802 760 808 q 512 770 617 789 q 381 752 419 748 q 332 714 347 755 q 231 588 301 606 q 206 607 215 584 q 242 710 202 659 q 301 819 279 754 q 325 857 318 859 q 355 811 351 839 q 386 794 358 790 q 811 855 596 827 q 1079 915 980 872 m 499 693 q 553 735 514 744 q 610 694 592 720 q 560 644 611 686 q 348 508 448 535 q 379 547 340 511 q 499 693 453 613 m 590 596 q 603 641 598 637 q 667 615 632 645 q 667 541 706 579 q 613 478 637 509 q 623 447 583 443 q 933 507 786 469 q 1071 497 996 538 q 1087 472 1091 480 q 1036 454 1075 458 q 693 404 863 424 q 675 382 665 400 q 682 329 682 368 q 722 291 682 288 q 872 322 819 305 q 953 329 904 337 q 996 306 995 311 q 973 279 998 287 q 756 240 916 257 q 714 241 736 237 q 680 207 682 248 l 680 147 q 721 119 680 115 q 897 153 807 126 q 1022 142 979 177 q 976 101 1026 111 q 884 85 941 90 q 775 70 830 80 q 712 67 751 63 q 679 42 679 74 q 674 -165 679 -59 q 657 -203 665 -192 q 637 -208 648 -212 q 596 -166 614 -200 q 587 -63 572 -123 q 617 170 618 37 q 610 356 623 302 q 584 393 602 393 q 553 397 564 393 q 509 370 545 402 q 238 195 366 240 l 206 191 q 241 226 199 195 q 590 596 485 371 "},"駋":{"x_min":0,"x_max":0,"ha":2083},"叩":{"x_min":0,"x_max":0,"ha":2083},"藿":{"x_min":0,"x_max":0,"ha":2083},"灑":{"x_min":0,"x_max":0,"ha":2083},"摙":{"x_min":0,"x_max":0,"ha":2083},"愚":{"x_min":0,"x_max":0,"ha":2083},"遍":{"x_min":0,"x_max":0,"ha":2083},"郃":{"x_min":0,"x_max":0,"ha":2083},"簹":{"x_min":0,"x_max":0,"ha":2083},"槬":{"x_min":0,"x_max":0,"ha":2083},"槢":{"x_min":0,"x_max":0,"ha":2083},"畀":{"x_min":0,"x_max":0,"ha":2083},"罳":{"x_min":0,"x_max":0,"ha":2083},"弢":{"x_min":0,"x_max":0,"ha":2083},"閔":{"x_min":0,"x_max":0,"ha":2083},"轒":{"x_min":0,"x_max":0,"ha":2083},"晉":{"x_min":0,"x_max":0,"ha":2083},"旮":{"x_min":0,"x_max":0,"ha":2083},"剴":{"x_min":0,"x_max":0,"ha":2083},"餳":{"x_min":0,"x_max":0,"ha":2083},"飣":{"x_min":0,"x_max":0,"ha":2083},"綑":{"x_min":0,"x_max":0,"ha":2083},"撝":{"x_min":0,"x_max":0,"ha":2083},"獦":{"x_min":0,"x_max":0,"ha":2083},"唗":{"x_min":0,"x_max":0,"ha":2083},"虎":{"x_min":0,"x_max":0,"ha":2083},"厄":{"x_min":0,"x_max":0,"ha":2083},"賀":{"x_min":0,"x_max":0,"ha":2083},"瑤":{"x_min":0,"x_max":0,"ha":2083},"璷":{"x_min":0,"x_max":0,"ha":2083},"姲":{"x_min":0,"x_max":0,"ha":2083},"觨":{"x_min":0,"x_max":0,"ha":2083},"鶡":{"x_min":0,"x_max":0,"ha":2083},"棪":{"x_min":0,"x_max":0,"ha":2083},"蜒":{"x_min":0,"x_max":0,"ha":2083},"胜":{"x_min":69.171875,"x_max":1809.359375,"ha":2083,"o":"m 1726 809 q 1786 794 1755 815 q 1793 785 1791 790 q 1779 755 1795 779 q 1760 706 1768 731 q 1710 665 1745 660 q 1578 653 1653 663 q 1554 630 1558 651 q 1525 533 1547 583 q 1444 432 1504 480 q 1426 431 1437 425 q 1445 454 1424 434 q 1523 629 1509 530 q 1519 671 1524 657 q 1513 686 1512 683 q 1542 680 1516 689 q 1576 679 1554 672 q 1704 690 1641 686 q 1726 706 1721 691 q 1740 754 1736 732 q 1718 782 1745 782 l 1538 758 q 1500 764 1525 755 q 1491 783 1485 770 q 1726 809 1628 792 m 1619 363 q 1643 368 1626 378 q 1665 355 1658 362 q 1675 317 1687 333 q 1525 96 1599 207 q 1513 73 1512 75 q 1538 67 1520 65 q 1744 92 1645 74 q 1768 92 1756 93 q 1809 62 1795 93 q 1794 52 1805 51 q 1744 56 1770 52 q 1485 25 1616 62 q 1455 44 1462 14 q 1455 66 1452 59 q 1527 142 1491 94 q 1618 297 1576 212 q 1619 363 1634 318 m 858 957 q 906 961 865 965 q 1002 906 964 945 q 998 828 1013 868 q 969 590 975 731 q 1010 572 969 557 q 1105 596 1076 600 q 1159 580 1132 591 q 1188 553 1175 577 q 1144 530 1185 546 l 1009 503 q 964 446 965 491 l 963 344 q 1003 325 963 311 q 1105 339 1045 354 q 1148 311 1146 320 q 1101 273 1150 299 q 996 250 1072 263 q 961 231 961 242 q 960 75 958 155 q 1000 48 960 43 q 1204 75 1102 65 q 1311 27 1265 73 q 1319 -4 1329 14 q 1254 -20 1300 -25 q 710 -63 1025 12 q 629 -63 670 -82 q 587 -24 584 -31 q 642 -8 594 -14 q 873 29 758 8 q 906 67 906 35 q 904 198 903 132 q 863 226 904 230 q 755 229 804 211 q 716 254 714 248 q 762 271 721 263 q 866 290 812 278 q 903 326 903 297 l 900 447 q 859 474 900 480 l 764 462 q 744 467 752 463 q 713 428 735 472 q 648 336 689 385 q 626 321 634 324 q 630 371 611 320 q 697 702 712 569 q 773 675 724 708 q 812 634 812 640 l 773 550 q 796 520 756 515 l 866 533 q 897 583 899 542 q 869 900 893 774 q 858 957 855 950 m 443 862 q 515 869 476 893 q 564 777 599 836 q 545 695 546 736 q 554 219 545 459 q 539 5 565 93 q 484 -103 524 -56 q 412 -70 447 -141 q 337 37 378 -16 q 309 85 307 78 q 368 67 325 104 q 429 33 404 35 q 469 67 454 32 q 480 337 477 157 q 439 364 480 370 q 344 349 391 359 l 326 349 q 291 311 297 355 q 179 -8 286 135 q 85 -78 128 -65 q 69 -73 71 -78 q 154 42 127 -9 q 237 595 254 259 q 211 845 237 747 q 268 843 231 874 q 348 823 307 817 q 443 862 401 832 m 470 794 q 401 798 457 824 q 348 779 375 792 q 309 739 310 767 q 305 622 305 680 q 347 600 303 591 l 446 630 q 481 660 481 630 q 470 794 484 747 m 432 564 l 405 558 q 333 550 358 546 q 301 509 302 553 l 299 424 q 339 400 298 391 l 448 428 q 481 459 481 427 l 481 541 q 432 564 481 573 "},"甑":{"x_min":0,"x_max":0,"ha":2083},"羝":{"x_min":0,"x_max":0,"ha":2083},"現":{"x_min":0,"x_max":0,"ha":2083},"鹵":{"x_min":0,"x_max":0,"ha":2083},"卌":{"x_min":0,"x_max":0,"ha":2083},"繶":{"x_min":0,"x_max":0,"ha":2083},"縊":{"x_min":0,"x_max":0,"ha":2083},"柺":{"x_min":0,"x_max":0,"ha":2083},"銕":{"x_min":0,"x_max":0,"ha":2083},"梤":{"x_min":0,"x_max":0,"ha":2083},"宙":{"x_min":0,"x_max":0,"ha":2083},"呈":{"x_min":0,"x_max":0,"ha":2083},"芍":{"x_min":0,"x_max":0,"ha":2083},"賜":{"x_min":0,"x_max":0,"ha":2083},"纍":{"x_min":0,"x_max":0,"ha":2083},"坒":{"x_min":0,"x_max":0,"ha":2083},"駔":{"x_min":0,"x_max":0,"ha":2083},"爵":{"x_min":0,"x_max":0,"ha":2083},"鶸":{"x_min":0,"x_max":0,"ha":2083},"鈞":{"x_min":0,"x_max":0,"ha":2083},"祫":{"x_min":0,"x_max":0,"ha":2083},"橯":{"x_min":0,"x_max":0,"ha":2083},"蹬":{"x_min":0,"x_max":0,"ha":2083},"度":{"x_min":0,"x_max":0,"ha":2083},"漟":{"x_min":0,"x_max":0,"ha":2083},"墉":{"x_min":0,"x_max":0,"ha":2083},"唁":{"x_min":0,"x_max":0,"ha":2083},"蚎":{"x_min":0,"x_max":0,"ha":2083},"揩":{"x_min":0,"x_max":0,"ha":2083},"轄":{"x_min":0,"x_max":0,"ha":2083},"氁":{"x_min":0,"x_max":0,"ha":2083},"潏":{"x_min":0,"x_max":0,"ha":2083},"濁":{"x_min":0,"x_max":0,"ha":2083},"搎":{"x_min":0,"x_max":0,"ha":2083},"蝒":{"x_min":0,"x_max":0,"ha":2083},"癡":{"x_min":0,"x_max":0,"ha":2083},"穇":{"x_min":0,"x_max":0,"ha":2083},"子":{"x_min":0,"x_max":0,"ha":2083},"埭":{"x_min":0,"x_max":0,"ha":2083},"鑞":{"x_min":0,"x_max":0,"ha":2083},"魛":{"x_min":0,"x_max":0,"ha":2083},"妀":{"x_min":0,"x_max":0,"ha":2083},"佁":{"x_min":0,"x_max":0,"ha":2083},"篱":{"x_min":0,"x_max":0,"ha":2083},"踦":{"x_min":0,"x_max":0,"ha":2083},"漰":{"x_min":0,"x_max":0,"ha":2083},"岷":{"x_min":0,"x_max":0,"ha":2083},"潘":{"x_min":0,"x_max":0,"ha":2083},"侏":{"x_min":0,"x_max":0,"ha":2083},"諲":{"x_min":0,"x_max":0,"ha":2083},"揪":{"x_min":0,"x_max":0,"ha":2083},"塊":{"x_min":0,"x_max":0,"ha":2083},"寎":{"x_min":0,"x_max":0,"ha":2083},"峻":{"x_min":0,"x_max":0,"ha":2083},"穡":{"x_min":0,"x_max":0,"ha":2083},"俶":{"x_min":0,"x_max":0,"ha":2083},"鯄":{"x_min":0,"x_max":0,"ha":2083},"盯":{"x_min":0,"x_max":0,"ha":2083},"茷":{"x_min":0,"x_max":0,"ha":2083},"曜":{"x_min":0,"x_max":0,"ha":2083},"鮕":{"x_min":0,"x_max":0,"ha":2083},"撦":{"x_min":0,"x_max":0,"ha":2083},"悶":{"x_min":0,"x_max":0,"ha":2083},"副":{"x_min":0,"x_max":0,"ha":2083},"宇":{"x_min":0,"x_max":0,"ha":2083},"僂":{"x_min":0,"x_max":0,"ha":2083},"械":{"x_min":0,"x_max":0,"ha":2083},"踂":{"x_min":0,"x_max":0,"ha":2083},"昮":{"x_min":0,"x_max":0,"ha":2083},"鷊":{"x_min":0,"x_max":0,"ha":2083},"鈧":{"x_min":0,"x_max":0,"ha":2083},"縏":{"x_min":0,"x_max":0,"ha":2083},"黽":{"x_min":0,"x_max":0,"ha":2083},"埥":{"x_min":0,"x_max":0,"ha":2083},"趖":{"x_min":0,"x_max":0,"ha":2083},"褭":{"x_min":0,"x_max":0,"ha":2083},"俠":{"x_min":0,"x_max":0,"ha":2083},"泹":{"x_min":0,"x_max":0,"ha":2083},"啡":{"x_min":0,"x_max":0,"ha":2083},"箑":{"x_min":0,"x_max":0,"ha":2083},"牢":{"x_min":0,"x_max":0,"ha":2083},"峴":{"x_min":0,"x_max":0,"ha":2083},"簃":{"x_min":0,"x_max":0,"ha":2083},"爣":{"x_min":0,"x_max":0,"ha":2083},"躆":{"x_min":0,"x_max":0,"ha":2083},"籿":{"x_min":0,"x_max":0,"ha":2083},"待":{"x_min":0,"x_max":0,"ha":2083},"俅":{"x_min":0,"x_max":0,"ha":2083},"朴":{"x_min":0,"x_max":0,"ha":2083},"薺":{"x_min":0,"x_max":0,"ha":2083},"相":{"x_min":81.59375,"x_max":1848.609375,"ha":2083,"o":"m 1764 945 q 1805 939 1784 950 q 1825 919 1828 925 q 1793 911 1816 903 q 1684 912 1752 925 q 1662 891 1662 911 l 1662 809 l 1665 708 q 1654 629 1672 657 q 1628 640 1641 617 q 1624 691 1616 663 q 1631 771 1630 721 l 1631 862 q 1631 885 1633 874 q 1605 904 1631 906 l 1561 900 l 1510 888 q 1452 912 1471 889 q 1466 922 1455 922 q 1764 945 1620 922 m 1764 453 q 1816 446 1778 454 q 1837 432 1829 444 q 1832 419 1841 425 q 1805 415 1822 412 q 1746 419 1776 417 l 1676 419 q 1521 394 1600 416 q 1458 427 1485 390 q 1460 432 1458 429 q 1490 431 1467 435 l 1515 428 l 1721 443 q 1764 453 1749 444 m 1618 212 q 1665 204 1641 223 q 1668 185 1675 198 q 1657 118 1660 162 q 1679 100 1653 97 l 1732 105 q 1782 107 1759 111 q 1802 93 1798 104 q 1757 77 1798 66 q 1677 77 1710 81 q 1656 70 1653 74 q 1668 52 1662 65 q 1666 13 1673 40 q 1662 -65 1661 -27 q 1700 -103 1669 -99 q 1799 -99 1748 -105 q 1845 -103 1829 -89 q 1822 -132 1856 -126 l 1702 -132 q 1635 -69 1646 -127 q 1641 20 1634 -46 q 1626 14 1639 40 q 1481 -123 1566 -80 q 1454 -128 1464 -138 q 1477 -104 1451 -124 q 1611 50 1577 -31 q 1590 69 1616 70 q 1527 55 1559 63 q 1501 62 1515 52 q 1481 84 1479 82 q 1491 89 1485 88 q 1603 93 1536 89 q 1627 116 1623 94 l 1630 138 q 1626 191 1635 172 q 1618 212 1616 208 m 377 991 q 450 977 402 1006 q 491 908 493 946 q 473 664 476 821 q 514 642 473 632 q 649 638 617 671 q 642 603 659 621 q 576 587 610 592 l 504 573 q 472 534 472 566 l 472 492 q 512 451 472 459 q 641 381 595 440 q 632 317 657 349 q 584 320 602 305 l 504 402 q 472 397 472 429 q 461 12 472 188 q 444 -96 458 -58 q 415 -139 423 -136 q 377 -16 368 -96 q 410 394 409 135 q 382 390 410 434 q 217 193 313 273 q 86 120 138 124 q 118 165 67 120 q 374 516 297 320 q 347 543 387 549 q 187 534 256 520 q 143 554 143 549 q 200 572 155 566 q 382 609 291 587 q 415 651 415 618 q 378 968 417 866 q 377 991 375 987 m 1009 741 q 1108 775 1076 775 q 1189 735 1140 771 q 1197 656 1239 703 q 1184 615 1188 636 q 1193 97 1185 373 q 1158 -65 1189 5 q 1123 -111 1143 -99 q 1099 -88 1110 -118 q 1067 -1 1086 -44 q 1011 28 1052 31 q 819 13 915 23 q 782 -23 781 12 q 762 -74 769 -71 q 720 -33 755 -73 q 713 77 699 -5 q 695 667 752 416 q 694 721 687 720 q 745 710 720 718 q 792 701 762 701 q 1009 741 922 708 m 1029 691 q 819 648 915 675 q 786 614 786 646 q 785 508 783 561 q 826 482 785 476 l 920 503 q 1029 519 986 527 q 1060 488 1052 518 q 1030 462 1056 462 q 817 436 872 431 q 785 408 785 440 q 783 314 782 363 q 824 286 783 282 q 1032 320 979 317 q 1060 268 1086 313 q 1021 257 1048 260 q 816 242 869 237 q 783 215 783 248 q 782 92 781 155 q 823 63 782 59 l 1026 88 q 1074 78 1053 85 q 1105 107 1095 66 q 1109 622 1110 364 q 1097 684 1105 664 q 1029 691 1074 705 "},"嶄":{"x_min":0,"x_max":0,"ha":2083},"瞺":{"x_min":0,"x_max":0,"ha":2083},"俙":{"x_min":0,"x_max":0,"ha":2083},"益":{"x_min":0,"x_max":0,"ha":2083},"酐":{"x_min":0,"x_max":0,"ha":2083},"雗":{"x_min":0,"x_max":0,"ha":2083},"爾":{"x_min":0,"x_max":0,"ha":2083},"玀":{"x_min":0,"x_max":0,"ha":2083},"煥":{"x_min":0,"x_max":0,"ha":2083},"V":{"x_min":39.328125,"x_max":915.578125,"ha":949,"o":"m 39 857 q 78 884 39 884 l 314 884 q 356 859 356 884 q 309 832 356 832 q 261 760 225 830 l 482 141 q 509 146 495 105 q 657 565 581 355 q 728 773 712 710 q 678 828 751 826 q 637 857 637 832 q 678 882 637 882 l 876 882 q 915 858 916 882 q 870 831 911 832 q 786 774 812 838 q 520 27 651 402 q 476 -14 505 -14 q 429 25 446 -14 l 164 771 q 81 831 143 828 q 39 857 39 832 "},"潩":{"x_min":0,"x_max":0,"ha":2083},"剞":{"x_min":0,"x_max":0,"ha":2083},"贐":{"x_min":0,"x_max":0,"ha":2083},"紫":{"x_min":0,"x_max":0,"ha":2083},"堐":{"x_min":0,"x_max":0,"ha":2083},"喃":{"x_min":0,"x_max":0,"ha":2083},"癰":{"x_min":0,"x_max":0,"ha":2083},"賹":{"x_min":0,"x_max":0,"ha":2083},"葞":{"x_min":0,"x_max":0,"ha":2083},"簌":{"x_min":0,"x_max":0,"ha":2083},"齹":{"x_min":0,"x_max":0,"ha":2083},"鈥":{"x_min":0,"x_max":0,"ha":2083},"迡":{"x_min":0,"x_max":0,"ha":2083},"貳":{"x_min":0,"x_max":0,"ha":2083},"墂":{"x_min":0,"x_max":0,"ha":2083},"禐":{"x_min":0,"x_max":0,"ha":2083},"碚":{"x_min":0,"x_max":0,"ha":2083},"處":{"x_min":0,"x_max":0,"ha":2083},"矲":{"x_min":0,"x_max":0,"ha":2083},"毤":{"x_min":0,"x_max":0,"ha":2083},"祲":{"x_min":0,"x_max":0,"ha":2083},"補":{"x_min":0,"x_max":0,"ha":2083},"舯":{"x_min":0,"x_max":0,"ha":2083},"紒":{"x_min":0,"x_max":0,"ha":2083},"騲":{"x_min":0,"x_max":0,"ha":2083},"菣":{"x_min":0,"x_max":0,"ha":2083},"烗":{"x_min":0,"x_max":0,"ha":2083},"濈":{"x_min":0,"x_max":0,"ha":2083},"熇":{"x_min":0,"x_max":0,"ha":2083},"齒":{"x_min":0,"x_max":0,"ha":2083},"玉":{"x_min":0,"x_max":0,"ha":2083},"屺":{"x_min":0,"x_max":0,"ha":2083},"娘":{"x_min":0,"x_max":0,"ha":2083},"窋":{"x_min":0,"x_max":0,"ha":2083},"首":{"x_min":0,"x_max":0,"ha":2083},"衢":{"x_min":0,"x_max":0,"ha":2083},"垙":{"x_min":0,"x_max":0,"ha":2083},"氌":{"x_min":0,"x_max":0,"ha":2083},"獊":{"x_min":0,"x_max":0,"ha":2083},"筩":{"x_min":0,"x_max":0,"ha":2083},"繻":{"x_min":0,"x_max":0,"ha":2083},"聰":{"x_min":0,"x_max":0,"ha":2083},"綔":{"x_min":0,"x_max":0,"ha":2083},"謺":{"x_min":0,"x_max":0,"ha":2083},"糶":{"x_min":0,"x_max":0,"ha":2083},"楊":{"x_min":0,"x_max":0,"ha":2083},"嵇":{"x_min":0,"x_max":0,"ha":2083},"壆":{"x_min":0,"x_max":0,"ha":2083},"噈":{"x_min":0,"x_max":0,"ha":2083},"陏":{"x_min":0,"x_max":0,"ha":2083},"貹":{"x_min":0,"x_max":0,"ha":2083},"瓂":{"x_min":0,"x_max":0,"ha":2083},"斢":{"x_min":0,"x_max":0,"ha":2083},"卄":{"x_min":0,"x_max":0,"ha":2083},"懌":{"x_min":0,"x_max":0,"ha":2083},"梓":{"x_min":0,"x_max":0,"ha":2083},"唎":{"x_min":0,"x_max":0,"ha":2083},"艄":{"x_min":0,"x_max":0,"ha":2083},"邦":{"x_min":0,"x_max":0,"ha":2083},"汐":{"x_min":0,"x_max":0,"ha":2083},"櫺":{"x_min":0,"x_max":0,"ha":2083},"蜾":{"x_min":0,"x_max":0,"ha":2083},"睄":{"x_min":0,"x_max":0,"ha":2083},"玒":{"x_min":0,"x_max":0,"ha":2083},"員":{"x_min":0,"x_max":0,"ha":2083},"悱":{"x_min":0,"x_max":0,"ha":2083},"髯":{"x_min":0,"x_max":0,"ha":2083},"珵":{"x_min":0,"x_max":0,"ha":2083},"嫌":{"x_min":0,"x_max":0,"ha":2083},"怢":{"x_min":0,"x_max":0,"ha":2083},"槔":{"x_min":0,"x_max":0,"ha":2083},"盼":{"x_min":0,"x_max":0,"ha":2083},"涋":{"x_min":0,"x_max":0,"ha":2083},"緎":{"x_min":0,"x_max":0,"ha":2083},"對":{"x_min":0,"x_max":0,"ha":2083},"叨":{"x_min":0,"x_max":0,"ha":2083},"芯":{"x_min":0,"x_max":0,"ha":2083},"渟":{"x_min":0,"x_max":0,"ha":2083},"鱳":{"x_min":0,"x_max":0,"ha":2083},"涔":{"x_min":0,"x_max":0,"ha":2083},"工":{"x_min":0,"x_max":0,"ha":2083},"寱":{"x_min":0,"x_max":0,"ha":2083},"堿":{"x_min":0,"x_max":0,"ha":2083},"蛻":{"x_min":0,"x_max":0,"ha":2083},"胗":{"x_min":0,"x_max":0,"ha":2083},"粡":{"x_min":0,"x_max":0,"ha":2083},"暝":{"x_min":0,"x_max":0,"ha":2083},"盜":{"x_min":0,"x_max":0,"ha":2083},"謱":{"x_min":0,"x_max":0,"ha":2083},"苒":{"x_min":0,"x_max":0,"ha":2083},"晸":{"x_min":0,"x_max":0,"ha":2083},"嘾":{"x_min":0,"x_max":0,"ha":2083},"辯":{"x_min":0,"x_max":0,"ha":2083},"羃":{"x_min":0,"x_max":0,"ha":2083},"桑":{"x_min":0,"x_max":0,"ha":2083},"膱":{"x_min":0,"x_max":0,"ha":2083},"薤":{"x_min":0,"x_max":0,"ha":2083},"雒":{"x_min":0,"x_max":0,"ha":2083},"粯":{"x_min":0,"x_max":0,"ha":2083},"侄":{"x_min":0,"x_max":0,"ha":2083},"靃":{"x_min":0,"x_max":0,"ha":2083},"岈":{"x_min":0,"x_max":0,"ha":2083},"蝠":{"x_min":0,"x_max":0,"ha":2083},"莘":{"x_min":0,"x_max":0,"ha":2083},"礝":{"x_min":0,"x_max":0,"ha":2083},"扶":{"x_min":0,"x_max":0,"ha":2083},"旗":{"x_min":0,"x_max":0,"ha":2083},"俋":{"x_min":0,"x_max":0,"ha":2083},"隈":{"x_min":0,"x_max":0,"ha":2083},"窞":{"x_min":0,"x_max":0,"ha":2083},"暖":{"x_min":0,"x_max":0,"ha":2083},"聃":{"x_min":0,"x_max":0,"ha":2083},"氚":{"x_min":0,"x_max":0,"ha":2083},"鞷":{"x_min":0,"x_max":0,"ha":2083},"靻":{"x_min":0,"x_max":0,"ha":2083},"鰾":{"x_min":0,"x_max":0,"ha":2083},"醟":{"x_min":0,"x_max":0,"ha":2083},"攫":{"x_min":0,"x_max":0,"ha":2083},"疽":{"x_min":0,"x_max":0,"ha":2083},"萳":{"x_min":0,"x_max":0,"ha":2083},"縳":{"x_min":0,"x_max":0,"ha":2083},"媏":{"x_min":0,"x_max":0,"ha":2083},"字":{"x_min":185.765625,"x_max":2014.15625,"ha":2083,"o":"m 1873 695 q 1926 694 1898 733 q 1989 617 1959 656 q 2014 581 2007 598 q 2010 579 2011 579 q 1909 646 1978 594 q 1883 663 1896 656 q 1873 695 1864 678 m 1710 611 q 1776 604 1745 623 l 1782 598 q 1772 516 1774 545 q 1733 387 1770 453 q 1704 366 1725 367 q 1681 393 1698 367 l 1675 400 q 1650 428 1650 423 q 1677 423 1653 432 q 1707 416 1704 415 q 1722 431 1719 421 q 1740 552 1736 472 q 1733 581 1742 571 q 1703 587 1723 590 q 1646 579 1675 585 q 1626 552 1624 576 l 1633 356 l 1633 267 q 1614 240 1630 237 q 1597 280 1600 245 q 1601 385 1596 313 l 1601 462 q 1595 550 1596 505 q 1567 568 1593 571 l 1523 562 q 1485 557 1494 556 q 1459 575 1464 564 q 1485 585 1459 579 q 1710 611 1647 602 m 606 964 q 613 1013 573 1014 q 716 984 659 1013 q 750 869 786 944 q 699 866 737 851 q 606 964 638 904 m 1021 873 q 1147 846 1075 903 q 1209 781 1203 811 q 1181 754 1205 767 q 1018 680 1110 731 q 961 652 968 651 q 979 701 953 657 l 1010 755 q 1013 789 1025 770 q 889 786 972 793 q 455 725 686 770 q 387 717 416 716 q 340 679 355 720 q 278 573 314 607 q 219 575 242 542 q 287 747 204 634 l 298 774 q 326 823 317 827 q 359 779 348 812 q 405 764 360 758 q 831 828 618 798 q 1021 873 945 843 m 805 657 q 927 604 845 670 q 937 572 948 588 q 739 435 859 539 q 714 374 701 401 q 769 352 728 347 l 988 381 q 1097 391 1043 389 q 1194 340 1154 379 q 1197 307 1209 326 q 1131 295 1182 291 q 777 294 923 314 q 750 250 744 291 q 756 -48 771 123 q 716 -157 752 -103 q 611 -177 657 -240 q 533 -66 575 -119 q 541 -36 489 -23 q 621 -58 594 -55 q 674 -9 655 -58 q 679 249 701 90 q 632 279 672 282 q 320 223 457 257 q 225 225 261 200 q 185 261 184 253 q 234 276 193 269 q 622 333 428 302 q 651 358 655 339 q 604 416 636 390 q 558 444 564 439 q 651 439 591 461 q 713 454 682 421 q 786 552 752 503 q 792 591 812 585 q 748 585 775 592 q 531 531 640 561 q 412 550 472 505 q 402 571 398 564 q 481 581 431 587 q 805 657 632 592 "},"韁":{"x_min":0,"x_max":0,"ha":2083},"狴":{"x_min":0,"x_max":0,"ha":2083},"3":{"x_min":77.1875,"x_max":681.828125,"ha":722,"o":"m 188 850 q 467 893 320 929 q 648 733 603 859 q 651 614 663 690 q 530 476 617 523 q 541 446 497 462 q 680 275 661 396 q 660 128 686 188 q 472 -25 611 8 q 172 20 321 -70 q 84 230 51 109 q 179 290 104 306 q 193 195 242 245 q 199 63 112 146 q 440 31 301 -12 q 592 207 573 73 q 371 434 619 416 q 326 463 326 436 q 367 495 326 491 q 462 519 428 504 q 554 607 519 537 q 478 823 603 740 q 226 815 336 876 q 173 748 177 779 q 212 684 170 716 q 245 646 240 674 q 170 594 250 575 q 115 747 90 625 q 188 850 124 804 "},"渦":{"x_min":0,"x_max":0,"ha":2083},"禛":{"x_min":0,"x_max":0,"ha":2083},"紡":{"x_min":0,"x_max":0,"ha":2083},"泧":{"x_min":0,"x_max":0,"ha":2083},"仳":{"x_min":0,"x_max":0,"ha":2083},"貺":{"x_min":0,"x_max":0,"ha":2083},"非":{"x_min":0,"x_max":0,"ha":2083},"媝":{"x_min":0,"x_max":0,"ha":2083},"樉":{"x_min":0,"x_max":0,"ha":2083},"遣":{"x_min":0,"x_max":0,"ha":2083},"梊":{"x_min":0,"x_max":0,"ha":2083},"奿":{"x_min":0,"x_max":0,"ha":2083},"戰":{"x_min":0,"x_max":0,"ha":2083},"蘅":{"x_min":0,"x_max":0,"ha":2083},"鄿":{"x_min":0,"x_max":0,"ha":2083},"湯":{"x_min":136.8125,"x_max":2008.96875,"ha":2083,"o":"m 1741 672 q 1779 670 1753 676 q 1808 660 1797 668 q 1803 636 1826 645 q 1763 636 1793 632 q 1561 630 1664 644 q 1483 614 1525 621 q 1443 632 1463 614 q 1430 651 1430 646 q 1459 652 1433 653 q 1512 651 1485 648 l 1717 665 q 1741 672 1723 664 m 1982 486 q 2008 493 2011 507 q 1932 391 1989 458 q 1874 381 1901 343 q 1879 405 1866 394 l 1982 486 m 1599 400 q 1646 385 1622 406 q 1641 355 1650 379 q 1631 290 1635 329 q 1650 272 1628 271 q 1696 276 1672 275 q 1779 272 1756 288 q 1782 257 1787 267 q 1727 253 1767 242 q 1652 250 1684 254 q 1641 237 1630 248 q 1646 198 1653 222 q 1639 96 1639 143 q 1685 51 1647 58 q 1790 58 1736 50 q 1821 58 1812 65 q 1821 28 1840 48 q 1805 23 1816 24 l 1681 23 q 1615 86 1626 27 q 1616 183 1612 136 q 1601 183 1614 206 q 1472 47 1563 108 q 1432 23 1447 24 l 1426 27 q 1449 54 1424 31 q 1586 221 1553 136 q 1570 242 1593 244 l 1501 227 q 1455 253 1478 223 q 1459 260 1455 257 q 1577 267 1517 261 q 1603 294 1597 268 l 1607 339 q 1603 375 1607 359 q 1595 394 1593 391 q 1599 400 1596 398 m 939 965 q 1019 965 971 990 q 1076 851 1129 922 q 1044 743 1052 805 q 990 580 1033 661 q 914 581 935 505 q 846 609 891 614 q 764 599 805 606 q 728 585 732 600 q 708 560 722 560 q 683 602 684 568 q 637 891 679 763 q 668 938 617 935 l 695 931 q 750 926 713 922 q 939 965 874 938 m 284 899 q 322 904 282 915 q 454 830 417 876 q 457 760 469 809 q 387 744 438 703 q 284 899 333 797 m 915 901 q 762 872 839 892 q 729 838 729 870 l 731 809 q 774 786 733 777 q 882 801 850 808 q 914 781 895 800 q 904 758 925 764 l 764 736 q 732 699 732 732 l 732 674 q 774 646 733 641 q 869 664 821 657 q 934 657 907 672 q 957 697 944 651 q 981 858 977 764 q 915 901 991 929 m 169 541 q 137 613 134 588 q 242 580 173 610 q 294 440 355 538 q 259 440 284 429 q 169 541 208 472 m 1091 554 q 1194 571 1151 573 q 1245 560 1227 568 q 1242 520 1273 538 q 1120 492 1200 501 l 748 443 q 727 423 713 438 l 741 400 q 710 363 743 391 q 718 335 678 332 q 1085 408 986 371 q 1166 389 1120 420 q 1247 317 1226 356 q 1220 271 1247 307 q 1185 162 1200 227 q 1102 -54 1143 8 q 969 -179 1030 -157 q 904 -145 929 -185 q 847 -36 878 -90 q 882 -23 824 2 q 944 -48 911 -36 q 1014 -2 979 -50 q 1112 265 1101 101 q 1062 332 1127 340 l 1021 329 q 1006 313 986 326 q 996 257 1029 290 q 523 -104 811 -47 q 533 -81 478 -108 q 863 189 741 5 q 910 288 900 245 q 869 316 912 320 l 811 309 q 804 275 778 303 q 778 212 821 245 q 542 44 665 90 q 546 74 491 33 q 717 265 664 160 q 683 291 728 295 q 652 295 664 291 q 599 267 642 299 q 474 210 539 225 q 516 253 470 215 q 638 393 588 310 q 622 425 653 429 q 541 431 568 420 q 497 463 488 457 q 549 472 512 470 q 1091 554 885 503 m 413 410 q 448 446 442 457 q 443 406 451 434 q 368 189 409 298 q 292 -27 328 81 q 246 -78 288 -80 q 176 35 198 -35 q 203 109 151 81 q 295 208 265 149 q 413 410 352 309 "},"泀":{"x_min":0,"x_max":0,"ha":2083},"琳":{"x_min":0,"x_max":0,"ha":2083},"髆":{"x_min":0,"x_max":0,"ha":2083},"耔":{"x_min":0,"x_max":0,"ha":2083},"磠":{"x_min":0,"x_max":0,"ha":2083},"伸":{"x_min":0,"x_max":0,"ha":2083},"殑":{"x_min":0,"x_max":0,"ha":2083},"岤":{"x_min":0,"x_max":0,"ha":2083},"耟":{"x_min":0,"x_max":0,"ha":2083},"矢":{"x_min":0,"x_max":0,"ha":2083},"賙":{"x_min":0,"x_max":0,"ha":2083},"燂":{"x_min":0,"x_max":0,"ha":2083},"烠":{"x_min":0,"x_max":0,"ha":2083},"咀":{"x_min":0,"x_max":0,"ha":2083},"駶":{"x_min":0,"x_max":0,"ha":2083},"雉":{"x_min":0,"x_max":0,"ha":2083},"豎":{"x_min":0,"x_max":0,"ha":2083},"頄":{"x_min":76.96875,"x_max":2006.90625,"ha":2083,"o":"m 1765 968 q 1816 958 1786 973 q 1821 937 1833 948 q 1793 930 1813 927 q 1634 930 1706 939 q 1600 904 1612 927 q 1592 858 1585 870 q 1620 853 1595 854 q 1722 869 1668 857 q 1759 851 1741 870 q 1755 812 1767 840 q 1741 760 1745 786 q 1685 659 1732 721 q 1635 629 1662 630 q 1619 636 1626 629 q 1611 659 1614 648 q 1577 701 1603 672 q 1604 693 1578 703 q 1656 683 1635 676 q 1683 712 1672 693 q 1717 815 1713 767 q 1694 836 1715 839 q 1570 821 1637 838 q 1543 826 1558 813 q 1551 857 1538 831 l 1572 906 q 1554 922 1577 925 l 1482 912 q 1452 916 1470 911 q 1435 934 1433 929 q 1479 945 1449 950 q 1765 968 1669 952 m 1717 558 q 1745 554 1727 568 q 1763 530 1760 541 q 1736 503 1761 523 l 1699 466 q 1700 434 1679 447 q 1772 391 1740 413 q 1795 366 1794 371 q 1756 352 1787 328 q 1704 394 1737 371 l 1679 413 q 1634 415 1654 429 q 1458 333 1534 347 q 1481 351 1455 336 q 1608 429 1551 387 q 1604 459 1630 444 l 1527 501 q 1501 522 1496 519 q 1531 515 1512 522 l 1628 473 q 1675 484 1652 462 q 1710 533 1696 504 q 1717 558 1714 545 m 1889 257 l 2006 332 q 1995 303 2010 329 q 1915 215 1951 248 q 1873 231 1889 195 q 1889 257 1869 245 m 1650 211 q 1683 168 1699 208 q 1683 116 1672 153 q 1719 14 1694 59 q 1833 -90 1767 -63 q 1860 -109 1858 -96 q 1832 -119 1858 -113 q 1786 -120 1802 -124 q 1737 -78 1761 -111 q 1652 141 1666 13 q 1638 162 1642 161 q 1524 108 1596 147 q 1460 131 1478 82 q 1489 139 1463 134 q 1618 191 1557 153 q 1650 211 1638 208 m 1104 926 q 1242 914 1186 948 q 1264 881 1264 903 q 1213 854 1257 846 l 1121 849 q 1017 838 1070 846 q 991 823 980 832 q 968 743 1036 783 q 889 663 929 705 q 911 642 862 633 q 1066 683 975 655 q 1226 626 1146 725 q 1209 573 1227 621 q 1197 408 1194 509 l 1197 206 q 1192 141 1197 165 q 1154 119 1186 105 q 1125 147 1146 123 q 1070 164 1113 170 q 807 122 938 145 l 773 123 q 758 109 766 127 q 739 88 745 89 q 714 111 731 89 q 702 187 699 149 q 722 581 750 387 q 702 640 698 632 q 764 637 728 665 q 807 625 779 622 q 851 661 838 627 l 899 786 q 880 819 910 823 q 781 801 831 812 q 665 824 733 794 q 665 839 661 831 q 724 855 672 849 q 1104 926 854 866 m 310 849 q 298 897 290 893 q 402 869 339 908 q 420 816 429 851 q 393 646 401 729 q 432 638 390 614 q 541 679 508 680 q 622 634 592 665 q 587 585 623 626 q 558 477 561 545 q 543 280 549 381 q 584 279 542 248 q 638 318 611 301 q 687 341 678 343 q 655 284 699 337 q 508 124 554 191 q 466 71 476 73 q 417 160 423 97 q 436 196 419 174 q 481 305 474 248 q 497 556 492 429 q 492 592 499 588 q 429 569 461 585 q 378 512 387 553 q 333 297 360 397 q 138 -23 282 99 q 93 -42 103 -42 q 77 -31 74 -39 q 259 260 208 101 q 310 496 295 373 q 269 511 313 526 q 145 499 196 478 q 111 534 108 516 q 158 538 118 542 q 286 566 214 539 q 321 622 318 581 q 310 849 337 771 m 1066 626 l 834 594 q 797 558 797 588 l 797 511 q 838 484 797 478 q 960 515 910 495 q 1014 527 987 526 q 1068 507 1067 515 q 1028 474 1064 480 l 865 439 q 827 435 846 432 q 794 408 794 440 q 793 364 792 386 q 828 333 789 328 q 975 368 918 348 q 1063 366 1024 381 q 1053 332 1090 349 q 999 314 1026 318 q 819 290 876 291 q 783 252 789 297 l 777 199 q 815 176 774 166 q 1081 229 948 204 q 1118 267 1113 226 q 1123 554 1124 410 q 1066 626 1135 629 m 819 81 q 866 75 826 89 l 900 59 q 892 -13 941 24 q 675 -155 778 -113 q 619 -168 625 -173 q 659 -123 614 -162 q 819 81 796 -14 m 1015 63 q 1059 66 1019 70 q 1152 31 1116 51 q 1269 -135 1268 -37 q 1200 -146 1258 -192 q 1048 20 1110 -40 q 1015 63 1015 58 "},"鼁":{"x_min":0,"x_max":0,"ha":2083},"鷏":{"x_min":0,"x_max":0,"ha":2083},"苺":{"x_min":0,"x_max":0,"ha":2083},"炄":{"x_min":0,"x_max":0,"ha":2083},"訹":{"x_min":0,"x_max":0,"ha":2083},"鶌":{"x_min":0,"x_max":0,"ha":2083},"鄶":{"x_min":0,"x_max":0,"ha":2083},"踡":{"x_min":0,"x_max":0,"ha":2083},"矮":{"x_min":0,"x_max":0,"ha":2083},"倇":{"x_min":0,"x_max":0,"ha":2083},"焂":{"x_min":0,"x_max":0,"ha":2083},"{":{"x_min":146.484375,"x_max":457.09375,"ha":499,"o":"m 263 816 q 413 979 272 941 q 457 972 457 990 q 416 941 457 953 q 339 836 341 908 q 336 504 335 672 q 261 389 330 436 q 269 351 229 373 q 336 244 329 311 l 336 -78 q 416 -195 335 -161 q 455 -226 457 -207 q 410 -233 455 -242 q 261 -69 271 -196 l 261 256 q 192 343 253 313 q 146 368 146 352 q 187 400 146 391 q 260 477 250 425 q 263 816 264 646 "},"痾":{"x_min":0,"x_max":0,"ha":2083},"樂":{"x_min":178.359375,"x_max":2008.96875,"ha":2083,"o":"m 1634 838 q 1676 823 1654 845 q 1664 792 1679 816 q 1650 762 1654 777 q 1664 740 1643 740 q 1717 743 1690 740 q 1760 744 1741 745 q 1780 716 1783 732 q 1761 613 1768 668 q 1710 485 1744 537 q 1653 478 1676 439 l 1642 492 q 1623 518 1620 516 q 1661 511 1634 520 q 1696 526 1683 500 q 1744 680 1732 591 q 1711 721 1757 727 l 1657 717 q 1628 694 1637 716 q 1494 508 1589 585 q 1466 496 1468 495 q 1483 519 1463 497 q 1596 691 1554 596 q 1578 709 1604 712 q 1527 695 1546 709 q 1487 691 1500 675 q 1491 714 1482 706 q 1519 758 1519 729 q 1535 790 1513 783 l 1543 788 q 1546 752 1554 775 q 1544 729 1540 732 q 1573 731 1547 728 l 1590 733 q 1622 763 1611 737 q 1631 817 1635 800 q 1634 838 1628 834 m 1982 486 q 2008 493 2011 507 q 1932 391 1989 458 q 1874 381 1901 343 q 1879 405 1866 394 l 1982 486 m 1603 367 q 1607 386 1599 386 q 1652 355 1639 378 q 1649 335 1657 345 q 1539 208 1595 276 q 1527 185 1523 188 q 1557 185 1543 180 l 1672 206 q 1684 211 1680 207 q 1734 284 1725 248 q 1742 310 1737 311 q 1778 278 1764 303 q 1760 244 1784 259 l 1584 88 q 1565 63 1561 66 q 1622 69 1580 61 l 1691 81 q 1688 111 1711 85 q 1668 135 1666 132 q 1700 131 1676 147 q 1793 54 1763 93 q 1782 23 1802 33 q 1744 47 1764 21 q 1702 62 1727 67 q 1555 35 1615 43 q 1504 21 1532 32 q 1478 23 1491 12 q 1481 58 1459 42 q 1630 161 1550 82 q 1626 177 1653 183 q 1467 134 1532 160 q 1452 146 1458 132 q 1468 181 1443 168 q 1595 324 1554 240 q 1603 367 1608 349 m 680 983 q 699 1032 684 1030 q 790 994 750 1021 q 771 946 793 987 q 670 797 725 869 q 686 771 642 759 l 740 789 q 794 807 777 809 q 868 760 839 792 q 853 712 869 752 q 843 499 839 649 q 816 373 840 412 q 758 364 783 330 q 691 400 731 406 l 641 393 q 630 375 633 396 q 607 358 629 345 q 584 446 584 381 q 539 709 577 610 q 523 755 520 752 q 562 759 528 760 q 619 793 598 751 q 680 983 668 893 m 1018 961 q 1085 923 1043 969 q 1068 853 1098 901 l 976 697 q 999 674 956 661 l 1041 684 q 1100 736 1085 695 q 1106 763 1105 750 q 1120 804 1114 804 q 1165 713 1226 767 q 1002 469 1094 599 q 1007 442 975 432 l 1075 462 q 1093 499 1110 472 q 1123 523 1078 533 q 1226 386 1226 477 q 1181 360 1216 339 q 1148 409 1165 382 q 1086 420 1131 438 q 897 333 948 366 q 868 359 877 336 q 865 404 850 377 q 1000 545 952 455 q 1049 623 1028 584 q 1029 641 1072 661 q 937 587 983 619 q 863 617 892 547 q 900 659 863 626 q 1018 961 1005 824 m 374 925 q 424 903 390 941 q 431 813 457 862 q 336 651 381 732 q 355 617 314 610 l 387 623 q 438 675 420 632 q 446 736 447 701 q 458 744 453 744 q 504 652 557 714 l 349 410 q 363 387 324 373 l 423 409 q 442 446 455 421 q 428 476 425 473 q 482 467 435 482 q 553 320 575 402 q 491 355 516 278 q 432 367 473 387 q 283 291 358 332 q 236 263 242 261 q 199 337 187 301 q 231 362 204 345 q 387 562 314 429 q 359 571 404 592 q 313 543 336 560 q 256 512 264 511 q 207 573 212 530 q 219 584 211 581 q 263 621 241 590 q 367 892 352 773 q 374 925 371 919 m 721 739 q 656 724 689 733 q 619 712 623 717 l 625 619 q 672 602 629 587 q 728 610 699 617 q 750 587 750 607 q 705 562 745 579 q 661 554 683 556 q 633 515 630 558 q 634 462 632 491 q 675 440 634 429 q 752 455 729 459 q 785 486 777 446 q 788 684 789 585 q 721 739 786 763 m 621 328 q 683 336 633 364 q 739 268 756 313 q 762 241 732 238 l 1074 283 q 1156 276 1128 286 q 1200 214 1216 253 q 1140 202 1181 195 q 786 185 946 199 q 789 153 750 183 q 1235 -61 1047 -37 q 1238 -92 1288 -78 q 1056 -115 1152 -111 q 946 -69 1009 -130 q 759 127 826 46 q 728 130 728 164 q 725 -149 729 -9 q 687 -210 725 -200 q 642 -155 664 -202 q 649 -66 629 -105 q 661 105 668 6 q 629 108 661 141 q 184 -120 393 -124 q 179 -111 176 -116 q 572 138 373 -51 q 556 164 599 169 q 348 141 453 154 q 189 169 271 120 q 259 191 202 199 q 627 226 443 200 q 644 275 659 230 q 621 328 626 305 "},"珒":{"x_min":0,"x_max":0,"ha":2083},"閎":{"x_min":0,"x_max":0,"ha":2083},"洙":{"x_min":0,"x_max":0,"ha":2083},"灆":{"x_min":0,"x_max":0,"ha":2083},"豅":{"x_min":0,"x_max":0,"ha":2083},"鯤":{"x_min":0,"x_max":0,"ha":2083},"抨":{"x_min":0,"x_max":0,"ha":2083},"咫":{"x_min":0,"x_max":0,"ha":2083},"搿":{"x_min":0,"x_max":0,"ha":2083},"黕":{"x_min":0,"x_max":0,"ha":2083},"驙":{"x_min":0,"x_max":0,"ha":2083},"淫":{"x_min":0,"x_max":0,"ha":2083},"酸":{"x_min":0,"x_max":0,"ha":2083},"撠":{"x_min":0,"x_max":0,"ha":2083},"齋":{"x_min":0,"x_max":0,"ha":2083},"甲":{"x_min":0,"x_max":0,"ha":2083},"法":{"x_min":148.890625,"x_max":1795.140625,"ha":2083,"o":"m 1601 800 l 1725 813 q 1775 808 1751 816 q 1786 794 1786 804 q 1749 779 1780 782 l 1676 779 q 1542 771 1609 778 q 1519 740 1521 766 q 1516 591 1516 665 q 1546 547 1519 556 q 1661 543 1577 533 l 1713 549 q 1786 547 1764 560 q 1789 531 1794 542 q 1757 515 1782 516 l 1577 515 q 1525 524 1548 518 q 1485 591 1489 543 l 1485 656 q 1474 771 1483 720 q 1467 800 1466 797 q 1490 809 1477 808 q 1601 800 1546 796 m 1479 381 q 1497 378 1487 383 q 1607 279 1551 332 q 1653 279 1627 259 q 1752 378 1704 318 q 1780 375 1763 387 q 1778 335 1810 355 q 1671 256 1730 307 q 1646 210 1645 236 l 1649 59 q 1647 35 1650 50 q 1624 8 1643 8 q 1607 35 1619 9 q 1607 71 1603 46 q 1614 210 1614 142 q 1589 256 1614 230 q 1481 339 1531 311 q 1479 381 1430 354 m 741 1006 q 788 1011 747 1014 q 866 977 832 998 q 906 931 904 942 q 882 861 907 912 q 859 690 868 808 q 900 667 859 657 l 954 686 q 1063 695 998 710 q 1102 667 1095 690 q 1075 638 1102 651 q 889 598 1014 618 q 853 553 854 591 l 853 421 q 893 396 853 389 q 1208 440 1108 451 q 1274 391 1257 432 q 1243 358 1280 364 q 843 326 1043 359 q 824 306 807 321 q 812 237 861 275 l 663 47 q 667 10 626 4 q 973 71 820 43 q 981 118 1006 80 q 942 172 960 145 q 923 219 918 215 q 1131 78 1053 181 q 1175 -29 1174 24 q 1167 -80 1180 -62 q 1109 -65 1146 -96 q 1052 5 1078 -37 q 991 27 1033 37 q 566 -90 708 -42 q 482 -39 505 -138 q 522 -6 484 -32 q 576 37 546 5 q 724 276 690 176 q 690 302 731 309 q 595 284 642 295 q 443 311 522 265 q 444 326 439 317 q 495 339 454 336 q 759 371 602 344 q 793 419 792 378 l 790 550 q 744 573 789 580 q 644 560 675 558 q 560 592 580 571 q 568 604 561 599 l 756 637 q 785 687 788 642 q 754 958 779 877 q 741 1006 739 999 m 305 785 q 316 835 268 835 q 424 798 375 831 q 467 720 465 770 q 415 690 467 672 q 305 785 367 710 m 180 533 q 195 575 149 576 q 242 564 217 572 q 336 462 337 541 q 310 435 341 443 q 180 533 253 438 m 390 379 q 420 423 415 420 q 419 378 427 419 q 254 -29 368 240 q 233 -86 240 -81 q 185 -58 214 -101 q 150 52 141 5 q 291 204 248 112 q 390 379 339 291 "},"帴":{"x_min":0,"x_max":0,"ha":2083},"隋":{"x_min":0,"x_max":0,"ha":2083},"罃":{"x_min":0,"x_max":0,"ha":2083},"灝":{"x_min":0,"x_max":0,"ha":2083},"珥":{"x_min":0,"x_max":0,"ha":2083},"竁":{"x_min":0,"x_max":0,"ha":2083},"永":{"x_min":0,"x_max":0,"ha":2083},"裴":{"x_min":0,"x_max":0,"ha":2083},"禰":{"x_min":0,"x_max":0,"ha":2083},"槼":{"x_min":0,"x_max":0,"ha":2083},"塚":{"x_min":0,"x_max":0,"ha":2083},"霧":{"x_min":0,"x_max":0,"ha":2083},"碢":{"x_min":0,"x_max":0,"ha":2083},"槿":{"x_min":0,"x_max":0,"ha":2083},"烊":{"x_min":0,"x_max":0,"ha":2083},"淴":{"x_min":0,"x_max":0,"ha":2083},"潺":{"x_min":0,"x_max":0,"ha":2083},"嬤":{"x_min":0,"x_max":0,"ha":2083},"鋾":{"x_min":0,"x_max":0,"ha":2083},"浚":{"x_min":0,"x_max":0,"ha":2083},"謇":{"x_min":0,"x_max":0,"ha":2083},"犿":{"x_min":0,"x_max":0,"ha":2083},"席":{"x_min":0,"x_max":0,"ha":2083},"侖":{"x_min":0,"x_max":0,"ha":2083},"緄":{"x_min":0,"x_max":0,"ha":2083},"哲":{"x_min":0,"x_max":0,"ha":2083},"逌":{"x_min":0,"x_max":0,"ha":2083},"溳":{"x_min":0,"x_max":0,"ha":2083},"愷":{"x_min":0,"x_max":0,"ha":2083},"熠":{"x_min":0,"x_max":0,"ha":2083},"糎":{"x_min":0,"x_max":0,"ha":2083},"火":{"x_min":0,"x_max":0,"ha":2083},"丰":{"x_min":0,"x_max":0,"ha":2083},"吥":{"x_min":0,"x_max":0,"ha":2083},"賢":{"x_min":0,"x_max":0,"ha":2083},"蟆":{"x_min":0,"x_max":0,"ha":2083},"氯":{"x_min":0,"x_max":0,"ha":2083},"閶":{"x_min":0,"x_max":0,"ha":2083},"在":{"x_min":0,"x_max":0,"ha":2083},"豷":{"x_min":0,"x_max":0,"ha":2083},"栜":{"x_min":0,"x_max":0,"ha":2083},"兢":{"x_min":0,"x_max":0,"ha":2083},"貚":{"x_min":0,"x_max":0,"ha":2083},"菸":{"x_min":0,"x_max":0,"ha":2083},"再":{"x_min":0,"x_max":0,"ha":2083},"壏":{"x_min":0,"x_max":0,"ha":2083},"怎":{"x_min":0,"x_max":0,"ha":2083},"脹":{"x_min":0,"x_max":0,"ha":2083},"遐":{"x_min":0,"x_max":0,"ha":2083},"杼":{"x_min":0,"x_max":0,"ha":2083},"收":{"x_min":0,"x_max":0,"ha":2083},"擐":{"x_min":0,"x_max":0,"ha":2083},"拇":{"x_min":0,"x_max":0,"ha":2083},"墝":{"x_min":0,"x_max":0,"ha":2083},"詹":{"x_min":0,"x_max":0,"ha":2083},"藚":{"x_min":0,"x_max":0,"ha":2083},"爙":{"x_min":0,"x_max":0,"ha":2083},"幪":{"x_min":0,"x_max":0,"ha":2083},"薿":{"x_min":0,"x_max":0,"ha":2083},"譫":{"x_min":0,"x_max":0,"ha":2083},"嫨":{"x_min":0,"x_max":0,"ha":2083},"騢":{"x_min":0,"x_max":0,"ha":2083},"輩":{"x_min":0,"x_max":0,"ha":2083},"蕇":{"x_min":0,"x_max":0,"ha":2083},"构":{"x_min":0,"x_max":0,"ha":2083},"畜":{"x_min":0,"x_max":0,"ha":2083},"弦":{"x_min":0,"x_max":0,"ha":2083},"坁":{"x_min":0,"x_max":0,"ha":2083},"墐":{"x_min":0,"x_max":0,"ha":2083},"鮸":{"x_min":0,"x_max":0,"ha":2083},"牙":{"x_min":0,"x_max":0,"ha":2083},"鴕":{"x_min":0,"x_max":0,"ha":2083},"溏":{"x_min":0,"x_max":0,"ha":2083},"箄":{"x_min":0,"x_max":0,"ha":2083},"麤":{"x_min":0,"x_max":0,"ha":2083},"奐":{"x_min":0,"x_max":0,"ha":2083},"谽":{"x_min":0,"x_max":0,"ha":2083},"輈":{"x_min":0,"x_max":0,"ha":2083},"英":{"x_min":0,"x_max":0,"ha":2083},"鷝":{"x_min":0,"x_max":0,"ha":2083},"濴":{"x_min":0,"x_max":0,"ha":2083},"谾":{"x_min":0,"x_max":0,"ha":2083},"誧":{"x_min":0,"x_max":0,"ha":2083},"焟":{"x_min":0,"x_max":0,"ha":2083},"嘗":{"x_min":0,"x_max":0,"ha":2083},"栮":{"x_min":0,"x_max":0,"ha":2083},"婷":{"x_min":0,"x_max":0,"ha":2083},"溦":{"x_min":0,"x_max":0,"ha":2083},"孺":{"x_min":0,"x_max":0,"ha":2083},"侂":{"x_min":0,"x_max":0,"ha":2083},"貐":{"x_min":0,"x_max":0,"ha":2083},"嬧":{"x_min":0,"x_max":0,"ha":2083},"俯":{"x_min":0,"x_max":0,"ha":2083},"毰":{"x_min":0,"x_max":0,"ha":2083},"鼷":{"x_min":0,"x_max":0,"ha":2083},"闇":{"x_min":0,"x_max":0,"ha":2083},"蟝":{"x_min":0,"x_max":0,"ha":2083},"鍠":{"x_min":0,"x_max":0,"ha":2083},"謐":{"x_min":0,"x_max":0,"ha":2083},"洋":{"x_min":0,"x_max":0,"ha":2083},"愊":{"x_min":0,"x_max":0,"ha":2083},"娶":{"x_min":0,"x_max":0,"ha":2083},"虨":{"x_min":0,"x_max":0,"ha":2083},"譴":{"x_min":0,"x_max":0,"ha":2083},"柙":{"x_min":0,"x_max":0,"ha":2083},"炅":{"x_min":0,"x_max":0,"ha":2083},"崑":{"x_min":0,"x_max":0,"ha":2083},"酥":{"x_min":0,"x_max":0,"ha":2083},"縸":{"x_min":0,"x_max":0,"ha":2083},"遶":{"x_min":0,"x_max":0,"ha":2083},"誰":{"x_min":0,"x_max":0,"ha":2083},"臂":{"x_min":0,"x_max":0,"ha":2083},"圯":{"x_min":0,"x_max":0,"ha":2083},"曣":{"x_min":0,"x_max":0,"ha":2083},"戄":{"x_min":0,"x_max":0,"ha":2083},"纖":{"x_min":0,"x_max":0,"ha":2083},"撇":{"x_min":0,"x_max":0,"ha":2083},"作":{"x_min":0,"x_max":0,"ha":2083},"篧":{"x_min":0,"x_max":0,"ha":2083},"寵":{"x_min":0,"x_max":0,"ha":2083},"腹":{"x_min":0,"x_max":0,"ha":2083},"擙":{"x_min":0,"x_max":0,"ha":2083},"轍":{"x_min":0,"x_max":0,"ha":2083},"珋":{"x_min":0,"x_max":0,"ha":2083},"油":{"x_min":0,"x_max":0,"ha":2083},"韕":{"x_min":0,"x_max":0,"ha":2083},"妅":{"x_min":0,"x_max":0,"ha":2083},"鑿":{"x_min":0,"x_max":0,"ha":2083},"抱":{"x_min":0,"x_max":0,"ha":2083},"蘡":{"x_min":0,"x_max":0,"ha":2083},"迻":{"x_min":0,"x_max":0,"ha":2083},"漇":{"x_min":0,"x_max":0,"ha":2083},"櫜":{"x_min":0,"x_max":0,"ha":2083},"兙":{"x_min":0,"x_max":0,"ha":2083},"冪":{"x_min":0,"x_max":0,"ha":2083},"君":{"x_min":0,"x_max":0,"ha":2083},"适":{"x_min":0,"x_max":0,"ha":2083},"鵯":{"x_min":0,"x_max":0,"ha":2083},"什":{"x_min":69.171875,"x_max":2007.609375,"ha":2083,"o":"m 1726 809 q 1786 794 1755 815 q 1793 785 1791 790 q 1779 755 1795 779 q 1760 706 1768 731 q 1710 665 1745 660 q 1578 653 1653 663 q 1554 630 1558 651 q 1525 533 1547 583 q 1444 432 1504 480 q 1426 431 1437 425 q 1445 454 1424 434 q 1523 629 1509 530 q 1519 671 1524 657 q 1513 686 1512 683 q 1542 680 1516 689 q 1576 679 1554 672 q 1704 690 1641 686 q 1726 706 1721 691 q 1740 754 1736 732 q 1718 782 1745 782 l 1538 758 q 1500 764 1525 755 q 1491 783 1485 770 q 1726 809 1628 792 m 1981 486 q 2007 493 2010 507 q 1931 391 1988 458 q 1873 381 1900 343 q 1878 405 1864 394 l 1981 486 m 1513 389 q 1555 375 1528 397 q 1557 349 1565 368 l 1512 246 q 1504 225 1502 226 q 1532 226 1506 222 q 1702 241 1618 242 q 1727 244 1714 244 q 1760 245 1749 248 q 1787 210 1782 236 q 1782 193 1787 207 l 1757 142 q 1700 46 1741 93 q 1680 42 1687 33 q 1691 70 1679 46 q 1732 166 1714 111 q 1737 208 1742 196 q 1700 218 1723 221 q 1603 210 1652 215 q 1501 193 1532 204 q 1479 181 1494 192 q 1454 211 1437 170 q 1515 360 1504 267 q 1513 389 1512 387 m 771 996 q 893 972 811 1017 q 935 900 960 937 q 911 788 915 853 l 911 552 q 952 523 911 519 l 1047 537 q 1158 547 1127 547 q 1239 511 1201 538 q 1261 459 1280 482 q 1189 446 1243 444 q 944 454 1057 463 q 911 417 911 450 q 908 -8 912 204 q 857 -206 896 -153 q 842 -208 849 -210 q 828 -162 834 -204 l 828 404 q 788 434 828 436 q 638 401 713 420 q 530 402 568 370 q 489 439 486 434 q 520 454 504 455 q 790 497 638 467 q 828 531 828 503 q 826 830 830 680 q 798 938 817 889 q 771 996 767 988 m 423 953 q 455 961 431 976 q 545 881 511 941 q 410 630 450 694 q 396 579 383 588 q 420 507 429 549 q 410 -39 413 236 q 390 -123 408 -100 q 326 -74 352 -136 q 336 88 301 -20 q 354 485 363 236 l 351 505 q 311 500 347 542 q 112 324 208 379 q 69 316 71 310 l 191 448 q 427 877 385 668 q 423 953 428 915 "},"镽":{"x_min":0,"x_max":0,"ha":2083},"縛":{"x_min":0,"x_max":0,"ha":2083},"嘄":{"x_min":0,"x_max":0,"ha":2083},"霓":{"x_min":0,"x_max":0,"ha":2083},"題":{"x_min":0,"x_max":0,"ha":2083},"懤":{"x_min":0,"x_max":0,"ha":2083},"苪":{"x_min":0,"x_max":0,"ha":2083},"髡":{"x_min":0,"x_max":0,"ha":2083},"輲":{"x_min":0,"x_max":0,"ha":2083},"駽":{"x_min":0,"x_max":0,"ha":2083},"漀":{"x_min":0,"x_max":0,"ha":2083},"印":{"x_min":197,"x_max":2034.625,"ha":2083,"o":"m 1767 672 q 1795 671 1778 676 q 1840 651 1831 670 q 1836 638 1844 645 q 1776 637 1820 630 q 1506 614 1619 645 q 1449 649 1472 615 q 1478 652 1454 652 q 1581 653 1510 646 l 1740 664 q 1767 672 1752 667 m 1902 495 q 1940 492 1923 515 q 2020 394 1981 444 q 2034 367 2035 370 q 1902 455 1987 391 q 1902 495 1881 473 m 1551 389 q 1581 383 1563 396 q 1593 349 1604 374 q 1548 248 1572 297 q 1539 225 1538 227 q 1567 226 1542 223 q 1742 241 1661 242 l 1782 246 q 1818 233 1801 252 q 1817 181 1832 207 q 1765 80 1794 127 q 1730 39 1748 48 q 1721 42 1723 36 q 1732 70 1719 46 q 1780 193 1772 160 q 1761 218 1787 214 q 1592 204 1694 218 q 1520 183 1550 204 q 1486 188 1496 170 q 1489 208 1481 198 q 1554 368 1543 265 q 1551 389 1548 387 m 541 957 q 573 961 549 971 q 680 895 659 931 q 638 861 680 888 q 530 789 584 830 q 371 712 447 735 q 345 680 337 699 q 351 633 351 661 l 348 579 q 390 558 347 547 l 542 606 q 645 607 580 629 q 617 549 676 565 l 454 509 q 381 501 415 497 q 341 467 345 508 q 332 333 335 402 q 359 306 328 295 l 667 419 q 684 404 689 417 q 622 367 653 382 q 405 238 500 303 q 263 101 352 208 q 219 131 244 92 q 218 240 174 196 q 279 317 267 271 q 286 446 295 352 q 241 690 276 611 q 226 747 219 741 q 278 743 249 754 q 359 748 320 722 q 541 957 531 877 m 1036 824 q 1209 796 1109 868 q 1250 752 1251 763 q 1215 686 1243 733 q 1169 469 1194 629 q 1102 267 1151 347 q 1024 288 1068 226 q 960 354 990 321 q 922 413 912 405 q 972 406 931 419 q 1082 499 1067 371 q 1106 717 1100 614 q 1052 759 1114 777 q 895 733 973 748 q 862 693 862 725 l 862 -37 q 847 -146 853 -92 q 809 -208 839 -204 q 793 -108 796 -174 q 782 294 785 92 q 774 603 786 519 q 736 773 766 675 q 783 779 743 779 q 1036 824 915 762 "},"黎":{"x_min":0,"x_max":0,"ha":2083},"倎":{"x_min":0,"x_max":0,"ha":2083},"嶀":{"x_min":0,"x_max":0,"ha":2083},"霮":{"x_min":0,"x_max":0,"ha":2083},"澦":{"x_min":0,"x_max":0,"ha":2083},"鏇":{"x_min":0,"x_max":0,"ha":2083},"妐":{"x_min":0,"x_max":0,"ha":2083},"鹼":{"x_min":0,"x_max":0,"ha":2083},"疚":{"x_min":0,"x_max":0,"ha":2083},"蝍":{"x_min":0,"x_max":0,"ha":2083},"慀":{"x_min":0,"x_max":0,"ha":2083},"酗":{"x_min":0,"x_max":0,"ha":2083},"惻":{"x_min":0,"x_max":0,"ha":2083},"併":{"x_min":0,"x_max":0,"ha":2083},"鞪":{"x_min":0,"x_max":0,"ha":2083},"扃":{"x_min":0,"x_max":0,"ha":2083},"蜞":{"x_min":0,"x_max":0,"ha":2083},"斫":{"x_min":0,"x_max":0,"ha":2083},"墽":{"x_min":0,"x_max":0,"ha":2083},"幘":{"x_min":0,"x_max":0,"ha":2083},"劌":{"x_min":0,"x_max":0,"ha":2083},"硨":{"x_min":0,"x_max":0,"ha":2083},"堨":{"x_min":0,"x_max":0,"ha":2083},"郛":{"x_min":0,"x_max":0,"ha":2083},"炰":{"x_min":0,"x_max":0,"ha":2083},"撫":{"x_min":0,"x_max":0,"ha":2083},"帣":{"x_min":0,"x_max":0,"ha":2083},"埒":{"x_min":0,"x_max":0,"ha":2083},"浢":{"x_min":0,"x_max":0,"ha":2083},"仂":{"x_min":0,"x_max":0,"ha":2083},"覂":{"x_min":0,"x_max":0,"ha":2083},"螅":{"x_min":0,"x_max":0,"ha":2083},"孰":{"x_min":0,"x_max":0,"ha":2083},"潲":{"x_min":0,"x_max":0,"ha":2083},"蹼":{"x_min":0,"x_max":0,"ha":2083},"趔":{"x_min":0,"x_max":0,"ha":2083},"褖":{"x_min":0,"x_max":0,"ha":2083},"筋":{"x_min":0,"x_max":0,"ha":2083},"徨":{"x_min":0,"x_max":0,"ha":2083},"籜":{"x_min":0,"x_max":0,"ha":2083},"熧":{"x_min":0,"x_max":0,"ha":2083},"怫":{"x_min":0,"x_max":0,"ha":2083},"髍":{"x_min":0,"x_max":0,"ha":2083},"澼":{"x_min":0,"x_max":0,"ha":2083},"諅":{"x_min":0,"x_max":0,"ha":2083},"鍺":{"x_min":0,"x_max":0,"ha":2083},"穴":{"x_min":0,"x_max":0,"ha":2083},"偡":{"x_min":0,"x_max":0,"ha":2083},"罘":{"x_min":0,"x_max":0,"ha":2083},"\t":{"x_min":0,"x_max":0,"ha":694},"胄":{"x_min":0,"x_max":0,"ha":2083},"嘐":{"x_min":0,"x_max":0,"ha":2083},"苀":{"x_min":0,"x_max":0,"ha":2083},"嗐":{"x_min":0,"x_max":0,"ha":2083},"躪":{"x_min":0,"x_max":0,"ha":2083},"蔉":{"x_min":0,"x_max":0,"ha":2083},"玳":{"x_min":0,"x_max":0,"ha":2083},"庰":{"x_min":0,"x_max":0,"ha":2083},"宨":{"x_min":0,"x_max":0,"ha":2083},"譹":{"x_min":0,"x_max":0,"ha":2083},"狐":{"x_min":0,"x_max":0,"ha":2083},"泞":{"x_min":0,"x_max":0,"ha":2083},"掅":{"x_min":0,"x_max":0,"ha":2083},"土":{"x_min":0,"x_max":0,"ha":2083},"浹":{"x_min":0,"x_max":0,"ha":2083},"蚷":{"x_min":0,"x_max":0,"ha":2083},"蛀":{"x_min":0,"x_max":0,"ha":2083},"棺":{"x_min":0,"x_max":0,"ha":2083},"賬":{"x_min":0,"x_max":0,"ha":2083},"甹":{"x_min":0,"x_max":0,"ha":2083},"湨":{"x_min":0,"x_max":0,"ha":2083},"躥":{"x_min":0,"x_max":0,"ha":2083},"戩":{"x_min":0,"x_max":0,"ha":2083},"睯":{"x_min":0,"x_max":0,"ha":2083},":":{"x_min":288.890625,"x_max":467.9375,"ha":694,"o":"m 354 769 q 434 752 398 782 q 435 617 499 695 q 303 636 363 564 q 354 769 257 718 m 292 208 q 400 267 329 282 q 451 230 423 263 q 431 109 492 162 q 292 151 351 55 q 292 208 284 166 "},"襭":{"x_min":0,"x_max":0,"ha":2083},"莥":{"x_min":0,"x_max":0,"ha":2083},"巖":{"x_min":0,"x_max":0,"ha":2083},"菿":{"x_min":0,"x_max":0,"ha":2083},"勓":{"x_min":0,"x_max":0,"ha":2083},"殫":{"x_min":0,"x_max":0,"ha":2083},"嶒":{"x_min":0,"x_max":0,"ha":2083},"佧":{"x_min":0,"x_max":0,"ha":2083},"囃":{"x_min":0,"x_max":0,"ha":2083},"荃":{"x_min":0,"x_max":0,"ha":2083},"洞":{"x_min":0,"x_max":0,"ha":2083},"趼":{"x_min":0,"x_max":0,"ha":2083},"哆":{"x_min":0,"x_max":0,"ha":2083},"傿":{"x_min":0,"x_max":0,"ha":2083},"墨":{"x_min":150.234375,"x_max":2023.765625,"ha":2083,"o":"m 1721 815 q 1755 819 1736 820 q 1793 804 1780 817 q 1803 778 1805 794 q 1786 533 1784 683 q 1780 491 1786 507 q 1761 476 1772 469 q 1751 496 1753 481 q 1765 766 1759 630 q 1736 790 1760 792 q 1531 764 1662 785 q 1509 759 1510 762 q 1524 526 1515 642 q 1521 500 1525 511 q 1508 485 1519 485 q 1485 550 1482 500 q 1474 760 1497 645 q 1466 789 1464 786 q 1489 793 1474 794 q 1643 802 1528 786 q 1721 815 1684 805 m 1892 495 q 1930 492 1912 515 q 2010 394 1970 444 q 2023 367 2025 370 q 1892 455 1976 391 q 1892 495 1870 473 m 1752 344 q 1805 348 1776 349 q 1829 329 1824 348 q 1802 310 1828 314 q 1694 314 1746 316 q 1668 291 1668 311 l 1668 189 q 1634 162 1665 150 q 1571 174 1603 177 q 1510 115 1513 174 q 1542 67 1510 88 q 1639 42 1577 44 q 1774 78 1700 39 q 1802 82 1799 88 q 1793 56 1809 71 q 1741 28 1768 39 q 1581 20 1680 1 q 1482 80 1519 33 q 1472 130 1467 103 q 1517 189 1478 165 q 1619 200 1567 210 q 1639 238 1645 203 l 1639 288 q 1615 309 1639 310 q 1510 294 1566 305 q 1459 299 1482 283 q 1445 321 1440 313 q 1475 325 1451 325 q 1597 333 1508 324 l 1700 339 q 1752 344 1734 340 m 971 996 q 1052 971 1000 1003 q 1125 908 1102 939 q 1089 866 1127 899 q 1040 773 1062 828 q 986 664 1018 718 q 919 641 957 602 q 859 653 900 659 q 756 641 808 649 q 724 580 710 649 q 764 553 724 547 q 899 571 863 573 q 926 524 945 561 q 880 512 920 519 q 751 496 816 501 q 718 450 720 492 q 758 415 717 412 q 961 434 859 427 q 1057 379 1025 425 q 963 362 1032 347 q 434 321 750 374 q 379 320 404 313 q 335 358 328 351 q 359 364 343 363 l 629 398 q 665 443 665 404 q 621 481 664 484 q 455 493 516 458 q 496 514 459 515 l 629 531 q 663 577 664 538 l 663 595 q 622 623 663 627 l 522 610 q 489 599 493 610 q 457 600 476 576 q 410 722 436 629 q 347 885 386 807 q 324 931 318 923 q 420 914 363 937 q 469 912 428 907 q 971 996 815 957 m 926 929 q 737 908 832 920 q 724 893 708 904 q 737 843 741 882 q 729 716 731 779 q 770 689 728 683 l 881 705 q 935 745 914 705 q 981 901 977 824 q 926 929 969 934 m 610 895 l 488 880 q 461 838 451 876 l 485 675 q 534 652 489 645 l 629 667 q 661 706 661 674 l 661 832 q 657 866 661 847 q 610 895 651 899 m 820 866 q 827 889 811 888 q 891 862 847 892 q 878 797 930 826 l 811 748 q 754 735 769 706 q 793 782 755 741 q 820 866 839 827 m 519 785 q 531 832 488 842 q 617 721 646 798 q 571 717 604 693 q 519 785 550 735 m 1057 286 q 1068 321 1025 326 q 1257 195 1205 291 q 1194 134 1261 105 q 1123 204 1161 147 q 1057 286 1093 245 m 766 307 q 817 302 766 316 q 914 253 884 280 q 926 199 926 234 q 869 162 919 132 q 766 307 807 217 m 261 257 q 291 295 286 298 q 305 250 297 291 q 241 101 324 173 q 155 89 189 61 q 174 165 138 119 q 261 257 242 230 m 477 246 q 495 290 455 294 q 580 229 547 282 q 580 150 602 198 q 524 165 557 128 q 477 246 505 189 m 607 214 q 699 202 634 236 q 747 123 777 168 q 777 104 736 94 q 918 100 861 132 q 935 65 948 74 q 896 54 923 59 l 762 35 q 721 -6 724 29 q 720 -44 722 -25 q 760 -73 720 -77 l 1024 -48 q 1086 -56 1057 -44 q 1146 -94 1124 -70 q 1151 -119 1156 -109 q 1085 -134 1133 -139 q 343 -176 838 -113 q 267 -138 316 -181 q 268 -128 265 -132 q 318 -120 273 -124 l 634 -86 q 663 -37 667 -82 l 663 -9 q 619 17 661 23 l 522 8 q 440 35 484 -8 q 436 55 432 50 q 625 73 524 59 q 651 122 656 78 q 626 185 644 160 q 607 214 606 206 "},"甝":{"x_min":0,"x_max":0,"ha":2083},"鱊":{"x_min":0,"x_max":0,"ha":2083},"貙":{"x_min":0,"x_max":0,"ha":2083},"m":{"x_min":44.765625,"x_max":1045.734375,"ha":1085,"o":"m 173 592 q 217 575 217 614 l 217 538 q 256 549 217 504 q 453 603 351 625 q 560 526 519 587 q 609 537 575 493 q 830 602 702 623 q 950 461 938 561 l 950 105 q 996 35 938 54 q 1045 5 1045 29 q 1005 -18 1045 -18 l 826 -18 q 783 6 783 -18 q 824 36 783 32 q 870 108 882 48 l 870 421 q 840 518 866 473 q 771 556 816 550 q 655 519 716 562 q 585 406 584 463 l 585 108 q 632 37 573 56 q 679 8 679 32 q 638 -18 679 -18 l 451 -18 q 409 6 409 -18 q 450 36 409 32 q 503 108 516 46 l 503 417 q 402 556 504 530 l 367 556 q 236 467 298 545 q 217 405 217 434 q 219 70 215 240 q 284 35 233 36 q 309 8 309 32 q 268 -18 309 -18 l 90 -18 q 48 6 48 -18 q 89 37 48 32 q 135 105 150 52 l 134 485 q 81 519 120 519 q 44 541 44 522 q 85 565 44 560 q 173 592 126 571 "},"浤":{"x_min":0,"x_max":0,"ha":2083},"鐉":{"x_min":0,"x_max":0,"ha":2083},"眙":{"x_min":0,"x_max":0,"ha":2083},"篠":{"x_min":0,"x_max":0,"ha":2083},"嗧":{"x_min":0,"x_max":0,"ha":2083},"鏡":{"x_min":0,"x_max":0,"ha":2083},"隧":{"x_min":0,"x_max":0,"ha":2083},"溼":{"x_min":0,"x_max":0,"ha":2083},"單":{"x_min":0,"x_max":0,"ha":2083},"埽":{"x_min":0,"x_max":0,"ha":2083},"瑟":{"x_min":0,"x_max":0,"ha":2083},"孷":{"x_min":0,"x_max":0,"ha":2083},"鈄":{"x_min":0,"x_max":0,"ha":2083},"號":{"x_min":75.90625,"x_max":2012.921875,"ha":2083,"o":"m 1733 812 q 1810 809 1790 826 q 1794 785 1821 789 q 1664 778 1755 786 l 1586 771 q 1558 750 1562 774 q 1487 545 1535 637 q 1433 467 1477 519 q 1409 453 1409 446 q 1523 733 1496 581 q 1509 785 1524 760 q 1515 797 1508 790 q 1544 796 1523 798 q 1733 812 1612 789 m 1881 495 q 1919 492 1901 515 q 1999 394 1959 444 q 2012 367 2014 370 q 1881 455 1965 391 q 1881 495 1859 473 m 1600 377 q 1604 396 1596 396 q 1623 390 1609 396 q 1637 333 1673 366 q 1542 218 1596 288 q 1523 191 1521 193 q 1553 189 1527 187 q 1662 208 1607 200 q 1698 231 1677 211 q 1734 311 1734 271 q 1753 313 1738 325 q 1780 276 1778 291 q 1765 254 1784 263 q 1753 245 1759 252 l 1577 84 q 1561 63 1557 65 q 1688 82 1615 63 q 1691 109 1711 86 q 1665 136 1666 134 l 1672 143 q 1702 131 1676 145 q 1776 73 1734 115 q 1793 42 1791 58 q 1784 24 1795 35 q 1745 44 1770 18 q 1707 63 1727 69 q 1559 36 1627 46 q 1490 17 1528 33 q 1472 52 1458 25 q 1486 62 1477 58 q 1627 162 1554 90 q 1623 181 1649 184 q 1470 139 1547 169 q 1451 173 1443 139 q 1467 185 1455 179 q 1592 333 1550 244 q 1600 377 1605 356 m 804 990 q 893 979 838 1009 q 933 897 956 946 q 967 870 926 862 q 1101 897 1060 903 q 1114 850 1143 885 q 954 816 1032 826 q 915 778 922 819 l 910 725 q 941 698 901 690 q 1060 732 1014 713 q 1224 678 1120 794 q 1188 648 1224 655 q 1079 602 1133 627 q 1052 621 1026 580 q 1074 665 1074 656 q 1017 678 1067 689 q 748 615 863 655 q 713 576 713 607 l 710 500 q 751 478 710 467 l 785 486 q 817 531 817 499 q 811 575 817 553 q 809 618 804 615 q 888 534 903 590 q 925 531 884 519 q 1030 553 988 558 q 1059 518 1068 546 q 1011 496 1052 508 q 908 467 960 484 q 877 434 877 458 q 925 378 873 385 q 1062 397 1003 366 q 1148 393 1105 439 q 1125 330 1182 351 q 916 320 1018 309 q 817 408 826 332 q 777 434 817 440 l 740 429 q 701 394 705 434 q 531 -105 661 85 q 473 -155 486 -153 q 485 -109 458 -154 q 576 99 543 -18 q 644 564 645 318 q 607 665 638 610 q 667 660 626 682 q 735 655 694 645 l 827 675 q 855 722 862 683 q 823 941 847 876 q 804 990 800 984 m 409 865 q 508 846 442 888 q 552 790 543 824 q 511 745 552 783 q 481 695 493 722 q 473 653 463 660 q 488 622 501 638 q 454 610 481 617 l 297 580 q 263 564 264 577 q 241 539 257 538 q 219 569 225 546 q 176 786 214 683 q 154 831 150 826 q 219 830 192 839 q 246 821 236 820 q 409 865 333 838 m 359 807 q 280 786 320 804 q 254 740 248 782 q 264 649 257 697 q 307 629 267 617 q 367 646 337 640 q 408 695 401 655 q 410 800 420 773 q 359 807 393 817 m 459 526 q 607 507 538 560 q 610 480 617 496 q 561 469 594 463 q 348 440 435 463 q 322 419 313 431 q 309 363 330 404 l 303 352 q 284 306 280 313 q 333 314 292 305 l 428 336 q 545 254 500 333 q 488 112 497 206 q 459 4 476 50 q 383 -103 440 -56 q 313 -90 329 -147 l 291 -36 q 306 5 260 18 q 404 69 374 -29 q 421 223 423 138 q 374 279 432 284 q 238 225 301 276 q 189 199 208 188 q 191 284 154 253 q 246 383 237 337 q 214 410 254 419 l 169 400 q 115 408 145 396 q 75 434 74 427 q 134 447 88 446 q 459 526 259 465 m 960 263 q 1000 275 972 288 q 1059 240 1043 260 q 1052 187 1066 227 q 1034 2 1032 97 q 1099 -74 1026 -78 q 1219 -43 1181 -80 q 1247 18 1241 -17 q 1277 17 1257 67 q 1317 -69 1291 -36 q 1281 -116 1318 -89 q 1113 -150 1213 -157 q 1005 -108 1043 -142 q 976 -35 981 -82 q 980 147 976 55 q 960 263 986 189 m 785 198 q 773 252 766 249 q 824 240 796 257 q 862 160 874 200 q 797 -47 846 29 q 634 -149 727 -143 q 664 -118 625 -145 q 783 86 773 -36 q 785 198 792 126 "},"瑍":{"x_min":0,"x_max":0,"ha":2083},"巋":{"x_min":0,"x_max":0,"ha":2083},"咑":{"x_min":0,"x_max":0,"ha":2083},"餱":{"x_min":0,"x_max":0,"ha":2083},"泗":{"x_min":0,"x_max":0,"ha":2083},"毫":{"x_min":0,"x_max":0,"ha":2083},"薁":{"x_min":0,"x_max":0,"ha":2083},"峒":{"x_min":0,"x_max":0,"ha":2083},"藉":{"x_min":0,"x_max":0,"ha":2083},"外":{"x_min":155.8125,"x_max":2014.28125,"ha":2083,"o":"m 1707 798 q 1727 817 1706 827 q 1745 766 1774 790 q 1721 737 1729 751 q 1677 680 1703 709 q 1683 640 1660 659 q 1786 554 1742 600 q 1775 509 1809 524 q 1749 522 1764 507 q 1662 614 1719 560 q 1611 611 1637 634 q 1429 499 1519 528 q 1449 520 1425 501 q 1592 634 1524 571 q 1586 674 1612 653 q 1497 741 1542 709 q 1500 759 1467 764 q 1612 690 1550 732 q 1657 702 1633 676 q 1707 798 1695 744 m 1882 495 q 1920 492 1902 515 q 2000 394 1961 444 q 2014 367 2015 370 q 1882 455 1966 391 q 1882 495 1860 473 m 1752 367 q 1793 368 1772 370 q 1816 351 1817 366 q 1795 336 1809 336 q 1684 333 1736 336 q 1666 321 1661 332 q 1661 282 1672 311 l 1652 254 q 1668 238 1643 236 q 1714 244 1691 242 q 1752 241 1740 248 q 1790 200 1782 223 q 1782 183 1790 196 q 1757 131 1772 169 q 1702 29 1737 74 q 1687 18 1696 24 q 1684 42 1673 16 q 1741 193 1737 136 q 1714 217 1741 218 l 1652 210 q 1618 184 1631 210 q 1493 44 1573 103 q 1452 23 1464 23 q 1445 27 1448 24 q 1470 52 1445 31 q 1582 185 1542 105 q 1573 206 1593 206 q 1501 196 1535 203 q 1471 193 1481 191 q 1489 253 1445 215 q 1505 307 1505 276 q 1483 326 1496 321 q 1466 344 1470 333 q 1475 354 1468 351 q 1752 367 1611 354 m 1607 329 l 1566 326 q 1539 301 1544 325 q 1517 250 1534 276 q 1534 227 1506 226 q 1580 230 1555 227 q 1614 254 1603 231 l 1628 309 q 1607 329 1633 329 m 785 987 q 869 972 819 1002 q 914 897 918 939 q 901 571 899 743 q 942 534 901 538 q 1146 473 1063 518 q 1269 294 1274 394 q 1209 291 1258 265 q 934 474 1125 332 q 901 463 901 496 l 900 -40 l 892 -149 q 870 -196 884 -180 q 817 -166 846 -219 q 811 -4 773 -99 q 821 104 819 50 q 828 215 823 157 l 830 846 q 789 954 826 897 q 785 987 775 971 m 409 873 q 492 838 434 874 q 511 762 531 802 q 420 611 463 689 q 450 591 402 581 q 550 622 505 602 q 618 651 598 648 q 732 585 686 640 q 698 539 733 575 q 644 431 674 507 q 528 214 594 309 q 203 -46 401 40 q 155 -54 162 -58 q 192 -16 153 -46 q 496 292 406 143 q 600 553 566 420 q 558 564 599 571 l 466 539 q 415 533 440 533 q 354 503 379 541 q 344 492 351 497 q 354 436 311 453 q 444 377 398 423 q 448 294 478 344 q 402 291 439 276 q 316 386 359 320 q 249 382 286 421 q 165 326 196 325 q 188 373 158 330 q 335 590 269 465 q 408 828 409 714 q 409 873 404 869 "},"軜":{"x_min":0,"x_max":0,"ha":2083},"眐":{"x_min":0,"x_max":0,"ha":2083},"諢":{"x_min":0,"x_max":0,"ha":2083},"睙":{"x_min":0,"x_max":0,"ha":2083},"眢":{"x_min":0,"x_max":0,"ha":2083},"洧":{"x_min":0,"x_max":0,"ha":2083},"沄":{"x_min":0,"x_max":0,"ha":2083},"鰩":{"x_min":0,"x_max":0,"ha":2083},"藇":{"x_min":0,"x_max":0,"ha":2083},"滆":{"x_min":0,"x_max":0,"ha":2083},"搐":{"x_min":0,"x_max":0,"ha":2083},"晨":{"x_min":0,"x_max":0,"ha":2083},"酮":{"x_min":0,"x_max":0,"ha":2083},"貣":{"x_min":0,"x_max":0,"ha":2083},"悝":{"x_min":0,"x_max":0,"ha":2083},"叢":{"x_min":0,"x_max":0,"ha":2083},"烯":{"x_min":0,"x_max":0,"ha":2083},"鈳":{"x_min":0,"x_max":0,"ha":2083},"跴":{"x_min":0,"x_max":0,"ha":2083},"擩":{"x_min":0,"x_max":0,"ha":2083},"咇":{"x_min":0,"x_max":0,"ha":2083},"閛":{"x_min":0,"x_max":0,"ha":2083},"磩":{"x_min":0,"x_max":0,"ha":2083},"蓉":{"x_min":0,"x_max":0,"ha":2083},"抈":{"x_min":0,"x_max":0,"ha":2083},"唹":{"x_min":0,"x_max":0,"ha":2083},"訝":{"x_min":0,"x_max":0,"ha":2083},"挫":{"x_min":0,"x_max":0,"ha":2083},"鐀":{"x_min":0,"x_max":0,"ha":2083},"藶":{"x_min":0,"x_max":0,"ha":2083},"嵥":{"x_min":0,"x_max":0,"ha":2083},"饓":{"x_min":0,"x_max":0,"ha":2083},"逆":{"x_min":0,"x_max":0,"ha":2083},"埶":{"x_min":0,"x_max":0,"ha":2083},"銵":{"x_min":0,"x_max":0,"ha":2083},"罏":{"x_min":0,"x_max":0,"ha":2083},"焎":{"x_min":0,"x_max":0,"ha":2083},"晟":{"x_min":0,"x_max":0,"ha":2083},"料":{"x_min":0,"x_max":0,"ha":2083},"寮":{"x_min":0,"x_max":0,"ha":2083},"鳪":{"x_min":0,"x_max":0,"ha":2083},"靷":{"x_min":0,"x_max":0,"ha":2083},"毛":{"x_min":0,"x_max":0,"ha":2083},"邠":{"x_min":0,"x_max":0,"ha":2083},"謝":{"x_min":0,"x_max":0,"ha":2083},"繰":{"x_min":0,"x_max":0,"ha":2083},"焯":{"x_min":0,"x_max":0,"ha":2083},"譑":{"x_min":0,"x_max":0,"ha":2083},"墻":{"x_min":0,"x_max":0,"ha":2083},"艘":{"x_min":0,"x_max":0,"ha":2083},"偭":{"x_min":0,"x_max":0,"ha":2083},"埃":{"x_min":0,"x_max":0,"ha":2083},"瀅":{"x_min":0,"x_max":0,"ha":2083},"囊":{"x_min":0,"x_max":0,"ha":2083},"汌":{"x_min":0,"x_max":0,"ha":2083},"崝":{"x_min":0,"x_max":0,"ha":2083},"灢":{"x_min":0,"x_max":0,"ha":2083},"椑":{"x_min":73.453125,"x_max":2025.125,"ha":2083,"o":"m 1614 847 q 1642 839 1626 855 q 1647 813 1653 827 l 1616 762 q 1599 733 1599 736 q 1631 725 1604 718 q 1733 739 1679 729 q 1780 741 1761 745 q 1772 691 1814 716 q 1751 665 1757 679 q 1708 603 1729 626 q 1714 568 1688 583 q 1813 488 1775 537 q 1813 450 1831 459 q 1764 478 1791 450 q 1688 543 1741 504 q 1643 543 1664 560 q 1444 440 1544 473 q 1440 447 1440 443 q 1611 557 1554 514 q 1615 592 1637 579 q 1544 633 1580 614 q 1529 642 1532 640 q 1531 649 1528 646 q 1559 641 1534 651 q 1637 607 1596 626 q 1676 618 1657 598 q 1726 706 1723 668 q 1717 710 1723 709 q 1590 697 1675 713 q 1539 682 1559 684 q 1519 689 1525 678 q 1543 727 1512 708 q 1586 774 1573 747 q 1609 832 1612 812 q 1614 847 1609 846 m 1893 495 q 1931 492 1913 515 q 2011 394 1972 444 q 2025 367 2026 370 q 1893 455 1977 391 q 1893 495 1871 473 m 1774 240 q 1839 231 1795 245 q 1847 208 1856 222 q 1832 203 1841 203 l 1757 207 l 1690 207 q 1510 184 1586 204 q 1443 212 1478 174 q 1455 222 1437 222 q 1508 217 1483 217 q 1746 233 1627 226 q 1774 240 1759 234 m 821 965 q 870 1002 830 1009 q 945 967 915 995 q 945 950 948 958 q 788 807 877 878 q 804 783 751 775 q 1060 835 991 812 q 1196 777 1106 855 q 1180 709 1226 748 q 1142 614 1158 667 q 1089 451 1118 533 q 1022 429 1068 381 q 969 440 1010 444 q 896 434 933 439 q 842 387 865 431 q 632 211 777 264 q 640 249 530 198 q 777 383 716 290 q 764 421 800 423 q 724 409 728 420 q 708 400 718 396 q 678 444 687 404 q 565 777 621 690 q 611 783 571 785 l 637 777 q 740 813 702 739 q 821 965 802 895 m 328 953 q 372 952 332 960 q 438 915 413 939 q 442 888 443 906 q 423 651 421 767 q 463 630 423 618 q 539 641 501 644 q 575 611 568 640 q 550 585 576 591 l 455 561 q 423 507 423 552 q 463 451 423 462 q 543 330 562 416 q 459 358 515 306 q 420 359 423 400 q 409 -33 423 160 q 370 -149 408 -104 q 336 -109 360 -150 q 332 -5 317 -70 q 360 336 356 138 q 339 344 362 382 q 183 139 273 221 q 78 77 130 86 q 103 119 61 77 q 339 501 264 286 q 311 530 351 537 q 120 533 180 493 q 128 545 122 539 l 330 592 q 363 636 363 603 q 339 903 364 811 q 328 953 325 949 m 1003 773 q 926 763 965 770 q 910 745 888 758 q 923 679 949 721 q 949 653 916 645 q 999 656 972 657 q 1030 621 1038 649 q 973 602 1026 611 l 937 595 q 896 549 904 590 q 889 515 895 533 q 922 485 881 482 q 994 493 956 492 q 1038 533 1025 486 q 1078 722 1068 617 q 1003 773 1086 794 m 793 747 l 714 736 q 693 689 683 732 q 718 492 703 592 q 766 466 722 462 q 782 467 774 465 q 828 501 819 472 l 836 543 q 802 577 842 580 q 735 594 769 577 q 777 613 732 600 l 813 621 q 846 663 846 630 q 839 744 850 709 q 793 747 834 752 m 874 393 q 892 402 880 402 q 960 374 926 400 q 990 291 999 335 q 1032 256 987 250 l 1132 267 q 1227 278 1199 278 q 1329 204 1307 257 q 1257 180 1317 173 q 1019 188 1148 198 q 987 150 987 183 q 976 -157 992 -75 q 938 -215 971 -191 q 915 -176 920 -217 q 912 143 911 -16 q 872 174 912 176 q 573 120 744 161 q 489 168 526 120 q 520 180 499 180 q 880 234 698 204 q 912 273 912 241 q 897 344 912 314 q 874 393 874 386 "},"轘":{"x_min":0,"x_max":0,"ha":2083},"唑":{"x_min":0,"x_max":0,"ha":2083},"噭":{"x_min":0,"x_max":0,"ha":2083},"怲":{"x_min":0,"x_max":0,"ha":2083},"卷":{"x_min":0,"x_max":0,"ha":2083},"緹":{"x_min":0,"x_max":0,"ha":2083},"蟢":{"x_min":0,"x_max":0,"ha":2083},"蚼":{"x_min":0,"x_max":0,"ha":2083},"揧":{"x_min":0,"x_max":0,"ha":2083},"咮":{"x_min":0,"x_max":0,"ha":2083},"稨":{"x_min":0,"x_max":0,"ha":2083},"枮":{"x_min":0,"x_max":0,"ha":2083},"蕎":{"x_min":0,"x_max":0,"ha":2083},"辣":{"x_min":0,"x_max":0,"ha":2083},"籽":{"x_min":0,"x_max":0,"ha":2083},"磎":{"x_min":0,"x_max":0,"ha":2083},"闋":{"x_min":0,"x_max":0,"ha":2083},"浰":{"x_min":0,"x_max":0,"ha":2083},"蠙":{"x_min":0,"x_max":0,"ha":2083},"攉":{"x_min":0,"x_max":0,"ha":2083},"薈":{"x_min":0,"x_max":0,"ha":2083},"煸":{"x_min":0,"x_max":0,"ha":2083},"毹":{"x_min":0,"x_max":0,"ha":2083},"傱":{"x_min":0,"x_max":0,"ha":2083},"硅":{"x_min":0,"x_max":0,"ha":2083},"憰":{"x_min":0,"x_max":0,"ha":2083},"彙":{"x_min":0,"x_max":0,"ha":2083},"藎":{"x_min":0,"x_max":0,"ha":2083},"媹":{"x_min":0,"x_max":0,"ha":2083},"鍗":{"x_min":0,"x_max":0,"ha":2083},"狿":{"x_min":0,"x_max":0,"ha":2083},"虃":{"x_min":0,"x_max":0,"ha":2083},"慇":{"x_min":0,"x_max":0,"ha":2083},"鄚":{"x_min":0,"x_max":0,"ha":2083},"歷":{"x_min":0,"x_max":0,"ha":2083},"蜧":{"x_min":0,"x_max":0,"ha":2083},"撢":{"x_min":0,"x_max":0,"ha":2083},"偶":{"x_min":0,"x_max":0,"ha":2083},"鑶":{"x_min":0,"x_max":0,"ha":2083},"螜":{"x_min":0,"x_max":0,"ha":2083},"鰷":{"x_min":0,"x_max":0,"ha":2083},"撽":{"x_min":0,"x_max":0,"ha":2083},"躎":{"x_min":0,"x_max":0,"ha":2083},"濬":{"x_min":0,"x_max":0,"ha":2083},"蟔":{"x_min":0,"x_max":0,"ha":2083},"譊":{"x_min":0,"x_max":0,"ha":2083},"話":{"x_min":0,"x_max":0,"ha":2083},"摩":{"x_min":0,"x_max":0,"ha":2083},"嫸":{"x_min":0,"x_max":0,"ha":2083},"擽":{"x_min":0,"x_max":0,"ha":2083},"撙":{"x_min":0,"x_max":0,"ha":2083},"鼓":{"x_min":0,"x_max":0,"ha":2083},"支":{"x_min":0,"x_max":0,"ha":2083},"紿":{"x_min":0,"x_max":0,"ha":2083},"湒":{"x_min":0,"x_max":0,"ha":2083},"絊":{"x_min":0,"x_max":0,"ha":2083},"渹":{"x_min":0,"x_max":0,"ha":2083},"趿":{"x_min":0,"x_max":0,"ha":2083},"瀜":{"x_min":0,"x_max":0,"ha":2083},"詣":{"x_min":0,"x_max":0,"ha":2083},"刉":{"x_min":0,"x_max":0,"ha":2083},"钁":{"x_min":0,"x_max":0,"ha":2083},"猿":{"x_min":0,"x_max":0,"ha":2083},"鱣":{"x_min":0,"x_max":0,"ha":2083},"赯":{"x_min":0,"x_max":0,"ha":2083},"牠":{"x_min":0,"x_max":0,"ha":2083},"銣":{"x_min":0,"x_max":0,"ha":2083},"苰":{"x_min":0,"x_max":0,"ha":2083},"笸":{"x_min":0,"x_max":0,"ha":2083},"忙":{"x_min":0,"x_max":0,"ha":2083},"嵌":{"x_min":0,"x_max":0,"ha":2083},"烹":{"x_min":0,"x_max":0,"ha":2083},"尹":{"x_min":0,"x_max":0,"ha":2083},"莿":{"x_min":0,"x_max":0,"ha":2083},"探":{"x_min":0,"x_max":0,"ha":2083},"恨":{"x_min":0,"x_max":0,"ha":2083},"昧":{"x_min":0,"x_max":0,"ha":2083},"玫":{"x_min":0,"x_max":0,"ha":2083},"鍒":{"x_min":0,"x_max":0,"ha":2083},"櫮":{"x_min":0,"x_max":0,"ha":2083},"簑":{"x_min":0,"x_max":0,"ha":2083},"途":{"x_min":0,"x_max":0,"ha":2083},"玎":{"x_min":0,"x_max":0,"ha":2083},"仉":{"x_min":0,"x_max":0,"ha":2083},"鞳":{"x_min":0,"x_max":0,"ha":2083},"繩":{"x_min":0,"x_max":0,"ha":2083},"噂":{"x_min":0,"x_max":0,"ha":2083},"失":{"x_min":0,"x_max":0,"ha":2083},"氟":{"x_min":0,"x_max":0,"ha":2083},"搥":{"x_min":0,"x_max":0,"ha":2083},"沷":{"x_min":0,"x_max":0,"ha":2083},"雖":{"x_min":0,"x_max":0,"ha":2083},"狙":{"x_min":0,"x_max":0,"ha":2083},"舒":{"x_min":0,"x_max":0,"ha":2083},"商":{"x_min":0,"x_max":0,"ha":2083},"絣":{"x_min":0,"x_max":0,"ha":2083},"謦":{"x_min":0,"x_max":0,"ha":2083},"宎":{"x_min":0,"x_max":0,"ha":2083},"鱴":{"x_min":0,"x_max":0,"ha":2083},"幝":{"x_min":0,"x_max":0,"ha":2083},"蹣":{"x_min":0,"x_max":0,"ha":2083},"Q":{"x_min":80.28125,"x_max":877.921875,"ha":901,"o":"m 306 865 q 705 834 514 958 q 853 619 819 740 q 849 259 904 423 q 686 25 813 126 q 668 -24 649 5 q 815 -51 731 -105 q 863 -36 855 -27 q 836 -86 873 -50 q 592 -63 695 -204 q 535 -33 572 -27 q 136 189 273 -67 q 92 564 54 374 q 199 781 112 678 q 306 865 254 842 m 556 839 q 253 722 377 887 q 204 240 112 489 q 259 141 229 180 q 292 157 283 112 q 377 238 329 225 q 607 92 522 279 q 665 97 623 61 q 709 151 693 124 q 739 667 854 417 q 556 839 676 802 m 404 198 q 328 126 344 195 l 328 90 q 368 39 335 56 q 516 17 439 4 q 537 65 550 23 q 404 198 484 210 "},"簢":{"x_min":0,"x_max":0,"ha":2083},"噠":{"x_min":0,"x_max":0,"ha":2083},"詗":{"x_min":0,"x_max":0,"ha":2083},"臧":{"x_min":0,"x_max":0,"ha":2083},"瓽":{"x_min":0,"x_max":0,"ha":2083},"澌":{"x_min":0,"x_max":0,"ha":2083},"呿":{"x_min":0,"x_max":0,"ha":2083},"蘵":{"x_min":0,"x_max":0,"ha":2083},"榜":{"x_min":0,"x_max":0,"ha":2083},"堶":{"x_min":0,"x_max":0,"ha":2083},"籮":{"x_min":0,"x_max":0,"ha":2083},"貪":{"x_min":0,"x_max":0,"ha":2083},"腕":{"x_min":0,"x_max":0,"ha":2083},"翃":{"x_min":0,"x_max":0,"ha":2083},"腱":{"x_min":0,"x_max":0,"ha":2083},"彎":{"x_min":0,"x_max":0,"ha":2083},"闖":{"x_min":0,"x_max":0,"ha":2083},"籓":{"x_min":0,"x_max":0,"ha":2083},"剒":{"x_min":0,"x_max":0,"ha":2083},"蠢":{"x_min":0,"x_max":0,"ha":2083},"欗":{"x_min":0,"x_max":0,"ha":2083},"饜":{"x_min":0,"x_max":0,"ha":2083},"婍":{"x_min":0,"x_max":0,"ha":2083},"膘":{"x_min":0,"x_max":0,"ha":2083},"侁":{"x_min":0,"x_max":0,"ha":2083},"笯":{"x_min":0,"x_max":0,"ha":2083},"蕪":{"x_min":0,"x_max":0,"ha":2083},"比":{"x_min":0,"x_max":0,"ha":2083},"戾":{"x_min":0,"x_max":0,"ha":2083},"迨":{"x_min":0,"x_max":0,"ha":2083},"櫼":{"x_min":0,"x_max":0,"ha":2083},"領":{"x_min":0,"x_max":0,"ha":2083},"樈":{"x_min":0,"x_max":0,"ha":2083},"榦":{"x_min":0,"x_max":0,"ha":2083},"H":{"x_min":61.03125,"x_max":923.671875,"ha":985,"o":"m 62 851 q 100 878 62 878 l 335 878 q 377 854 377 878 q 336 826 377 827 q 263 743 250 815 l 263 495 q 295 461 263 461 l 690 461 q 724 493 724 461 l 724 774 q 656 824 709 821 q 610 853 610 828 q 651 878 610 878 l 881 878 q 923 854 923 878 q 882 824 923 828 q 812 741 801 819 l 812 85 q 878 35 828 33 q 922 8 923 33 q 878 -18 919 -18 l 648 -18 q 606 6 606 -18 q 646 35 606 33 q 721 88 710 32 l 721 373 q 689 406 721 406 l 292 406 q 259 374 259 406 q 261 77 257 227 q 322 36 280 37 q 374 8 374 33 q 333 -18 374 -18 l 103 -18 q 61 6 61 -18 q 101 35 61 33 q 174 89 160 32 l 174 774 q 107 824 160 821 q 62 851 62 828 "},"鰈":{"x_min":0,"x_max":0,"ha":2083},"渡":{"x_min":0,"x_max":0,"ha":2083},"鹺":{"x_min":0,"x_max":0,"ha":2083},"冔":{"x_min":0,"x_max":0,"ha":2083},"艾":{"x_min":0,"x_max":0,"ha":2083},"勴":{"x_min":0,"x_max":0,"ha":2083},"艴":{"x_min":0,"x_max":0,"ha":2083},"范":{"x_min":0,"x_max":0,"ha":2083},"徶":{"x_min":0,"x_max":0,"ha":2083},"圔":{"x_min":0,"x_max":0,"ha":2083},"濻":{"x_min":0,"x_max":0,"ha":2083},"鏺":{"x_min":0,"x_max":0,"ha":2083},"瘽":{"x_min":0,"x_max":0,"ha":2083},"崶":{"x_min":0,"x_max":0,"ha":2083},"渚":{"x_min":0,"x_max":0,"ha":2083},"瞴":{"x_min":0,"x_max":0,"ha":2083},"孚":{"x_min":0,"x_max":0,"ha":2083},"呸":{"x_min":0,"x_max":0,"ha":2083},"鴱":{"x_min":0,"x_max":0,"ha":2083},"艵":{"x_min":0,"x_max":0,"ha":2083},"謫":{"x_min":0,"x_max":0,"ha":2083},"瘳":{"x_min":0,"x_max":0,"ha":2083},"苣":{"x_min":0,"x_max":0,"ha":2083},"祁":{"x_min":0,"x_max":0,"ha":2083},"亙":{"x_min":0,"x_max":0,"ha":2083},"蠫":{"x_min":0,"x_max":0,"ha":2083},"瘯":{"x_min":0,"x_max":0,"ha":2083},"原":{"x_min":0,"x_max":0,"ha":2083},"凸":{"x_min":0,"x_max":0,"ha":2083},",":{"x_min":66.1875,"x_max":238.46875,"ha":259,"o":"m 75 2 q 174 39 119 59 q 237 -67 246 2 q 141 -229 226 -153 q 80 -248 96 -261 q 100 -204 66 -234 q 145 -139 141 -177 q 119 -111 155 -122 q 75 2 43 -75 "},"穿":{"x_min":0,"x_max":0,"ha":2083},"柩":{"x_min":0,"x_max":0,"ha":2083},"妥":{"x_min":0,"x_max":0,"ha":2083},"苜":{"x_min":0,"x_max":0,"ha":2083},"毆":{"x_min":0,"x_max":0,"ha":2083},"粴":{"x_min":0,"x_max":0,"ha":2083},"晱":{"x_min":0,"x_max":0,"ha":2083},"襟":{"x_min":0,"x_max":0,"ha":2083},"鸕":{"x_min":0,"x_max":0,"ha":2083},"軮":{"x_min":0,"x_max":0,"ha":2083},"詌":{"x_min":0,"x_max":0,"ha":2083},"蕣":{"x_min":0,"x_max":0,"ha":2083},"鮈":{"x_min":0,"x_max":0,"ha":2083},"穬":{"x_min":0,"x_max":0,"ha":2083},"演":{"x_min":0,"x_max":0,"ha":2083},"掊":{"x_min":0,"x_max":0,"ha":2083},"嘬":{"x_min":0,"x_max":0,"ha":2083},"邶":{"x_min":0,"x_max":0,"ha":2083},"箖":{"x_min":0,"x_max":0,"ha":2083},"忥":{"x_min":0,"x_max":0,"ha":2083},"妗":{"x_min":0,"x_max":0,"ha":2083},"挴":{"x_min":0,"x_max":0,"ha":2083},"傸":{"x_min":0,"x_max":0,"ha":2083},"茶":{"x_min":0,"x_max":0,"ha":2083},"胑":{"x_min":0,"x_max":0,"ha":2083},"璭":{"x_min":0,"x_max":0,"ha":2083},"伀":{"x_min":0,"x_max":0,"ha":2083},"彪":{"x_min":0,"x_max":0,"ha":2083},"砃":{"x_min":0,"x_max":0,"ha":2083},"驧":{"x_min":0,"x_max":0,"ha":2083},"惘":{"x_min":0,"x_max":0,"ha":2083},"痙":{"x_min":0,"x_max":0,"ha":2083},"旆":{"x_min":0,"x_max":0,"ha":2083},"塕":{"x_min":0,"x_max":0,"ha":2083},"%":{"x_min":70.53125,"x_max":1175.359375,"ha":1218,"o":"m 177 992 q 386 1032 263 1064 q 535 846 512 983 q 523 592 564 701 q 233 442 435 379 q 134 526 174 462 q 85 775 77 632 q 177 992 96 908 m 364 990 q 198 888 248 1029 q 187 607 160 775 q 333 469 214 462 q 431 543 398 480 q 451 869 484 684 q 364 990 432 960 m 1108 956 q 1167 979 1150 996 q 1148 918 1189 957 l 135 -94 q 77 -113 96 -132 q 97 -54 56 -93 l 1108 956 m 705 249 q 1024 472 763 550 q 1121 385 1083 450 q 1158 123 1174 287 q 1129 14 1151 63 q 949 -118 1071 -108 q 733 5 800 -134 q 705 249 689 116 m 977 434 q 800 302 836 474 q 805 33 773 143 q 948 -80 838 -90 q 1045 -4 1010 -69 q 1057 341 1099 139 q 977 434 1038 409 "},"闠":{"x_min":0,"x_max":0,"ha":2083},"捈":{"x_min":0,"x_max":0,"ha":2083},"伎":{"x_min":0,"x_max":0,"ha":2083},"陛":{"x_min":0,"x_max":0,"ha":2083},"觳":{"x_min":0,"x_max":0,"ha":2083},"姒":{"x_min":0,"x_max":0,"ha":2083},"姛":{"x_min":0,"x_max":0,"ha":2083},"沓":{"x_min":0,"x_max":0,"ha":2083},"枙":{"x_min":0,"x_max":0,"ha":2083},"鯖":{"x_min":0,"x_max":0,"ha":2083},"翂":{"x_min":0,"x_max":0,"ha":2083},"鶚":{"x_min":0,"x_max":0,"ha":2083},"邍":{"x_min":0,"x_max":0,"ha":2083},"躓":{"x_min":0,"x_max":0,"ha":2083},"鯃":{"x_min":0,"x_max":0,"ha":2083},"淂":{"x_min":0,"x_max":0,"ha":2083},"哎":{"x_min":0,"x_max":0,"ha":2083},"沊":{"x_min":0,"x_max":0,"ha":2083},"言":{"x_min":0,"x_max":0,"ha":2083},"牧":{"x_min":0,"x_max":0,"ha":2083},"刷":{"x_min":0,"x_max":0,"ha":2083},"履":{"x_min":0,"x_max":0,"ha":2083},"嬔":{"x_min":0,"x_max":0,"ha":2083},"邟":{"x_min":0,"x_max":0,"ha":2083},"菲":{"x_min":0,"x_max":0,"ha":2083},"鍞":{"x_min":0,"x_max":0,"ha":2083},"瀝":{"x_min":0,"x_max":0,"ha":2083},"桽":{"x_min":0,"x_max":0,"ha":2083},"筮":{"x_min":0,"x_max":0,"ha":2083},"寫":{"x_min":0,"x_max":0,"ha":2083},"求":{"x_min":0,"x_max":0,"ha":2083},"誃":{"x_min":0,"x_max":0,"ha":2083},"垸":{"x_min":0,"x_max":0,"ha":2083},"淽":{"x_min":0,"x_max":0,"ha":2083},"枷":{"x_min":0,"x_max":0,"ha":2083},"鋇":{"x_min":0,"x_max":0,"ha":2083},"呥":{"x_min":0,"x_max":0,"ha":2083},"頡":{"x_min":0,"x_max":0,"ha":2083},"鞥":{"x_min":0,"x_max":0,"ha":2083},"跽":{"x_min":0,"x_max":0,"ha":2083},"替":{"x_min":0,"x_max":0,"ha":2083},"嗕":{"x_min":0,"x_max":0,"ha":2083},"赽":{"x_min":0,"x_max":0,"ha":2083},"籥":{"x_min":0,"x_max":0,"ha":2083},"酩":{"x_min":0,"x_max":0,"ha":2083},"罼":{"x_min":0,"x_max":0,"ha":2083},"滶":{"x_min":0,"x_max":0,"ha":2083},"吰":{"x_min":0,"x_max":0,"ha":2083},"朊":{"x_min":0,"x_max":0,"ha":2083},"痢":{"x_min":0,"x_max":0,"ha":2083},"翦":{"x_min":0,"x_max":0,"ha":2083},"璦":{"x_min":0,"x_max":0,"ha":2083},"峉":{"x_min":0,"x_max":0,"ha":2083},"膻":{"x_min":0,"x_max":0,"ha":2083},"黫":{"x_min":0,"x_max":0,"ha":2083},"珝":{"x_min":0,"x_max":0,"ha":2083},"脖":{"x_min":0,"x_max":0,"ha":2083},"狶":{"x_min":0,"x_max":0,"ha":2083},"艙":{"x_min":0,"x_max":0,"ha":2083},"楪":{"x_min":0,"x_max":0,"ha":2083},"軥":{"x_min":0,"x_max":0,"ha":2083},"瞁":{"x_min":0,"x_max":0,"ha":2083},"整":{"x_min":0,"x_max":0,"ha":2083},"醅":{"x_min":0,"x_max":0,"ha":2083},"榩":{"x_min":0,"x_max":0,"ha":2083},"絜":{"x_min":0,"x_max":0,"ha":2083},"同":{"x_min":0,"x_max":0,"ha":2083},"惑":{"x_min":0,"x_max":0,"ha":2083},"刮":{"x_min":0,"x_max":0,"ha":2083},"繓":{"x_min":0,"x_max":0,"ha":2083},"綺":{"x_min":0,"x_max":0,"ha":2083},"畟":{"x_min":0,"x_max":0,"ha":2083},"攝":{"x_min":0,"x_max":0,"ha":2083},"鐮":{"x_min":0,"x_max":0,"ha":2083},"袢":{"x_min":0,"x_max":0,"ha":2083},"扡":{"x_min":0,"x_max":0,"ha":2083},"狂":{"x_min":0,"x_max":0,"ha":2083},"蹓":{"x_min":0,"x_max":0,"ha":2083},"涅":{"x_min":0,"x_max":0,"ha":2083},"觺":{"x_min":0,"x_max":0,"ha":2083},"平":{"x_min":0,"x_max":0,"ha":2083},"麒":{"x_min":0,"x_max":0,"ha":2083},"粍":{"x_min":0,"x_max":0,"ha":2083},"栱":{"x_min":0,"x_max":0,"ha":2083},"扼":{"x_min":0,"x_max":0,"ha":2083},"優":{"x_min":0,"x_max":0,"ha":2083},"盅":{"x_min":0,"x_max":0,"ha":2083},"抖":{"x_min":86.765625,"x_max":2032.5625,"ha":2083,"o":"m 1562 809 q 1572 836 1570 835 q 1600 823 1595 843 q 1599 793 1611 805 l 1544 718 l 1546 714 q 1574 716 1548 712 q 1681 725 1623 724 l 1757 732 q 1786 684 1795 733 q 1703 480 1763 566 q 1666 461 1680 454 q 1653 488 1662 463 q 1645 519 1641 518 q 1721 564 1690 484 q 1748 665 1744 618 q 1711 708 1759 713 l 1660 706 q 1627 678 1639 703 q 1475 489 1582 575 q 1448 478 1449 474 q 1475 508 1448 484 q 1589 678 1554 583 q 1574 695 1595 699 q 1482 672 1523 684 q 1471 683 1474 672 q 1491 710 1470 690 q 1562 809 1550 764 m 1850 508 q 1873 495 1850 515 l 1916 450 q 1968 450 1942 428 q 2022 507 1996 478 q 2031 512 2029 512 q 2027 486 2034 512 l 1974 385 q 1919 368 1947 332 l 1850 508 m 1721 377 q 1755 374 1738 382 q 1771 359 1768 366 q 1771 340 1778 347 q 1721 264 1749 318 q 1690 212 1706 234 q 1699 174 1675 192 q 1789 107 1746 141 q 1810 44 1839 63 q 1780 54 1797 37 q 1677 150 1733 107 q 1628 141 1653 168 q 1449 18 1538 52 q 1424 16 1422 12 q 1609 166 1525 77 q 1603 206 1628 187 l 1532 253 q 1513 273 1506 271 q 1550 260 1529 272 q 1627 221 1588 242 q 1664 234 1647 208 q 1710 330 1704 295 q 1676 343 1702 347 q 1523 318 1599 333 q 1497 324 1512 314 q 1479 345 1475 341 q 1497 352 1485 351 q 1721 377 1597 354 m 862 1014 q 896 1026 868 1029 q 1029 958 979 1011 q 1021 904 1041 937 q 1000 788 1007 865 l 1000 465 q 1041 440 1000 432 l 1136 459 q 1254 443 1197 473 q 1281 387 1298 416 q 1219 375 1258 368 q 1037 364 1128 373 q 1000 332 1000 363 q 998 12 1002 172 q 972 -123 992 -61 q 934 -172 942 -174 q 922 -124 926 -165 l 922 314 q 881 343 922 347 l 678 310 q 511 335 591 279 q 528 355 505 348 q 889 408 690 366 q 922 448 922 416 q 919 847 923 648 q 877 983 911 923 q 862 1014 862 1006 m 322 977 q 356 981 336 988 q 453 929 412 964 q 455 873 466 908 q 439 679 434 774 q 458 655 439 646 q 571 642 514 674 q 571 625 573 633 q 512 598 557 606 q 472 588 492 595 q 439 546 439 579 l 439 476 q 482 458 442 435 l 534 489 q 556 493 546 495 q 523 443 568 489 l 474 410 q 440 355 440 386 q 454 82 439 222 q 442 -55 458 27 q 419 -109 438 -85 q 347 -99 374 -164 q 244 44 292 -10 q 280 44 240 66 l 307 28 q 356 16 351 12 q 367 44 360 21 l 367 306 q 325 310 367 340 q 225 231 250 260 q 177 192 185 192 q 118 223 147 195 q 86 272 85 264 q 143 297 101 292 q 330 378 231 326 q 367 427 367 398 l 367 533 q 325 554 367 566 q 166 558 234 519 q 160 577 153 571 l 335 614 q 367 657 367 625 q 340 931 381 832 q 322 977 318 973 m 664 764 q 680 804 632 804 q 789 774 737 800 q 820 703 834 747 q 800 686 812 684 q 664 764 740 687 m 626 562 q 626 607 587 603 q 724 591 667 607 q 796 505 802 565 q 724 488 781 459 q 626 562 678 507 "},"己":{"x_min":0,"x_max":0,"ha":2083},"欂":{"x_min":0,"x_max":0,"ha":2083},"柎":{"x_min":0,"x_max":0,"ha":2083},"滾":{"x_min":0,"x_max":0,"ha":2083},"蓔":{"x_min":0,"x_max":0,"ha":2083},"嶙":{"x_min":0,"x_max":0,"ha":2083},"覛":{"x_min":0,"x_max":0,"ha":2083},"桴":{"x_min":0,"x_max":0,"ha":2083},"麋":{"x_min":0,"x_max":0,"ha":2083},"檥":{"x_min":0,"x_max":0,"ha":2083},"儳":{"x_min":0,"x_max":0,"ha":2083},"碾":{"x_min":0,"x_max":0,"ha":2083},"拌":{"x_min":0,"x_max":0,"ha":2083},"蝵":{"x_min":0,"x_max":0,"ha":2083},"環":{"x_min":0,"x_max":0,"ha":2083},"奶":{"x_min":0,"x_max":0,"ha":2083},"疤":{"x_min":0,"x_max":0,"ha":2083},"甔":{"x_min":0,"x_max":0,"ha":2083},"戁":{"x_min":0,"x_max":0,"ha":2083},"氪":{"x_min":0,"x_max":0,"ha":2083},"鎴":{"x_min":0,"x_max":0,"ha":2083},"甋":{"x_min":0,"x_max":0,"ha":2083},"旍":{"x_min":0,"x_max":0,"ha":2083},"惵":{"x_min":0,"x_max":0,"ha":2083},"溝":{"x_min":0,"x_max":0,"ha":2083},"唵":{"x_min":0,"x_max":0,"ha":2083},"鬌":{"x_min":0,"x_max":0,"ha":2083},"鬨":{"x_min":0,"x_max":0,"ha":2083},"胹":{"x_min":0,"x_max":0,"ha":2083},"娌":{"x_min":0,"x_max":0,"ha":2083},"鶣":{"x_min":0,"x_max":0,"ha":2083},"吞":{"x_min":0,"x_max":0,"ha":2083},"鷅":{"x_min":0,"x_max":0,"ha":2083},"玼":{"x_min":0,"x_max":0,"ha":2083},"軡":{"x_min":0,"x_max":0,"ha":2083},"鬲":{"x_min":0,"x_max":0,"ha":2083},"搦":{"x_min":0,"x_max":0,"ha":2083},"肢":{"x_min":0,"x_max":0,"ha":2083},"桭":{"x_min":0,"x_max":0,"ha":2083},"臞":{"x_min":0,"x_max":0,"ha":2083},"降":{"x_min":0,"x_max":0,"ha":2083},"汱":{"x_min":0,"x_max":0,"ha":2083},"伭":{"x_min":0,"x_max":0,"ha":2083},"妠":{"x_min":0,"x_max":0,"ha":2083},"耦":{"x_min":0,"x_max":0,"ha":2083},"鷦":{"x_min":0,"x_max":0,"ha":2083},"蓾":{"x_min":0,"x_max":0,"ha":2083},"膴":{"x_min":0,"x_max":0,"ha":2083},"繞":{"x_min":0,"x_max":0,"ha":2083},"慘":{"x_min":0,"x_max":0,"ha":2083},"澰":{"x_min":0,"x_max":0,"ha":2083},"悈":{"x_min":0,"x_max":0,"ha":2083},"壝":{"x_min":0,"x_max":0,"ha":2083},"緰":{"x_min":0,"x_max":0,"ha":2083},"圉":{"x_min":0,"x_max":0,"ha":2083},"欐":{"x_min":0,"x_max":0,"ha":2083},"厹":{"x_min":0,"x_max":0,"ha":2083},"鳷":{"x_min":0,"x_max":0,"ha":2083},"睼":{"x_min":0,"x_max":0,"ha":2083},"慏":{"x_min":0,"x_max":0,"ha":2083},"濛":{"x_min":0,"x_max":0,"ha":2083},"褑":{"x_min":0,"x_max":0,"ha":2083},"丙":{"x_min":0,"x_max":0,"ha":2083},"笓":{"x_min":0,"x_max":0,"ha":2083},"獂":{"x_min":0,"x_max":0,"ha":2083},"鞜":{"x_min":0,"x_max":0,"ha":2083},"疶":{"x_min":0,"x_max":0,"ha":2083},"涮":{"x_min":0,"x_max":0,"ha":2083},"吷":{"x_min":0,"x_max":0,"ha":2083},"蔒":{"x_min":0,"x_max":0,"ha":2083},"宕":{"x_min":0,"x_max":0,"ha":2083},"扈":{"x_min":0,"x_max":0,"ha":2083},"濡":{"x_min":0,"x_max":0,"ha":2083},"媲":{"x_min":0,"x_max":0,"ha":2083},"鄲":{"x_min":0,"x_max":0,"ha":2083},"還":{"x_min":0,"x_max":0,"ha":2083},"褢":{"x_min":0,"x_max":0,"ha":2083},"鋗":{"x_min":0,"x_max":0,"ha":2083},"刓":{"x_min":0,"x_max":0,"ha":2083},"鬫":{"x_min":0,"x_max":0,"ha":2083},"炡":{"x_min":0,"x_max":0,"ha":2083},"赶":{"x_min":0,"x_max":0,"ha":2083}}}
